G04 #@! TF.GenerationSoftware,KiCad,Pcbnew,8.0.5*
G04 #@! TF.CreationDate,2024-10-24T23:20:29+02:00*
G04 #@! TF.ProjectId,iot-opentherm,696f742d-6f70-4656-9e74-6865726d2e6b,rev?*
G04 #@! TF.SameCoordinates,Original*
G04 #@! TF.FileFunction,Soldermask,Top*
G04 #@! TF.FilePolarity,Negative*
%FSLAX46Y46*%
G04 Gerber Fmt 4.6, Leading zero omitted, Abs format (unit mm)*
G04 Created by KiCad (PCBNEW 8.0.5) date 2024-10-24 23:20:29*
%MOMM*%
%LPD*%
G01*
G04 APERTURE LIST*
G04 Aperture macros list*
%AMRoundRect*
0 Rectangle with rounded corners*
0 $1 Rounding radius*
0 $2 $3 $4 $5 $6 $7 $8 $9 X,Y pos of 4 corners*
0 Add a 4 corners polygon primitive as box body*
4,1,4,$2,$3,$4,$5,$6,$7,$8,$9,$2,$3,0*
0 Add four circle primitives for the rounded corners*
1,1,$1+$1,$2,$3*
1,1,$1+$1,$4,$5*
1,1,$1+$1,$6,$7*
1,1,$1+$1,$8,$9*
0 Add four rect primitives between the rounded corners*
20,1,$1+$1,$2,$3,$4,$5,0*
20,1,$1+$1,$4,$5,$6,$7,0*
20,1,$1+$1,$6,$7,$8,$9,0*
20,1,$1+$1,$8,$9,$2,$3,0*%
G04 Aperture macros list end*
%ADD10RoundRect,0.375000X0.375000X-0.625000X0.375000X0.625000X-0.375000X0.625000X-0.375000X-0.625000X0*%
%ADD11RoundRect,0.500000X1.400000X-0.500000X1.400000X0.500000X-1.400000X0.500000X-1.400000X-0.500000X0*%
%ADD12R,1.700000X1.700000*%
%ADD13O,1.700000X1.700000*%
%ADD14RoundRect,0.112500X0.187500X0.112500X-0.187500X0.112500X-0.187500X-0.112500X0.187500X-0.112500X0*%
%ADD15RoundRect,0.250000X0.250000X-0.250000X0.250000X0.250000X-0.250000X0.250000X-0.250000X-0.250000X0*%
%ADD16R,0.400000X1.350000*%
%ADD17O,1.000000X1.900000*%
%ADD18R,0.875000X1.900000*%
%ADD19O,1.050000X1.250000*%
%ADD20R,2.900000X1.900000*%
%ADD21R,1.500000X1.600000*%
%ADD22R,2.600000X1.100000*%
G04 APERTURE END LIST*
D10*
X137112000Y-105410000D03*
X139412000Y-105410000D03*
D11*
X139412000Y-99110000D03*
D10*
X141712000Y-105410000D03*
D12*
X138684000Y-82931000D03*
D13*
X138684000Y-85471000D03*
X136144000Y-82931000D03*
X136144000Y-85471000D03*
X133604000Y-82931000D03*
X133604000Y-85471000D03*
X131064000Y-82931000D03*
X131064000Y-85471000D03*
X128524000Y-82931000D03*
X128524000Y-85471000D03*
X125984000Y-82931000D03*
X125984000Y-85471000D03*
D14*
X141986000Y-88265000D03*
X139886000Y-88265000D03*
D15*
X137330000Y-95103000D03*
X137330000Y-92603000D03*
D16*
X131048400Y-108018200D03*
X130398400Y-108018200D03*
X129748400Y-108018200D03*
X129098400Y-108018200D03*
X128448400Y-108018200D03*
D17*
X125573400Y-110693200D03*
D18*
X126010900Y-110693200D03*
D19*
X127523400Y-107693200D03*
D20*
X129748400Y-110693200D03*
D19*
X131973400Y-107693200D03*
D18*
X133485900Y-110693200D03*
D17*
X133923400Y-110693200D03*
D14*
X141986000Y-90297000D03*
X139886000Y-90297000D03*
D21*
X127965200Y-90805200D03*
X125425200Y-90805200D03*
X125425200Y-100025200D03*
X127965200Y-100025200D03*
D12*
X137414000Y-75636200D03*
D13*
X137414000Y-78176200D03*
D15*
X139362000Y-95103000D03*
X139362000Y-92603000D03*
D12*
X129794000Y-75636200D03*
D13*
X129794000Y-78176200D03*
D12*
X138264000Y-109474000D03*
D13*
X140804000Y-109474000D03*
D21*
X131013200Y-100025200D03*
X133553200Y-100025200D03*
X133553200Y-90805200D03*
X131013200Y-90805200D03*
D12*
X133604000Y-75636200D03*
D13*
X133604000Y-78176200D03*
D12*
X126085600Y-103987600D03*
D13*
X128625600Y-103987600D03*
D14*
X138650000Y-90297000D03*
X136550000Y-90297000D03*
D22*
X125620000Y-54900000D03*
X125620000Y-56900000D03*
X125620000Y-58900000D03*
X125620000Y-60900000D03*
X125620000Y-62900000D03*
X125620000Y-64900000D03*
X125620000Y-66900000D03*
X125620000Y-68900000D03*
X141620000Y-68900000D03*
X141620000Y-66900000D03*
X141620000Y-64900000D03*
X141620000Y-62900000D03*
X141620000Y-60900000D03*
X141620000Y-58900000D03*
X141620000Y-56900000D03*
X141620000Y-54900000D03*
D15*
X141394000Y-95103000D03*
X141394000Y-92603000D03*
D14*
X138650000Y-88265000D03*
X136550000Y-88265000D03*
D12*
X141478000Y-74041000D03*
D13*
X141478000Y-76581000D03*
X141478000Y-79121000D03*
D12*
X125984000Y-75636200D03*
D13*
X125984000Y-78176200D03*
M02*
