M48
; DRILL file {KiCad 8.0.5} date 2024-10-24T23:20:33+0200
; FORMAT={-:-/ absolute / metric / decimal}
; #@! TF.CreationDate,2024-10-24T23:20:33+02:00
; #@! TF.GenerationSoftware,Kicad,Pcbnew,8.0.5
; #@! TF.FileFunction,Plated,1,4,PTH
FMAT,2
METRIC
; #@! TA.AperFunction,Plated,PTH,ViaDrill
T1C0.305
; #@! TA.AperFunction,Plated,PTH,ViaDrill
T2C0.381
; #@! TA.AperFunction,Plated,PTH,ViaDrill
T3C0.508
; #@! TA.AperFunction,Plated,PTH,ComponentDrill
T4C0.600
; #@! TA.AperFunction,Plated,PTH,ViaDrill
T5C0.635
; #@! TA.AperFunction,Plated,PTH,ComponentDrill
T6C0.650
; #@! TA.AperFunction,Plated,PTH,ComponentDrill
T7C1.000
%
G90
G05
T1
X126.797Y-95.453
X127.512Y-66.9
X127.66Y-64.973
X128.067Y-55.524
X128.422Y-98.247
X128.727Y-72.39
X129.083Y-89.662
X130.861Y-98.755
X131.216Y-72.695
X131.267Y-65.075
X132.182Y-69.088
X133.045Y-66.548
X133.68Y-73.965
X133.706Y-97.892
X133.731Y-89.637
X135.28Y-65.481
X135.89Y-92.812
X136.144Y-61.265
X136.144Y-63.652
X137.109Y-70.053
X137.211Y-63.856
X137.312Y-94.132
X137.516Y-61.112
X138.379Y-57.709
X138.379Y-91.237
X138.582Y-55.677
X138.989Y-67.31
X139.395Y-94.132
X139.573Y-59.004
X140.462Y-94.183
X141.072Y-88.697
X141.656Y-94.209
T2
X125.12Y-89.256
X128.422Y-106.578
X131.216Y-89.357
X135.001Y-94.666
T3
X127.711Y-68.936
X130.454Y-71.628
X130.505Y-67.31
X135.382Y-105.359
X136.601Y-99.771
X137.312Y-107.391
X137.922Y-97.587
X138.786Y-102.87
X139.141Y-107.239
X139.412Y-97.638
X139.548Y-68.885
X141.376Y-97.739
X141.529Y-101.803
X142.138Y-99.009
T5
X128.108Y-109.253
X141.732Y-107.34
T7
X125.984Y-75.636
X125.984Y-78.176
X125.984Y-82.931
X125.984Y-85.471
X126.086Y-103.988
X128.524Y-82.931
X128.524Y-85.471
X128.626Y-103.988
X129.794Y-75.636
X129.794Y-78.176
X131.064Y-82.931
X131.064Y-85.471
X133.604Y-75.636
X133.604Y-78.176
X133.604Y-82.931
X133.604Y-85.471
X136.144Y-82.931
X136.144Y-85.471
X137.414Y-75.636
X137.414Y-78.176
X138.264Y-109.474
X138.684Y-82.931
X138.684Y-85.471
X140.804Y-109.474
X141.478Y-74.041
X141.478Y-76.581
X141.478Y-79.121
T4
X125.573Y-110.343G85X125.573Y-111.043
G05
X133.923Y-110.343G85X133.923Y-111.043
G05
T6
X127.523Y-107.593G85X127.523Y-107.793
G05
X131.973Y-107.593G85X131.973Y-107.793
G05
M30
