G04 #@! TF.GenerationSoftware,KiCad,Pcbnew,8.0.5*
G04 #@! TF.CreationDate,2024-10-24T23:20:29+02:00*
G04 #@! TF.ProjectId,iot-opentherm,696f742d-6f70-4656-9e74-6865726d2e6b,rev?*
G04 #@! TF.SameCoordinates,Original*
G04 #@! TF.FileFunction,Copper,L4,Bot*
G04 #@! TF.FilePolarity,Positive*
%FSLAX46Y46*%
G04 Gerber Fmt 4.6, Leading zero omitted, Abs format (unit mm)*
G04 Created by KiCad (PCBNEW 8.0.5) date 2024-10-24 23:20:29*
%MOMM*%
%LPD*%
G01*
G04 APERTURE LIST*
G04 Aperture macros list*
%AMRoundRect*
0 Rectangle with rounded corners*
0 $1 Rounding radius*
0 $2 $3 $4 $5 $6 $7 $8 $9 X,Y pos of 4 corners*
0 Add a 4 corners polygon primitive as box body*
4,1,4,$2,$3,$4,$5,$6,$7,$8,$9,$2,$3,0*
0 Add four circle primitives for the rounded corners*
1,1,$1+$1,$2,$3*
1,1,$1+$1,$4,$5*
1,1,$1+$1,$6,$7*
1,1,$1+$1,$8,$9*
0 Add four rect primitives between the rounded corners*
20,1,$1+$1,$2,$3,$4,$5,0*
20,1,$1+$1,$4,$5,$6,$7,0*
20,1,$1+$1,$6,$7,$8,$9,0*
20,1,$1+$1,$8,$9,$2,$3,0*%
G04 Aperture macros list end*
G04 #@! TA.AperFunction,ComponentPad*
%ADD10R,1.700000X1.700000*%
G04 #@! TD*
G04 #@! TA.AperFunction,ComponentPad*
%ADD11O,1.700000X1.700000*%
G04 #@! TD*
G04 #@! TA.AperFunction,ComponentPad*
%ADD12O,1.000000X1.900000*%
G04 #@! TD*
G04 #@! TA.AperFunction,ComponentPad*
%ADD13O,1.050000X1.250000*%
G04 #@! TD*
G04 #@! TA.AperFunction,SMDPad,CuDef*
%ADD14RoundRect,0.237500X-0.300000X-0.237500X0.300000X-0.237500X0.300000X0.237500X-0.300000X0.237500X0*%
G04 #@! TD*
G04 #@! TA.AperFunction,SMDPad,CuDef*
%ADD15RoundRect,0.237500X0.250000X0.237500X-0.250000X0.237500X-0.250000X-0.237500X0.250000X-0.237500X0*%
G04 #@! TD*
G04 #@! TA.AperFunction,SMDPad,CuDef*
%ADD16RoundRect,0.250000X-0.337500X-0.475000X0.337500X-0.475000X0.337500X0.475000X-0.337500X0.475000X0*%
G04 #@! TD*
G04 #@! TA.AperFunction,SMDPad,CuDef*
%ADD17RoundRect,0.250000X0.475000X-0.337500X0.475000X0.337500X-0.475000X0.337500X-0.475000X-0.337500X0*%
G04 #@! TD*
G04 #@! TA.AperFunction,SMDPad,CuDef*
%ADD18RoundRect,0.237500X-0.237500X0.250000X-0.237500X-0.250000X0.237500X-0.250000X0.237500X0.250000X0*%
G04 #@! TD*
G04 #@! TA.AperFunction,SMDPad,CuDef*
%ADD19RoundRect,0.237500X0.237500X-0.250000X0.237500X0.250000X-0.237500X0.250000X-0.237500X-0.250000X0*%
G04 #@! TD*
G04 #@! TA.AperFunction,SMDPad,CuDef*
%ADD20RoundRect,0.237500X-0.250000X-0.237500X0.250000X-0.237500X0.250000X0.237500X-0.250000X0.237500X0*%
G04 #@! TD*
G04 #@! TA.AperFunction,SMDPad,CuDef*
%ADD21RoundRect,0.150000X-0.587500X-0.150000X0.587500X-0.150000X0.587500X0.150000X-0.587500X0.150000X0*%
G04 #@! TD*
G04 #@! TA.AperFunction,SMDPad,CuDef*
%ADD22RoundRect,0.250000X-0.475000X0.337500X-0.475000X-0.337500X0.475000X-0.337500X0.475000X0.337500X0*%
G04 #@! TD*
G04 #@! TA.AperFunction,ViaPad*
%ADD23C,1.143000*%
G04 #@! TD*
G04 #@! TA.AperFunction,ViaPad*
%ADD24C,1.016000*%
G04 #@! TD*
G04 #@! TA.AperFunction,ViaPad*
%ADD25C,0.889000*%
G04 #@! TD*
G04 #@! TA.AperFunction,ViaPad*
%ADD26C,1.270000*%
G04 #@! TD*
G04 #@! TA.AperFunction,ViaPad*
%ADD27C,0.762000*%
G04 #@! TD*
G04 #@! TA.AperFunction,Conductor*
%ADD28C,0.304800*%
G04 #@! TD*
G04 #@! TA.AperFunction,Conductor*
%ADD29C,0.508000*%
G04 #@! TD*
G04 #@! TA.AperFunction,Conductor*
%ADD30C,0.203200*%
G04 #@! TD*
G04 #@! TA.AperFunction,Conductor*
%ADD31C,0.762000*%
G04 #@! TD*
G04 APERTURE END LIST*
D10*
X138684000Y-82931000D03*
D11*
X138684000Y-85471000D03*
X136144000Y-82931000D03*
X136144000Y-85471000D03*
X133604000Y-82931000D03*
X133604000Y-85471000D03*
X131064000Y-82931000D03*
X131064000Y-85471000D03*
X128524000Y-82931000D03*
X128524000Y-85471000D03*
X125984000Y-82931000D03*
X125984000Y-85471000D03*
D12*
X125573400Y-110693200D03*
D13*
X127523400Y-107693200D03*
X131973400Y-107693200D03*
D12*
X133923400Y-110693200D03*
D10*
X137414000Y-75636200D03*
D11*
X137414000Y-78176200D03*
D10*
X129794000Y-75636200D03*
D11*
X129794000Y-78176200D03*
D10*
X138264000Y-109474000D03*
D11*
X140804000Y-109474000D03*
D10*
X133604000Y-75636200D03*
D11*
X133604000Y-78176200D03*
D10*
X126085600Y-103987600D03*
D11*
X128625600Y-103987600D03*
D10*
X141478000Y-74041000D03*
D11*
X141478000Y-76581000D03*
X141478000Y-79121000D03*
D10*
X125984000Y-75636200D03*
D11*
X125984000Y-78176200D03*
D14*
X128779100Y-68376800D03*
X130504100Y-68376800D03*
D15*
X132196500Y-88011000D03*
X130371500Y-88011000D03*
D16*
X128400900Y-70154800D03*
X130475900Y-70154800D03*
D17*
X141698000Y-105380700D03*
X141698000Y-103305700D03*
D18*
X125823000Y-92051500D03*
X125823000Y-93876500D03*
D19*
X127982000Y-89812500D03*
X127982000Y-87987500D03*
D20*
X131895500Y-98806000D03*
X133720500Y-98806000D03*
D21*
X129965500Y-93914000D03*
X129965500Y-92014000D03*
X131840500Y-92964000D03*
D22*
X137126000Y-101222500D03*
X137126000Y-103297500D03*
D15*
X131688500Y-96266000D03*
X129863500Y-96266000D03*
D18*
X134840000Y-88114500D03*
X134840000Y-89939500D03*
X134840000Y-91797500D03*
X134840000Y-93622500D03*
D23*
X138785600Y-102870000D03*
D24*
X128422400Y-106578400D03*
D25*
X125120400Y-89255600D03*
D23*
X141528800Y-101803200D03*
X139547600Y-68884800D03*
X137312400Y-107391200D03*
X135382000Y-105359200D03*
X130454400Y-71628000D03*
X130505200Y-67310000D03*
X128108054Y-109252723D03*
D25*
X135001000Y-94665800D03*
D26*
X141732000Y-107340400D03*
D23*
X139412000Y-97637600D03*
X141376400Y-97739200D03*
X136601200Y-99771200D03*
D25*
X131216400Y-89357200D03*
D23*
X139141200Y-107238800D03*
X127711200Y-68935600D03*
X142138400Y-99009200D03*
X137922000Y-97586800D03*
D27*
X141071600Y-88696800D03*
X126796800Y-95453200D03*
X140462000Y-94183200D03*
X138379200Y-91236800D03*
X133705600Y-97891600D03*
X141655800Y-94208600D03*
X128422400Y-98247200D03*
X139395200Y-94132400D03*
X137312400Y-94132400D03*
X135890000Y-92811600D03*
X137109200Y-70053200D03*
X137515600Y-61112400D03*
X137210800Y-63855600D03*
X138582400Y-55676800D03*
X138379200Y-57708800D03*
X136144000Y-61264800D03*
X136144000Y-63652400D03*
X138988800Y-67310000D03*
X132181600Y-69088000D03*
X133045200Y-66548000D03*
X127511600Y-66900000D03*
X128727200Y-72390000D03*
X133680200Y-73964800D03*
X131267200Y-65074800D03*
X131216400Y-72694800D03*
X127660400Y-64973200D03*
X139573000Y-59004200D03*
X135280400Y-65481200D03*
X128066800Y-55524400D03*
X130860800Y-98755200D03*
X129082800Y-89662000D03*
X133731000Y-89636600D03*
D28*
X130504100Y-68376800D02*
X130504100Y-67311100D01*
D29*
X137126000Y-103297500D02*
X138358100Y-103297500D01*
X141698000Y-101972400D02*
X141528800Y-101803200D01*
D30*
X135001000Y-94665800D02*
X134840000Y-94504800D01*
X134840000Y-94504800D02*
X134840000Y-93622500D01*
D28*
X130475900Y-70154800D02*
X130475900Y-71606500D01*
X130475900Y-71606500D02*
X130454400Y-71628000D01*
D29*
X138358100Y-103297500D02*
X138785600Y-102870000D01*
X128108054Y-109252723D02*
X127981961Y-109378816D01*
D28*
X130504100Y-67311100D02*
X130505200Y-67310000D01*
D29*
X141698000Y-103305700D02*
X141698000Y-101972400D01*
D31*
X140804000Y-108217600D02*
X141681200Y-107340400D01*
X141681200Y-107340400D02*
X141732000Y-107340400D01*
D29*
X141698000Y-107306400D02*
X141732000Y-107340400D01*
D31*
X140804000Y-109474000D02*
X140804000Y-108217600D01*
D29*
X141698000Y-105380700D02*
X141698000Y-107306400D01*
X128400900Y-70154800D02*
X128400900Y-69625300D01*
X137126000Y-100296000D02*
X136601200Y-99771200D01*
X128779100Y-68376800D02*
X128270000Y-68376800D01*
X128400900Y-69625300D02*
X127711200Y-68935600D01*
X137126000Y-101222500D02*
X137126000Y-100296000D01*
X128270000Y-68376800D02*
X127711200Y-68935600D01*
D30*
X134153226Y-88906800D02*
X140861600Y-88906800D01*
X129965500Y-92014000D02*
X133104900Y-88874600D01*
X140861600Y-88906800D02*
X141071600Y-88696800D01*
X125823000Y-92051500D02*
X129928000Y-92051500D01*
X134121026Y-88874600D02*
X134153226Y-88906800D01*
X129928000Y-92051500D02*
X129965500Y-92014000D01*
X133104900Y-88874600D02*
X134121026Y-88874600D01*
X126796800Y-95758000D02*
X126085600Y-96469200D01*
X126796800Y-95453200D02*
X126796800Y-95758000D01*
X126085600Y-96469200D02*
X126085600Y-103987600D01*
X138379200Y-91236800D02*
X140462000Y-93319600D01*
X140462000Y-93319600D02*
X140462000Y-94183200D01*
X133720500Y-97906500D02*
X133705600Y-97891600D01*
X133720500Y-98806000D02*
X133720500Y-97906500D01*
X139496800Y-96367600D02*
X131790100Y-96367600D01*
X141655800Y-94208600D02*
X139496800Y-96367600D01*
X131840500Y-96114000D02*
X131688500Y-96266000D01*
X131790100Y-96367600D02*
X131688500Y-96266000D01*
X131840500Y-92964000D02*
X131840500Y-96114000D01*
X133654800Y-95351600D02*
X133654800Y-92913200D01*
X138684000Y-94132400D02*
X137058400Y-95758000D01*
X134061200Y-95758000D02*
X133654800Y-95351600D01*
X133654800Y-92913200D02*
X132892800Y-92151200D01*
X125823000Y-93876500D02*
X129928000Y-93876500D01*
X128422400Y-98247200D02*
X128422400Y-95457100D01*
X129928000Y-93876500D02*
X129965500Y-93914000D01*
X131213142Y-92151200D02*
X129965500Y-93398842D01*
X129965500Y-93398842D02*
X129965500Y-93914000D01*
X132892800Y-92151200D02*
X131213142Y-92151200D01*
X128422400Y-95457100D02*
X129965500Y-93914000D01*
X139395200Y-94132400D02*
X138684000Y-94132400D01*
X137058400Y-95758000D02*
X134061200Y-95758000D01*
X137210800Y-94132400D02*
X135890000Y-92811600D01*
X137312400Y-94132400D02*
X137210800Y-94132400D01*
X138582400Y-57505600D02*
X138379200Y-57708800D01*
X138582400Y-55676800D02*
X138582400Y-57505600D01*
X137515600Y-63550800D02*
X137210800Y-63855600D01*
X140436600Y-74041000D02*
X141478000Y-74041000D01*
X137109200Y-70053200D02*
X137109200Y-70713600D01*
X137109200Y-70713600D02*
X140436600Y-74041000D01*
X137515600Y-61112400D02*
X137515600Y-63550800D01*
X136144000Y-61264800D02*
X136144000Y-63652400D01*
X138988800Y-67310000D02*
X138938000Y-67259200D01*
X128524000Y-76906200D02*
X128524000Y-81026000D01*
X129794000Y-75636200D02*
X128524000Y-76906200D01*
X129678800Y-82180800D02*
X128524000Y-81026000D01*
X129678800Y-84316200D02*
X129678800Y-82180800D01*
X128524000Y-85471000D02*
X129678800Y-84316200D01*
X134010400Y-67259200D02*
X132181600Y-69088000D01*
X138938000Y-67259200D02*
X134010400Y-67259200D01*
X133604000Y-75636200D02*
X136144000Y-78176200D01*
X136144000Y-78176200D02*
X136144000Y-82931000D01*
X127511600Y-66900000D02*
X128270000Y-66141600D01*
X132029200Y-66548000D02*
X133045200Y-66548000D01*
X131622800Y-66141600D02*
X132029200Y-66548000D01*
X128270000Y-66141600D02*
X131622800Y-66141600D01*
X127812800Y-73304400D02*
X127812800Y-81102200D01*
X127812800Y-81102200D02*
X125984000Y-82931000D01*
X128727200Y-72390000D02*
X127812800Y-73304400D01*
X132218800Y-81545800D02*
X133604000Y-82931000D01*
X132965800Y-73964800D02*
X132218800Y-74711800D01*
X132196500Y-88011000D02*
X132334000Y-87873500D01*
X132334000Y-84201000D02*
X133604000Y-82931000D01*
X133680200Y-73964800D02*
X132965800Y-73964800D01*
X132218800Y-74711800D02*
X132218800Y-81545800D01*
X132334000Y-87873500D02*
X132334000Y-84201000D01*
X127660400Y-64973200D02*
X131165600Y-64973200D01*
X131064000Y-72847200D02*
X131064000Y-82931000D01*
X131216400Y-72694800D02*
X131064000Y-72847200D01*
X131165600Y-64973200D02*
X131267200Y-65074800D01*
X135280400Y-65481200D02*
X134366000Y-64566800D01*
X134840000Y-86707000D02*
X133604000Y-85471000D01*
X134366000Y-61874400D02*
X137236200Y-59004200D01*
X137236200Y-59004200D02*
X139573000Y-59004200D01*
X134840000Y-88114500D02*
X134840000Y-86707000D01*
X134366000Y-64566800D02*
X134366000Y-61874400D01*
X137414000Y-75636200D02*
X139039600Y-77261800D01*
X137312400Y-81942200D02*
X137312400Y-84302600D01*
X139039600Y-80215000D02*
X137312400Y-81942200D01*
X139039600Y-77261800D02*
X139039600Y-80215000D01*
X137312400Y-84302600D02*
X136144000Y-85471000D01*
X125984000Y-57607200D02*
X125984000Y-75636200D01*
X128066800Y-55524400D02*
X125984000Y-57607200D01*
X131895500Y-98298000D02*
X129863500Y-96266000D01*
X130860800Y-98755200D02*
X131844700Y-98755200D01*
X131895500Y-98806000D02*
X131895500Y-98298000D01*
X131844700Y-98755200D02*
X131895500Y-98806000D01*
X128132500Y-89662000D02*
X127982000Y-89812500D01*
X129082800Y-89662000D02*
X128132500Y-89662000D01*
X127982000Y-87987500D02*
X130348000Y-87987500D01*
X130348000Y-87987500D02*
X130371500Y-88011000D01*
X133731000Y-89636600D02*
X134537100Y-89636600D01*
X134840000Y-91797500D02*
X134840000Y-89939500D01*
X134537100Y-89636600D02*
X134840000Y-89939500D01*
M02*
