G04 #@! TF.GenerationSoftware,KiCad,Pcbnew,8.0.5*
G04 #@! TF.CreationDate,2024-10-24T23:20:29+02:00*
G04 #@! TF.ProjectId,iot-opentherm,696f742d-6f70-4656-9e74-6865726d2e6b,rev?*
G04 #@! TF.SameCoordinates,Original*
G04 #@! TF.FileFunction,Legend,Bot*
G04 #@! TF.FilePolarity,Positive*
%FSLAX46Y46*%
G04 Gerber Fmt 4.6, Leading zero omitted, Abs format (unit mm)*
G04 Created by KiCad (PCBNEW 8.0.5) date 2024-10-24 23:20:29*
%MOMM*%
%LPD*%
G01*
G04 APERTURE LIST*
G04 Aperture macros list*
%AMRoundRect*
0 Rectangle with rounded corners*
0 $1 Rounding radius*
0 $2 $3 $4 $5 $6 $7 $8 $9 X,Y pos of 4 corners*
0 Add a 4 corners polygon primitive as box body*
4,1,4,$2,$3,$4,$5,$6,$7,$8,$9,$2,$3,0*
0 Add four circle primitives for the rounded corners*
1,1,$1+$1,$2,$3*
1,1,$1+$1,$4,$5*
1,1,$1+$1,$6,$7*
1,1,$1+$1,$8,$9*
0 Add four rect primitives between the rounded corners*
20,1,$1+$1,$2,$3,$4,$5,0*
20,1,$1+$1,$4,$5,$6,$7,0*
20,1,$1+$1,$6,$7,$8,$9,0*
20,1,$1+$1,$8,$9,$2,$3,0*%
G04 Aperture macros list end*
%ADD10C,0.203200*%
%ADD11C,0.150000*%
%ADD12C,0.152400*%
%ADD13C,0.120000*%
%ADD14R,1.700000X1.700000*%
%ADD15O,1.700000X1.700000*%
%ADD16O,1.000000X1.900000*%
%ADD17O,1.050000X1.250000*%
%ADD18RoundRect,0.237500X-0.300000X-0.237500X0.300000X-0.237500X0.300000X0.237500X-0.300000X0.237500X0*%
%ADD19RoundRect,0.237500X0.250000X0.237500X-0.250000X0.237500X-0.250000X-0.237500X0.250000X-0.237500X0*%
%ADD20RoundRect,0.250000X-0.337500X-0.475000X0.337500X-0.475000X0.337500X0.475000X-0.337500X0.475000X0*%
%ADD21RoundRect,0.250000X0.475000X-0.337500X0.475000X0.337500X-0.475000X0.337500X-0.475000X-0.337500X0*%
%ADD22RoundRect,0.237500X-0.237500X0.250000X-0.237500X-0.250000X0.237500X-0.250000X0.237500X0.250000X0*%
%ADD23RoundRect,0.237500X0.237500X-0.250000X0.237500X0.250000X-0.237500X0.250000X-0.237500X-0.250000X0*%
%ADD24RoundRect,0.237500X-0.250000X-0.237500X0.250000X-0.237500X0.250000X0.237500X-0.250000X0.237500X0*%
%ADD25RoundRect,0.150000X-0.587500X-0.150000X0.587500X-0.150000X0.587500X0.150000X-0.587500X0.150000X0*%
%ADD26RoundRect,0.250000X-0.475000X0.337500X-0.475000X-0.337500X0.475000X-0.337500X0.475000X0.337500X0*%
G04 APERTURE END LIST*
D10*
X141813611Y-47530790D02*
X141813611Y-46514790D01*
X141184658Y-47530790D02*
X141281420Y-47482410D01*
X141281420Y-47482410D02*
X141329801Y-47434029D01*
X141329801Y-47434029D02*
X141378182Y-47337267D01*
X141378182Y-47337267D02*
X141378182Y-47046981D01*
X141378182Y-47046981D02*
X141329801Y-46950219D01*
X141329801Y-46950219D02*
X141281420Y-46901838D01*
X141281420Y-46901838D02*
X141184658Y-46853457D01*
X141184658Y-46853457D02*
X141039515Y-46853457D01*
X141039515Y-46853457D02*
X140942753Y-46901838D01*
X140942753Y-46901838D02*
X140894372Y-46950219D01*
X140894372Y-46950219D02*
X140845991Y-47046981D01*
X140845991Y-47046981D02*
X140845991Y-47337267D01*
X140845991Y-47337267D02*
X140894372Y-47434029D01*
X140894372Y-47434029D02*
X140942753Y-47482410D01*
X140942753Y-47482410D02*
X141039515Y-47530790D01*
X141039515Y-47530790D02*
X141184658Y-47530790D01*
X140555706Y-46514790D02*
X139975134Y-46514790D01*
X140265420Y-47530790D02*
X140265420Y-46514790D01*
X138668849Y-46514790D02*
X138475325Y-46514790D01*
X138475325Y-46514790D02*
X138378563Y-46563171D01*
X138378563Y-46563171D02*
X138281801Y-46659933D01*
X138281801Y-46659933D02*
X138233420Y-46853457D01*
X138233420Y-46853457D02*
X138233420Y-47192124D01*
X138233420Y-47192124D02*
X138281801Y-47385648D01*
X138281801Y-47385648D02*
X138378563Y-47482410D01*
X138378563Y-47482410D02*
X138475325Y-47530790D01*
X138475325Y-47530790D02*
X138668849Y-47530790D01*
X138668849Y-47530790D02*
X138765611Y-47482410D01*
X138765611Y-47482410D02*
X138862373Y-47385648D01*
X138862373Y-47385648D02*
X138910754Y-47192124D01*
X138910754Y-47192124D02*
X138910754Y-46853457D01*
X138910754Y-46853457D02*
X138862373Y-46659933D01*
X138862373Y-46659933D02*
X138765611Y-46563171D01*
X138765611Y-46563171D02*
X138668849Y-46514790D01*
X137797992Y-46853457D02*
X137797992Y-47869457D01*
X137797992Y-46901838D02*
X137701230Y-46853457D01*
X137701230Y-46853457D02*
X137507706Y-46853457D01*
X137507706Y-46853457D02*
X137410944Y-46901838D01*
X137410944Y-46901838D02*
X137362563Y-46950219D01*
X137362563Y-46950219D02*
X137314182Y-47046981D01*
X137314182Y-47046981D02*
X137314182Y-47337267D01*
X137314182Y-47337267D02*
X137362563Y-47434029D01*
X137362563Y-47434029D02*
X137410944Y-47482410D01*
X137410944Y-47482410D02*
X137507706Y-47530790D01*
X137507706Y-47530790D02*
X137701230Y-47530790D01*
X137701230Y-47530790D02*
X137797992Y-47482410D01*
X136491706Y-47482410D02*
X136588468Y-47530790D01*
X136588468Y-47530790D02*
X136781992Y-47530790D01*
X136781992Y-47530790D02*
X136878754Y-47482410D01*
X136878754Y-47482410D02*
X136927135Y-47385648D01*
X136927135Y-47385648D02*
X136927135Y-46998600D01*
X136927135Y-46998600D02*
X136878754Y-46901838D01*
X136878754Y-46901838D02*
X136781992Y-46853457D01*
X136781992Y-46853457D02*
X136588468Y-46853457D01*
X136588468Y-46853457D02*
X136491706Y-46901838D01*
X136491706Y-46901838D02*
X136443325Y-46998600D01*
X136443325Y-46998600D02*
X136443325Y-47095362D01*
X136443325Y-47095362D02*
X136927135Y-47192124D01*
X136007897Y-46853457D02*
X136007897Y-47530790D01*
X136007897Y-46950219D02*
X135959516Y-46901838D01*
X135959516Y-46901838D02*
X135862754Y-46853457D01*
X135862754Y-46853457D02*
X135717611Y-46853457D01*
X135717611Y-46853457D02*
X135620849Y-46901838D01*
X135620849Y-46901838D02*
X135572468Y-46998600D01*
X135572468Y-46998600D02*
X135572468Y-47530790D01*
X135233802Y-46514790D02*
X134653230Y-46514790D01*
X134943516Y-47530790D02*
X134943516Y-46514790D01*
X134314564Y-47530790D02*
X134314564Y-46514790D01*
X133879135Y-47530790D02*
X133879135Y-46998600D01*
X133879135Y-46998600D02*
X133927516Y-46901838D01*
X133927516Y-46901838D02*
X134024278Y-46853457D01*
X134024278Y-46853457D02*
X134169421Y-46853457D01*
X134169421Y-46853457D02*
X134266183Y-46901838D01*
X134266183Y-46901838D02*
X134314564Y-46950219D01*
X133008278Y-47482410D02*
X133105040Y-47530790D01*
X133105040Y-47530790D02*
X133298564Y-47530790D01*
X133298564Y-47530790D02*
X133395326Y-47482410D01*
X133395326Y-47482410D02*
X133443707Y-47385648D01*
X133443707Y-47385648D02*
X133443707Y-46998600D01*
X133443707Y-46998600D02*
X133395326Y-46901838D01*
X133395326Y-46901838D02*
X133298564Y-46853457D01*
X133298564Y-46853457D02*
X133105040Y-46853457D01*
X133105040Y-46853457D02*
X133008278Y-46901838D01*
X133008278Y-46901838D02*
X132959897Y-46998600D01*
X132959897Y-46998600D02*
X132959897Y-47095362D01*
X132959897Y-47095362D02*
X133443707Y-47192124D01*
X132524469Y-47530790D02*
X132524469Y-46853457D01*
X132524469Y-47046981D02*
X132476088Y-46950219D01*
X132476088Y-46950219D02*
X132427707Y-46901838D01*
X132427707Y-46901838D02*
X132330945Y-46853457D01*
X132330945Y-46853457D02*
X132234183Y-46853457D01*
X131895517Y-47530790D02*
X131895517Y-46853457D01*
X131895517Y-46950219D02*
X131847136Y-46901838D01*
X131847136Y-46901838D02*
X131750374Y-46853457D01*
X131750374Y-46853457D02*
X131605231Y-46853457D01*
X131605231Y-46853457D02*
X131508469Y-46901838D01*
X131508469Y-46901838D02*
X131460088Y-46998600D01*
X131460088Y-46998600D02*
X131460088Y-47530790D01*
X131460088Y-46998600D02*
X131411707Y-46901838D01*
X131411707Y-46901838D02*
X131314945Y-46853457D01*
X131314945Y-46853457D02*
X131169802Y-46853457D01*
X131169802Y-46853457D02*
X131073041Y-46901838D01*
X131073041Y-46901838D02*
X131024660Y-46998600D01*
X131024660Y-46998600D02*
X131024660Y-47530790D01*
X130492469Y-47482410D02*
X130492469Y-47530790D01*
X130492469Y-47530790D02*
X130540850Y-47627552D01*
X130540850Y-47627552D02*
X130589231Y-47675933D01*
X129379707Y-46853457D02*
X129137802Y-47530790D01*
X129137802Y-47530790D02*
X128895897Y-46853457D01*
X127976659Y-47530790D02*
X128557231Y-47530790D01*
X128266945Y-47530790D02*
X128266945Y-46514790D01*
X128266945Y-46514790D02*
X128363707Y-46659933D01*
X128363707Y-46659933D02*
X128460469Y-46756695D01*
X128460469Y-46756695D02*
X128557231Y-46805076D01*
X127541231Y-47434029D02*
X127492850Y-47482410D01*
X127492850Y-47482410D02*
X127541231Y-47530790D01*
X127541231Y-47530790D02*
X127589612Y-47482410D01*
X127589612Y-47482410D02*
X127541231Y-47434029D01*
X127541231Y-47434029D02*
X127541231Y-47530790D01*
X126863897Y-46514790D02*
X126767135Y-46514790D01*
X126767135Y-46514790D02*
X126670373Y-46563171D01*
X126670373Y-46563171D02*
X126621992Y-46611552D01*
X126621992Y-46611552D02*
X126573611Y-46708314D01*
X126573611Y-46708314D02*
X126525230Y-46901838D01*
X126525230Y-46901838D02*
X126525230Y-47143743D01*
X126525230Y-47143743D02*
X126573611Y-47337267D01*
X126573611Y-47337267D02*
X126621992Y-47434029D01*
X126621992Y-47434029D02*
X126670373Y-47482410D01*
X126670373Y-47482410D02*
X126767135Y-47530790D01*
X126767135Y-47530790D02*
X126863897Y-47530790D01*
X126863897Y-47530790D02*
X126960659Y-47482410D01*
X126960659Y-47482410D02*
X127009040Y-47434029D01*
X127009040Y-47434029D02*
X127057421Y-47337267D01*
X127057421Y-47337267D02*
X127105802Y-47143743D01*
X127105802Y-47143743D02*
X127105802Y-46901838D01*
X127105802Y-46901838D02*
X127057421Y-46708314D01*
X127057421Y-46708314D02*
X127009040Y-46611552D01*
X127009040Y-46611552D02*
X126960659Y-46563171D01*
X126960659Y-46563171D02*
X126863897Y-46514790D01*
X125896278Y-46514790D02*
X125799516Y-46514790D01*
X125799516Y-46514790D02*
X125702754Y-46563171D01*
X125702754Y-46563171D02*
X125654373Y-46611552D01*
X125654373Y-46611552D02*
X125605992Y-46708314D01*
X125605992Y-46708314D02*
X125557611Y-46901838D01*
X125557611Y-46901838D02*
X125557611Y-47143743D01*
X125557611Y-47143743D02*
X125605992Y-47337267D01*
X125605992Y-47337267D02*
X125654373Y-47434029D01*
X125654373Y-47434029D02*
X125702754Y-47482410D01*
X125702754Y-47482410D02*
X125799516Y-47530790D01*
X125799516Y-47530790D02*
X125896278Y-47530790D01*
X125896278Y-47530790D02*
X125993040Y-47482410D01*
X125993040Y-47482410D02*
X126041421Y-47434029D01*
X126041421Y-47434029D02*
X126089802Y-47337267D01*
X126089802Y-47337267D02*
X126138183Y-47143743D01*
X126138183Y-47143743D02*
X126138183Y-46901838D01*
X126138183Y-46901838D02*
X126089802Y-46708314D01*
X126089802Y-46708314D02*
X126041421Y-46611552D01*
X126041421Y-46611552D02*
X125993040Y-46563171D01*
X125993040Y-46563171D02*
X125896278Y-46514790D01*
X141620087Y-48150493D02*
X141426563Y-48150493D01*
X141426563Y-48150493D02*
X141329801Y-48198874D01*
X141329801Y-48198874D02*
X141233039Y-48295636D01*
X141233039Y-48295636D02*
X141184658Y-48489160D01*
X141184658Y-48489160D02*
X141184658Y-48827827D01*
X141184658Y-48827827D02*
X141233039Y-49021351D01*
X141233039Y-49021351D02*
X141329801Y-49118113D01*
X141329801Y-49118113D02*
X141426563Y-49166493D01*
X141426563Y-49166493D02*
X141620087Y-49166493D01*
X141620087Y-49166493D02*
X141716849Y-49118113D01*
X141716849Y-49118113D02*
X141813611Y-49021351D01*
X141813611Y-49021351D02*
X141861992Y-48827827D01*
X141861992Y-48827827D02*
X141861992Y-48489160D01*
X141861992Y-48489160D02*
X141813611Y-48295636D01*
X141813611Y-48295636D02*
X141716849Y-48198874D01*
X141716849Y-48198874D02*
X141620087Y-48150493D01*
X140313801Y-49118113D02*
X140410563Y-49166493D01*
X140410563Y-49166493D02*
X140604087Y-49166493D01*
X140604087Y-49166493D02*
X140700849Y-49118113D01*
X140700849Y-49118113D02*
X140749230Y-49069732D01*
X140749230Y-49069732D02*
X140797611Y-48972970D01*
X140797611Y-48972970D02*
X140797611Y-48682684D01*
X140797611Y-48682684D02*
X140749230Y-48585922D01*
X140749230Y-48585922D02*
X140700849Y-48537541D01*
X140700849Y-48537541D02*
X140604087Y-48489160D01*
X140604087Y-48489160D02*
X140410563Y-48489160D01*
X140410563Y-48489160D02*
X140313801Y-48537541D01*
X140023516Y-48489160D02*
X139636468Y-48489160D01*
X139878373Y-48150493D02*
X139878373Y-49021351D01*
X139878373Y-49021351D02*
X139829992Y-49118113D01*
X139829992Y-49118113D02*
X139733230Y-49166493D01*
X139733230Y-49166493D02*
X139636468Y-49166493D01*
X139249421Y-49118113D02*
X139249421Y-49166493D01*
X139249421Y-49166493D02*
X139297802Y-49263255D01*
X139297802Y-49263255D02*
X139346183Y-49311636D01*
X138088278Y-48247255D02*
X138039897Y-48198874D01*
X138039897Y-48198874D02*
X137943135Y-48150493D01*
X137943135Y-48150493D02*
X137701230Y-48150493D01*
X137701230Y-48150493D02*
X137604468Y-48198874D01*
X137604468Y-48198874D02*
X137556087Y-48247255D01*
X137556087Y-48247255D02*
X137507706Y-48344017D01*
X137507706Y-48344017D02*
X137507706Y-48440779D01*
X137507706Y-48440779D02*
X137556087Y-48585922D01*
X137556087Y-48585922D02*
X138136659Y-49166493D01*
X138136659Y-49166493D02*
X137507706Y-49166493D01*
X136878754Y-48150493D02*
X136781992Y-48150493D01*
X136781992Y-48150493D02*
X136685230Y-48198874D01*
X136685230Y-48198874D02*
X136636849Y-48247255D01*
X136636849Y-48247255D02*
X136588468Y-48344017D01*
X136588468Y-48344017D02*
X136540087Y-48537541D01*
X136540087Y-48537541D02*
X136540087Y-48779446D01*
X136540087Y-48779446D02*
X136588468Y-48972970D01*
X136588468Y-48972970D02*
X136636849Y-49069732D01*
X136636849Y-49069732D02*
X136685230Y-49118113D01*
X136685230Y-49118113D02*
X136781992Y-49166493D01*
X136781992Y-49166493D02*
X136878754Y-49166493D01*
X136878754Y-49166493D02*
X136975516Y-49118113D01*
X136975516Y-49118113D02*
X137023897Y-49069732D01*
X137023897Y-49069732D02*
X137072278Y-48972970D01*
X137072278Y-48972970D02*
X137120659Y-48779446D01*
X137120659Y-48779446D02*
X137120659Y-48537541D01*
X137120659Y-48537541D02*
X137072278Y-48344017D01*
X137072278Y-48344017D02*
X137023897Y-48247255D01*
X137023897Y-48247255D02*
X136975516Y-48198874D01*
X136975516Y-48198874D02*
X136878754Y-48150493D01*
X136153040Y-48247255D02*
X136104659Y-48198874D01*
X136104659Y-48198874D02*
X136007897Y-48150493D01*
X136007897Y-48150493D02*
X135765992Y-48150493D01*
X135765992Y-48150493D02*
X135669230Y-48198874D01*
X135669230Y-48198874D02*
X135620849Y-48247255D01*
X135620849Y-48247255D02*
X135572468Y-48344017D01*
X135572468Y-48344017D02*
X135572468Y-48440779D01*
X135572468Y-48440779D02*
X135620849Y-48585922D01*
X135620849Y-48585922D02*
X136201421Y-49166493D01*
X136201421Y-49166493D02*
X135572468Y-49166493D01*
X134701611Y-48489160D02*
X134701611Y-49166493D01*
X134943516Y-48102113D02*
X135185421Y-48827827D01*
X135185421Y-48827827D02*
X134556468Y-48827827D01*
D11*
X132308599Y-68496544D02*
X132344885Y-68532830D01*
X132344885Y-68532830D02*
X132453742Y-68569115D01*
X132453742Y-68569115D02*
X132526314Y-68569115D01*
X132526314Y-68569115D02*
X132635171Y-68532830D01*
X132635171Y-68532830D02*
X132707742Y-68460258D01*
X132707742Y-68460258D02*
X132744028Y-68387687D01*
X132744028Y-68387687D02*
X132780314Y-68242544D01*
X132780314Y-68242544D02*
X132780314Y-68133687D01*
X132780314Y-68133687D02*
X132744028Y-67988544D01*
X132744028Y-67988544D02*
X132707742Y-67915972D01*
X132707742Y-67915972D02*
X132635171Y-67843401D01*
X132635171Y-67843401D02*
X132526314Y-67807115D01*
X132526314Y-67807115D02*
X132453742Y-67807115D01*
X132453742Y-67807115D02*
X132344885Y-67843401D01*
X132344885Y-67843401D02*
X132308599Y-67879687D01*
X131655457Y-68061115D02*
X131655457Y-68569115D01*
X131836885Y-67770830D02*
X132018314Y-68315115D01*
X132018314Y-68315115D02*
X131546599Y-68315115D01*
D12*
X132359399Y-89777990D02*
X132613399Y-89415133D01*
X132794828Y-89777990D02*
X132794828Y-89015990D01*
X132794828Y-89015990D02*
X132504542Y-89015990D01*
X132504542Y-89015990D02*
X132431971Y-89052276D01*
X132431971Y-89052276D02*
X132395685Y-89088562D01*
X132395685Y-89088562D02*
X132359399Y-89161133D01*
X132359399Y-89161133D02*
X132359399Y-89269990D01*
X132359399Y-89269990D02*
X132395685Y-89342562D01*
X132395685Y-89342562D02*
X132431971Y-89378847D01*
X132431971Y-89378847D02*
X132504542Y-89415133D01*
X132504542Y-89415133D02*
X132794828Y-89415133D01*
X131706257Y-89015990D02*
X131851399Y-89015990D01*
X131851399Y-89015990D02*
X131923971Y-89052276D01*
X131923971Y-89052276D02*
X131960257Y-89088562D01*
X131960257Y-89088562D02*
X132032828Y-89197419D01*
X132032828Y-89197419D02*
X132069114Y-89342562D01*
X132069114Y-89342562D02*
X132069114Y-89632847D01*
X132069114Y-89632847D02*
X132032828Y-89705419D01*
X132032828Y-89705419D02*
X131996542Y-89741705D01*
X131996542Y-89741705D02*
X131923971Y-89777990D01*
X131923971Y-89777990D02*
X131778828Y-89777990D01*
X131778828Y-89777990D02*
X131706257Y-89741705D01*
X131706257Y-89741705D02*
X131669971Y-89705419D01*
X131669971Y-89705419D02*
X131633685Y-89632847D01*
X131633685Y-89632847D02*
X131633685Y-89451419D01*
X131633685Y-89451419D02*
X131669971Y-89378847D01*
X131669971Y-89378847D02*
X131706257Y-89342562D01*
X131706257Y-89342562D02*
X131778828Y-89306276D01*
X131778828Y-89306276D02*
X131923971Y-89306276D01*
X131923971Y-89306276D02*
X131996542Y-89342562D01*
X131996542Y-89342562D02*
X132032828Y-89378847D01*
X132032828Y-89378847D02*
X132069114Y-89451419D01*
D11*
X132460999Y-70579344D02*
X132497285Y-70615630D01*
X132497285Y-70615630D02*
X132606142Y-70651915D01*
X132606142Y-70651915D02*
X132678714Y-70651915D01*
X132678714Y-70651915D02*
X132787571Y-70615630D01*
X132787571Y-70615630D02*
X132860142Y-70543058D01*
X132860142Y-70543058D02*
X132896428Y-70470487D01*
X132896428Y-70470487D02*
X132932714Y-70325344D01*
X132932714Y-70325344D02*
X132932714Y-70216487D01*
X132932714Y-70216487D02*
X132896428Y-70071344D01*
X132896428Y-70071344D02*
X132860142Y-69998772D01*
X132860142Y-69998772D02*
X132787571Y-69926201D01*
X132787571Y-69926201D02*
X132678714Y-69889915D01*
X132678714Y-69889915D02*
X132606142Y-69889915D01*
X132606142Y-69889915D02*
X132497285Y-69926201D01*
X132497285Y-69926201D02*
X132460999Y-69962487D01*
X132206999Y-69889915D02*
X131735285Y-69889915D01*
X131735285Y-69889915D02*
X131989285Y-70180201D01*
X131989285Y-70180201D02*
X131880428Y-70180201D01*
X131880428Y-70180201D02*
X131807857Y-70216487D01*
X131807857Y-70216487D02*
X131771571Y-70252772D01*
X131771571Y-70252772D02*
X131735285Y-70325344D01*
X131735285Y-70325344D02*
X131735285Y-70506772D01*
X131735285Y-70506772D02*
X131771571Y-70579344D01*
X131771571Y-70579344D02*
X131807857Y-70615630D01*
X131807857Y-70615630D02*
X131880428Y-70651915D01*
X131880428Y-70651915D02*
X132098142Y-70651915D01*
X132098142Y-70651915D02*
X132170714Y-70615630D01*
X132170714Y-70615630D02*
X132206999Y-70579344D01*
X140233399Y-104666144D02*
X140269685Y-104702430D01*
X140269685Y-104702430D02*
X140378542Y-104738715D01*
X140378542Y-104738715D02*
X140451114Y-104738715D01*
X140451114Y-104738715D02*
X140559971Y-104702430D01*
X140559971Y-104702430D02*
X140632542Y-104629858D01*
X140632542Y-104629858D02*
X140668828Y-104557287D01*
X140668828Y-104557287D02*
X140705114Y-104412144D01*
X140705114Y-104412144D02*
X140705114Y-104303287D01*
X140705114Y-104303287D02*
X140668828Y-104158144D01*
X140668828Y-104158144D02*
X140632542Y-104085572D01*
X140632542Y-104085572D02*
X140559971Y-104013001D01*
X140559971Y-104013001D02*
X140451114Y-103976715D01*
X140451114Y-103976715D02*
X140378542Y-103976715D01*
X140378542Y-103976715D02*
X140269685Y-104013001D01*
X140269685Y-104013001D02*
X140233399Y-104049287D01*
X139507685Y-104738715D02*
X139943114Y-104738715D01*
X139725399Y-104738715D02*
X139725399Y-103976715D01*
X139725399Y-103976715D02*
X139797971Y-104085572D01*
X139797971Y-104085572D02*
X139870542Y-104158144D01*
X139870542Y-104158144D02*
X139943114Y-104194430D01*
X127330199Y-93308715D02*
X127584199Y-92945858D01*
X127765628Y-93308715D02*
X127765628Y-92546715D01*
X127765628Y-92546715D02*
X127475342Y-92546715D01*
X127475342Y-92546715D02*
X127402771Y-92583001D01*
X127402771Y-92583001D02*
X127366485Y-92619287D01*
X127366485Y-92619287D02*
X127330199Y-92691858D01*
X127330199Y-92691858D02*
X127330199Y-92800715D01*
X127330199Y-92800715D02*
X127366485Y-92873287D01*
X127366485Y-92873287D02*
X127402771Y-92909572D01*
X127402771Y-92909572D02*
X127475342Y-92945858D01*
X127475342Y-92945858D02*
X127765628Y-92945858D01*
X126604485Y-93308715D02*
X127039914Y-93308715D01*
X126822199Y-93308715D02*
X126822199Y-92546715D01*
X126822199Y-92546715D02*
X126894771Y-92655572D01*
X126894771Y-92655572D02*
X126967342Y-92728144D01*
X126967342Y-92728144D02*
X127039914Y-92764430D01*
X126822199Y-88685915D02*
X127076199Y-88323058D01*
X127257628Y-88685915D02*
X127257628Y-87923915D01*
X127257628Y-87923915D02*
X126967342Y-87923915D01*
X126967342Y-87923915D02*
X126894771Y-87960201D01*
X126894771Y-87960201D02*
X126858485Y-87996487D01*
X126858485Y-87996487D02*
X126822199Y-88069058D01*
X126822199Y-88069058D02*
X126822199Y-88177915D01*
X126822199Y-88177915D02*
X126858485Y-88250487D01*
X126858485Y-88250487D02*
X126894771Y-88286772D01*
X126894771Y-88286772D02*
X126967342Y-88323058D01*
X126967342Y-88323058D02*
X127257628Y-88323058D01*
X126169057Y-88177915D02*
X126169057Y-88685915D01*
X126350485Y-87887630D02*
X126531914Y-88431915D01*
X126531914Y-88431915D02*
X126060199Y-88431915D01*
X132934999Y-100674715D02*
X133188999Y-100311858D01*
X133370428Y-100674715D02*
X133370428Y-99912715D01*
X133370428Y-99912715D02*
X133080142Y-99912715D01*
X133080142Y-99912715D02*
X133007571Y-99949001D01*
X133007571Y-99949001D02*
X132971285Y-99985287D01*
X132971285Y-99985287D02*
X132934999Y-100057858D01*
X132934999Y-100057858D02*
X132934999Y-100166715D01*
X132934999Y-100166715D02*
X132971285Y-100239287D01*
X132971285Y-100239287D02*
X133007571Y-100275572D01*
X133007571Y-100275572D02*
X133080142Y-100311858D01*
X133080142Y-100311858D02*
X133370428Y-100311858D01*
X132680999Y-99912715D02*
X132209285Y-99912715D01*
X132209285Y-99912715D02*
X132463285Y-100203001D01*
X132463285Y-100203001D02*
X132354428Y-100203001D01*
X132354428Y-100203001D02*
X132281857Y-100239287D01*
X132281857Y-100239287D02*
X132245571Y-100275572D01*
X132245571Y-100275572D02*
X132209285Y-100348144D01*
X132209285Y-100348144D02*
X132209285Y-100529572D01*
X132209285Y-100529572D02*
X132245571Y-100602144D01*
X132245571Y-100602144D02*
X132281857Y-100638430D01*
X132281857Y-100638430D02*
X132354428Y-100674715D01*
X132354428Y-100674715D02*
X132572142Y-100674715D01*
X132572142Y-100674715D02*
X132644714Y-100638430D01*
X132644714Y-100638430D02*
X132680999Y-100602144D01*
X133066971Y-94422687D02*
X133139542Y-94386401D01*
X133139542Y-94386401D02*
X133212114Y-94313830D01*
X133212114Y-94313830D02*
X133320971Y-94204972D01*
X133320971Y-94204972D02*
X133393542Y-94168687D01*
X133393542Y-94168687D02*
X133466114Y-94168687D01*
X133429828Y-94350115D02*
X133502400Y-94313830D01*
X133502400Y-94313830D02*
X133574971Y-94241258D01*
X133574971Y-94241258D02*
X133611257Y-94096115D01*
X133611257Y-94096115D02*
X133611257Y-93842115D01*
X133611257Y-93842115D02*
X133574971Y-93696972D01*
X133574971Y-93696972D02*
X133502400Y-93624401D01*
X133502400Y-93624401D02*
X133429828Y-93588115D01*
X133429828Y-93588115D02*
X133284685Y-93588115D01*
X133284685Y-93588115D02*
X133212114Y-93624401D01*
X133212114Y-93624401D02*
X133139542Y-93696972D01*
X133139542Y-93696972D02*
X133103257Y-93842115D01*
X133103257Y-93842115D02*
X133103257Y-94096115D01*
X133103257Y-94096115D02*
X133139542Y-94241258D01*
X133139542Y-94241258D02*
X133212114Y-94313830D01*
X133212114Y-94313830D02*
X133284685Y-94350115D01*
X133284685Y-94350115D02*
X133429828Y-94350115D01*
X132377542Y-94350115D02*
X132812971Y-94350115D01*
X132595256Y-94350115D02*
X132595256Y-93588115D01*
X132595256Y-93588115D02*
X132667828Y-93696972D01*
X132667828Y-93696972D02*
X132740399Y-93769544D01*
X132740399Y-93769544D02*
X132812971Y-93805830D01*
X138861799Y-101770544D02*
X138898085Y-101806830D01*
X138898085Y-101806830D02*
X139006942Y-101843115D01*
X139006942Y-101843115D02*
X139079514Y-101843115D01*
X139079514Y-101843115D02*
X139188371Y-101806830D01*
X139188371Y-101806830D02*
X139260942Y-101734258D01*
X139260942Y-101734258D02*
X139297228Y-101661687D01*
X139297228Y-101661687D02*
X139333514Y-101516544D01*
X139333514Y-101516544D02*
X139333514Y-101407687D01*
X139333514Y-101407687D02*
X139297228Y-101262544D01*
X139297228Y-101262544D02*
X139260942Y-101189972D01*
X139260942Y-101189972D02*
X139188371Y-101117401D01*
X139188371Y-101117401D02*
X139079514Y-101081115D01*
X139079514Y-101081115D02*
X139006942Y-101081115D01*
X139006942Y-101081115D02*
X138898085Y-101117401D01*
X138898085Y-101117401D02*
X138861799Y-101153687D01*
X138571514Y-101153687D02*
X138535228Y-101117401D01*
X138535228Y-101117401D02*
X138462657Y-101081115D01*
X138462657Y-101081115D02*
X138281228Y-101081115D01*
X138281228Y-101081115D02*
X138208657Y-101117401D01*
X138208657Y-101117401D02*
X138172371Y-101153687D01*
X138172371Y-101153687D02*
X138136085Y-101226258D01*
X138136085Y-101226258D02*
X138136085Y-101298830D01*
X138136085Y-101298830D02*
X138172371Y-101407687D01*
X138172371Y-101407687D02*
X138607799Y-101843115D01*
X138607799Y-101843115D02*
X138136085Y-101843115D01*
X130987799Y-97880715D02*
X131241799Y-97517858D01*
X131423228Y-97880715D02*
X131423228Y-97118715D01*
X131423228Y-97118715D02*
X131132942Y-97118715D01*
X131132942Y-97118715D02*
X131060371Y-97155001D01*
X131060371Y-97155001D02*
X131024085Y-97191287D01*
X131024085Y-97191287D02*
X130987799Y-97263858D01*
X130987799Y-97263858D02*
X130987799Y-97372715D01*
X130987799Y-97372715D02*
X131024085Y-97445287D01*
X131024085Y-97445287D02*
X131060371Y-97481572D01*
X131060371Y-97481572D02*
X131132942Y-97517858D01*
X131132942Y-97517858D02*
X131423228Y-97517858D01*
X130697514Y-97191287D02*
X130661228Y-97155001D01*
X130661228Y-97155001D02*
X130588657Y-97118715D01*
X130588657Y-97118715D02*
X130407228Y-97118715D01*
X130407228Y-97118715D02*
X130334657Y-97155001D01*
X130334657Y-97155001D02*
X130298371Y-97191287D01*
X130298371Y-97191287D02*
X130262085Y-97263858D01*
X130262085Y-97263858D02*
X130262085Y-97336430D01*
X130262085Y-97336430D02*
X130298371Y-97445287D01*
X130298371Y-97445287D02*
X130733799Y-97880715D01*
X130733799Y-97880715D02*
X130262085Y-97880715D01*
X136474199Y-89346315D02*
X136728199Y-88983458D01*
X136909628Y-89346315D02*
X136909628Y-88584315D01*
X136909628Y-88584315D02*
X136619342Y-88584315D01*
X136619342Y-88584315D02*
X136546771Y-88620601D01*
X136546771Y-88620601D02*
X136510485Y-88656887D01*
X136510485Y-88656887D02*
X136474199Y-88729458D01*
X136474199Y-88729458D02*
X136474199Y-88838315D01*
X136474199Y-88838315D02*
X136510485Y-88910887D01*
X136510485Y-88910887D02*
X136546771Y-88947172D01*
X136546771Y-88947172D02*
X136619342Y-88983458D01*
X136619342Y-88983458D02*
X136909628Y-88983458D01*
X136220199Y-88584315D02*
X135712199Y-88584315D01*
X135712199Y-88584315D02*
X136038771Y-89346315D01*
X136296399Y-92241915D02*
X136550399Y-91879058D01*
X136731828Y-92241915D02*
X136731828Y-91479915D01*
X136731828Y-91479915D02*
X136441542Y-91479915D01*
X136441542Y-91479915D02*
X136368971Y-91516201D01*
X136368971Y-91516201D02*
X136332685Y-91552487D01*
X136332685Y-91552487D02*
X136296399Y-91625058D01*
X136296399Y-91625058D02*
X136296399Y-91733915D01*
X136296399Y-91733915D02*
X136332685Y-91806487D01*
X136332685Y-91806487D02*
X136368971Y-91842772D01*
X136368971Y-91842772D02*
X136441542Y-91879058D01*
X136441542Y-91879058D02*
X136731828Y-91879058D01*
X135606971Y-91479915D02*
X135969828Y-91479915D01*
X135969828Y-91479915D02*
X136006114Y-91842772D01*
X136006114Y-91842772D02*
X135969828Y-91806487D01*
X135969828Y-91806487D02*
X135897257Y-91770201D01*
X135897257Y-91770201D02*
X135715828Y-91770201D01*
X135715828Y-91770201D02*
X135643257Y-91806487D01*
X135643257Y-91806487D02*
X135606971Y-91842772D01*
X135606971Y-91842772D02*
X135570685Y-91915344D01*
X135570685Y-91915344D02*
X135570685Y-92096772D01*
X135570685Y-92096772D02*
X135606971Y-92169344D01*
X135606971Y-92169344D02*
X135643257Y-92205630D01*
X135643257Y-92205630D02*
X135715828Y-92241915D01*
X135715828Y-92241915D02*
X135897257Y-92241915D01*
X135897257Y-92241915D02*
X135969828Y-92205630D01*
X135969828Y-92205630D02*
X136006114Y-92169344D01*
D13*
X129787867Y-67866800D02*
X129495333Y-67866800D01*
X129787867Y-68886800D02*
X129495333Y-68886800D01*
X131029276Y-87488500D02*
X131538724Y-87488500D01*
X131029276Y-88533500D02*
X131538724Y-88533500D01*
X129699652Y-69419800D02*
X129177148Y-69419800D01*
X129699652Y-70889800D02*
X129177148Y-70889800D01*
X140963000Y-104081948D02*
X140963000Y-104604452D01*
X142433000Y-104081948D02*
X142433000Y-104604452D01*
X125300500Y-93218724D02*
X125300500Y-92709276D01*
X126345500Y-93218724D02*
X126345500Y-92709276D01*
X127459500Y-88645276D02*
X127459500Y-89154724D01*
X128504500Y-88645276D02*
X128504500Y-89154724D01*
X133062724Y-98283500D02*
X132553276Y-98283500D01*
X133062724Y-99328500D02*
X132553276Y-99328500D01*
X130253000Y-91404000D02*
X130903000Y-91404000D01*
X130253000Y-94524000D02*
X130903000Y-94524000D01*
X131553000Y-91404000D02*
X130903000Y-91404000D01*
X131553000Y-94524000D02*
X130903000Y-94524000D01*
X129980500Y-94804000D02*
X129500500Y-94804000D01*
X129740500Y-94474000D01*
X129980500Y-94804000D01*
G36*
X129980500Y-94804000D02*
G01*
X129500500Y-94804000D01*
X129740500Y-94474000D01*
X129980500Y-94804000D01*
G37*
X136391000Y-102521252D02*
X136391000Y-101998748D01*
X137861000Y-102521252D02*
X137861000Y-101998748D01*
X130521276Y-95743500D02*
X131030724Y-95743500D01*
X130521276Y-96788500D02*
X131030724Y-96788500D01*
X134317500Y-89281724D02*
X134317500Y-88772276D01*
X135362500Y-89281724D02*
X135362500Y-88772276D01*
X134317500Y-92964724D02*
X134317500Y-92455276D01*
X135362500Y-92964724D02*
X135362500Y-92455276D01*
%LPC*%
D14*
X138684000Y-82931000D03*
D15*
X138684000Y-85471000D03*
X136144000Y-82931000D03*
X136144000Y-85471000D03*
X133604000Y-82931000D03*
X133604000Y-85471000D03*
X131064000Y-82931000D03*
X131064000Y-85471000D03*
X128524000Y-82931000D03*
X128524000Y-85471000D03*
X125984000Y-82931000D03*
X125984000Y-85471000D03*
D16*
X125573400Y-110693200D03*
D17*
X127523400Y-107693200D03*
X131973400Y-107693200D03*
D16*
X133923400Y-110693200D03*
D14*
X137414000Y-75636200D03*
D15*
X137414000Y-78176200D03*
D14*
X129794000Y-75636200D03*
D15*
X129794000Y-78176200D03*
D14*
X138264000Y-109474000D03*
D15*
X140804000Y-109474000D03*
D14*
X133604000Y-75636200D03*
D15*
X133604000Y-78176200D03*
D14*
X126085600Y-103987600D03*
D15*
X128625600Y-103987600D03*
D14*
X141478000Y-74041000D03*
D15*
X141478000Y-76581000D03*
X141478000Y-79121000D03*
D14*
X125984000Y-75636200D03*
D15*
X125984000Y-78176200D03*
D18*
X128779100Y-68376800D03*
X130504100Y-68376800D03*
D19*
X132196500Y-88011000D03*
X130371500Y-88011000D03*
D20*
X128400900Y-70154800D03*
X130475900Y-70154800D03*
D21*
X141698000Y-105380700D03*
X141698000Y-103305700D03*
D22*
X125823000Y-92051500D03*
X125823000Y-93876500D03*
D23*
X127982000Y-89812500D03*
X127982000Y-87987500D03*
D24*
X131895500Y-98806000D03*
X133720500Y-98806000D03*
D25*
X129965500Y-93914000D03*
X129965500Y-92014000D03*
X131840500Y-92964000D03*
D26*
X137126000Y-101222500D03*
X137126000Y-103297500D03*
D19*
X131688500Y-96266000D03*
X129863500Y-96266000D03*
D22*
X134840000Y-88114500D03*
X134840000Y-89939500D03*
X134840000Y-91797500D03*
X134840000Y-93622500D03*
%LPD*%
M02*
