G04 #@! TF.GenerationSoftware,KiCad,Pcbnew,8.0.5*
G04 #@! TF.CreationDate,2024-11-08T00:03:23+01:00*
G04 #@! TF.ProjectId,iot-opentherm,696f742d-6f70-4656-9e74-6865726d2e6b,rev?*
G04 #@! TF.SameCoordinates,Original*
G04 #@! TF.FileFunction,Soldermask,Bot*
G04 #@! TF.FilePolarity,Negative*
%FSLAX46Y46*%
G04 Gerber Fmt 4.6, Leading zero omitted, Abs format (unit mm)*
G04 Created by KiCad (PCBNEW 8.0.5) date 2024-11-08 00:03:23*
%MOMM*%
%LPD*%
G01*
G04 APERTURE LIST*
G04 Aperture macros list*
%AMRoundRect*
0 Rectangle with rounded corners*
0 $1 Rounding radius*
0 $2 $3 $4 $5 $6 $7 $8 $9 X,Y pos of 4 corners*
0 Add a 4 corners polygon primitive as box body*
4,1,4,$2,$3,$4,$5,$6,$7,$8,$9,$2,$3,0*
0 Add four circle primitives for the rounded corners*
1,1,$1+$1,$2,$3*
1,1,$1+$1,$4,$5*
1,1,$1+$1,$6,$7*
1,1,$1+$1,$8,$9*
0 Add four rect primitives between the rounded corners*
20,1,$1+$1,$2,$3,$4,$5,0*
20,1,$1+$1,$4,$5,$6,$7,0*
20,1,$1+$1,$6,$7,$8,$9,0*
20,1,$1+$1,$8,$9,$2,$3,0*%
G04 Aperture macros list end*
%ADD10R,1.700000X1.700000*%
%ADD11O,1.700000X1.700000*%
%ADD12O,1.000000X1.900000*%
%ADD13O,1.050000X1.250000*%
%ADD14RoundRect,0.102000X-0.900000X-0.900000X0.900000X-0.900000X0.900000X0.900000X-0.900000X0.900000X0*%
%ADD15C,2.004000*%
%ADD16RoundRect,0.102000X0.900000X-0.900000X0.900000X0.900000X-0.900000X0.900000X-0.900000X-0.900000X0*%
%ADD17RoundRect,0.237500X-0.300000X-0.237500X0.300000X-0.237500X0.300000X0.237500X-0.300000X0.237500X0*%
%ADD18RoundRect,0.237500X0.250000X0.237500X-0.250000X0.237500X-0.250000X-0.237500X0.250000X-0.237500X0*%
%ADD19RoundRect,0.250000X-0.337500X-0.475000X0.337500X-0.475000X0.337500X0.475000X-0.337500X0.475000X0*%
%ADD20RoundRect,0.250000X0.475000X-0.337500X0.475000X0.337500X-0.475000X0.337500X-0.475000X-0.337500X0*%
%ADD21RoundRect,0.237500X-0.237500X0.250000X-0.237500X-0.250000X0.237500X-0.250000X0.237500X0.250000X0*%
%ADD22RoundRect,0.237500X0.237500X-0.250000X0.237500X0.250000X-0.237500X0.250000X-0.237500X-0.250000X0*%
%ADD23RoundRect,0.237500X-0.250000X-0.237500X0.250000X-0.237500X0.250000X0.237500X-0.250000X0.237500X0*%
%ADD24RoundRect,0.150000X-0.587500X-0.150000X0.587500X-0.150000X0.587500X0.150000X-0.587500X0.150000X0*%
%ADD25RoundRect,0.250000X-0.475000X0.337500X-0.475000X-0.337500X0.475000X-0.337500X0.475000X0.337500X0*%
G04 APERTURE END LIST*
D10*
X138684000Y-82931000D03*
D11*
X138684000Y-85471000D03*
X136144000Y-82931000D03*
X136144000Y-85471000D03*
X133604000Y-82931000D03*
X133604000Y-85471000D03*
X131064000Y-82931000D03*
X131064000Y-85471000D03*
X128524000Y-82931000D03*
X128524000Y-85471000D03*
X125984000Y-82931000D03*
X125984000Y-85471000D03*
D12*
X125573400Y-110693200D03*
D13*
X127523400Y-107693200D03*
X131973400Y-107693200D03*
D12*
X133923400Y-110693200D03*
D10*
X137414000Y-75636200D03*
D11*
X137414000Y-78176200D03*
D10*
X129794000Y-75636200D03*
D11*
X129794000Y-78176200D03*
D14*
X138277600Y-109474000D03*
D15*
X140817600Y-109474000D03*
D10*
X133604000Y-75636200D03*
D11*
X133604000Y-78176200D03*
D16*
X127584200Y-104114600D03*
D15*
X127584200Y-101574600D03*
D10*
X141478000Y-74041000D03*
D11*
X141478000Y-76581000D03*
X141478000Y-79121000D03*
D10*
X125984000Y-75636200D03*
D11*
X125984000Y-78176200D03*
D17*
X128779100Y-68376800D03*
X130504100Y-68376800D03*
D18*
X132196500Y-88011000D03*
X130371500Y-88011000D03*
D19*
X128400900Y-70154800D03*
X130475900Y-70154800D03*
D20*
X141698000Y-105380700D03*
X141698000Y-103305700D03*
D21*
X125823000Y-92051500D03*
X125823000Y-93876500D03*
D22*
X127982000Y-89812500D03*
X127982000Y-87987500D03*
D23*
X131895500Y-98806000D03*
X133720500Y-98806000D03*
D24*
X129965500Y-93914000D03*
X129965500Y-92014000D03*
X131840500Y-92964000D03*
D25*
X137126000Y-101222500D03*
X137126000Y-103297500D03*
D18*
X131688500Y-96266000D03*
X129863500Y-96266000D03*
D21*
X134840000Y-88114500D03*
X134840000Y-89939500D03*
X134840000Y-91797500D03*
X134840000Y-93622500D03*
M02*
