G04 #@! TF.GenerationSoftware,KiCad,Pcbnew,8.0.5*
G04 #@! TF.CreationDate,2024-10-24T23:20:29+02:00*
G04 #@! TF.ProjectId,iot-opentherm,696f742d-6f70-4656-9e74-6865726d2e6b,rev?*
G04 #@! TF.SameCoordinates,Original*
G04 #@! TF.FileFunction,Copper,L1,Top*
G04 #@! TF.FilePolarity,Positive*
%FSLAX46Y46*%
G04 Gerber Fmt 4.6, Leading zero omitted, Abs format (unit mm)*
G04 Created by KiCad (PCBNEW 8.0.5) date 2024-10-24 23:20:29*
%MOMM*%
%LPD*%
G01*
G04 APERTURE LIST*
G04 Aperture macros list*
%AMRoundRect*
0 Rectangle with rounded corners*
0 $1 Rounding radius*
0 $2 $3 $4 $5 $6 $7 $8 $9 X,Y pos of 4 corners*
0 Add a 4 corners polygon primitive as box body*
4,1,4,$2,$3,$4,$5,$6,$7,$8,$9,$2,$3,0*
0 Add four circle primitives for the rounded corners*
1,1,$1+$1,$2,$3*
1,1,$1+$1,$4,$5*
1,1,$1+$1,$6,$7*
1,1,$1+$1,$8,$9*
0 Add four rect primitives between the rounded corners*
20,1,$1+$1,$2,$3,$4,$5,0*
20,1,$1+$1,$4,$5,$6,$7,0*
20,1,$1+$1,$6,$7,$8,$9,0*
20,1,$1+$1,$8,$9,$2,$3,0*%
G04 Aperture macros list end*
%ADD10C,0.300000*%
G04 #@! TA.AperFunction,NonConductor*
%ADD11C,0.300000*%
G04 #@! TD*
G04 #@! TA.AperFunction,NonConductor*
%ADD12C,0.200000*%
G04 #@! TD*
G04 #@! TA.AperFunction,SMDPad,CuDef*
%ADD13RoundRect,0.375000X0.375000X-0.625000X0.375000X0.625000X-0.375000X0.625000X-0.375000X-0.625000X0*%
G04 #@! TD*
G04 #@! TA.AperFunction,SMDPad,CuDef*
%ADD14RoundRect,0.500000X1.400000X-0.500000X1.400000X0.500000X-1.400000X0.500000X-1.400000X-0.500000X0*%
G04 #@! TD*
G04 #@! TA.AperFunction,ComponentPad*
%ADD15R,1.700000X1.700000*%
G04 #@! TD*
G04 #@! TA.AperFunction,ComponentPad*
%ADD16O,1.700000X1.700000*%
G04 #@! TD*
G04 #@! TA.AperFunction,SMDPad,CuDef*
%ADD17RoundRect,0.112500X0.187500X0.112500X-0.187500X0.112500X-0.187500X-0.112500X0.187500X-0.112500X0*%
G04 #@! TD*
G04 #@! TA.AperFunction,SMDPad,CuDef*
%ADD18RoundRect,0.250000X0.250000X-0.250000X0.250000X0.250000X-0.250000X0.250000X-0.250000X-0.250000X0*%
G04 #@! TD*
G04 #@! TA.AperFunction,SMDPad,CuDef*
%ADD19R,0.400000X1.350000*%
G04 #@! TD*
G04 #@! TA.AperFunction,ComponentPad*
%ADD20O,1.000000X1.900000*%
G04 #@! TD*
G04 #@! TA.AperFunction,SMDPad,CuDef*
%ADD21R,0.875000X1.900000*%
G04 #@! TD*
G04 #@! TA.AperFunction,ComponentPad*
%ADD22O,1.050000X1.250000*%
G04 #@! TD*
G04 #@! TA.AperFunction,SMDPad,CuDef*
%ADD23R,2.900000X1.900000*%
G04 #@! TD*
G04 #@! TA.AperFunction,SMDPad,CuDef*
%ADD24R,1.500000X1.600000*%
G04 #@! TD*
G04 #@! TA.AperFunction,SMDPad,CuDef*
%ADD25R,2.600000X1.100000*%
G04 #@! TD*
G04 #@! TA.AperFunction,ViaPad*
%ADD26C,1.143000*%
G04 #@! TD*
G04 #@! TA.AperFunction,ViaPad*
%ADD27C,1.016000*%
G04 #@! TD*
G04 #@! TA.AperFunction,ViaPad*
%ADD28C,0.889000*%
G04 #@! TD*
G04 #@! TA.AperFunction,ViaPad*
%ADD29C,1.270000*%
G04 #@! TD*
G04 #@! TA.AperFunction,ViaPad*
%ADD30C,0.762000*%
G04 #@! TD*
G04 #@! TA.AperFunction,Conductor*
%ADD31C,0.508000*%
G04 #@! TD*
G04 #@! TA.AperFunction,Conductor*
%ADD32C,0.381000*%
G04 #@! TD*
G04 #@! TA.AperFunction,Conductor*
%ADD33C,0.304800*%
G04 #@! TD*
G04 #@! TA.AperFunction,Conductor*
%ADD34C,0.762000*%
G04 #@! TD*
G04 #@! TA.AperFunction,Conductor*
%ADD35C,0.406400*%
G04 #@! TD*
G04 #@! TA.AperFunction,Conductor*
%ADD36C,0.203200*%
G04 #@! TD*
G04 APERTURE END LIST*
D10*
D11*
X116647185Y-87835283D02*
X116575757Y-87763855D01*
X116575757Y-87763855D02*
X116504328Y-87620998D01*
X116504328Y-87620998D02*
X116504328Y-87263855D01*
X116504328Y-87263855D02*
X116575757Y-87120998D01*
X116575757Y-87120998D02*
X116647185Y-87049569D01*
X116647185Y-87049569D02*
X116790042Y-86978140D01*
X116790042Y-86978140D02*
X116932900Y-86978140D01*
X116932900Y-86978140D02*
X117147185Y-87049569D01*
X117147185Y-87049569D02*
X118004328Y-87906712D01*
X118004328Y-87906712D02*
X118004328Y-86978140D01*
X116504328Y-85692427D02*
X116504328Y-85978141D01*
X116504328Y-85978141D02*
X116575757Y-86120998D01*
X116575757Y-86120998D02*
X116647185Y-86192427D01*
X116647185Y-86192427D02*
X116861471Y-86335284D01*
X116861471Y-86335284D02*
X117147185Y-86406712D01*
X117147185Y-86406712D02*
X117718614Y-86406712D01*
X117718614Y-86406712D02*
X117861471Y-86335284D01*
X117861471Y-86335284D02*
X117932900Y-86263855D01*
X117932900Y-86263855D02*
X118004328Y-86120998D01*
X118004328Y-86120998D02*
X118004328Y-85835284D01*
X118004328Y-85835284D02*
X117932900Y-85692427D01*
X117932900Y-85692427D02*
X117861471Y-85620998D01*
X117861471Y-85620998D02*
X117718614Y-85549569D01*
X117718614Y-85549569D02*
X117361471Y-85549569D01*
X117361471Y-85549569D02*
X117218614Y-85620998D01*
X117218614Y-85620998D02*
X117147185Y-85692427D01*
X117147185Y-85692427D02*
X117075757Y-85835284D01*
X117075757Y-85835284D02*
X117075757Y-86120998D01*
X117075757Y-86120998D02*
X117147185Y-86263855D01*
X117147185Y-86263855D02*
X117218614Y-86335284D01*
X117218614Y-86335284D02*
X117361471Y-86406712D01*
X116504328Y-84620998D02*
X116504328Y-84478141D01*
X116504328Y-84478141D02*
X116575757Y-84335284D01*
X116575757Y-84335284D02*
X116647185Y-84263856D01*
X116647185Y-84263856D02*
X116790042Y-84192427D01*
X116790042Y-84192427D02*
X117075757Y-84120998D01*
X117075757Y-84120998D02*
X117432900Y-84120998D01*
X117432900Y-84120998D02*
X117718614Y-84192427D01*
X117718614Y-84192427D02*
X117861471Y-84263856D01*
X117861471Y-84263856D02*
X117932900Y-84335284D01*
X117932900Y-84335284D02*
X118004328Y-84478141D01*
X118004328Y-84478141D02*
X118004328Y-84620998D01*
X118004328Y-84620998D02*
X117932900Y-84763856D01*
X117932900Y-84763856D02*
X117861471Y-84835284D01*
X117861471Y-84835284D02*
X117718614Y-84906713D01*
X117718614Y-84906713D02*
X117432900Y-84978141D01*
X117432900Y-84978141D02*
X117075757Y-84978141D01*
X117075757Y-84978141D02*
X116790042Y-84906713D01*
X116790042Y-84906713D02*
X116647185Y-84835284D01*
X116647185Y-84835284D02*
X116575757Y-84763856D01*
X116575757Y-84763856D02*
X116504328Y-84620998D01*
X116504328Y-83192427D02*
X116504328Y-83049570D01*
X116504328Y-83049570D02*
X116575757Y-82906713D01*
X116575757Y-82906713D02*
X116647185Y-82835285D01*
X116647185Y-82835285D02*
X116790042Y-82763856D01*
X116790042Y-82763856D02*
X117075757Y-82692427D01*
X117075757Y-82692427D02*
X117432900Y-82692427D01*
X117432900Y-82692427D02*
X117718614Y-82763856D01*
X117718614Y-82763856D02*
X117861471Y-82835285D01*
X117861471Y-82835285D02*
X117932900Y-82906713D01*
X117932900Y-82906713D02*
X118004328Y-83049570D01*
X118004328Y-83049570D02*
X118004328Y-83192427D01*
X118004328Y-83192427D02*
X117932900Y-83335285D01*
X117932900Y-83335285D02*
X117861471Y-83406713D01*
X117861471Y-83406713D02*
X117718614Y-83478142D01*
X117718614Y-83478142D02*
X117432900Y-83549570D01*
X117432900Y-83549570D02*
X117075757Y-83549570D01*
X117075757Y-83549570D02*
X116790042Y-83478142D01*
X116790042Y-83478142D02*
X116647185Y-83406713D01*
X116647185Y-83406713D02*
X116575757Y-83335285D01*
X116575757Y-83335285D02*
X116504328Y-83192427D01*
X117861471Y-82049571D02*
X117932900Y-81978142D01*
X117932900Y-81978142D02*
X118004328Y-82049571D01*
X118004328Y-82049571D02*
X117932900Y-82120999D01*
X117932900Y-82120999D02*
X117861471Y-82049571D01*
X117861471Y-82049571D02*
X118004328Y-82049571D01*
X116504328Y-81049570D02*
X116504328Y-80906713D01*
X116504328Y-80906713D02*
X116575757Y-80763856D01*
X116575757Y-80763856D02*
X116647185Y-80692428D01*
X116647185Y-80692428D02*
X116790042Y-80620999D01*
X116790042Y-80620999D02*
X117075757Y-80549570D01*
X117075757Y-80549570D02*
X117432900Y-80549570D01*
X117432900Y-80549570D02*
X117718614Y-80620999D01*
X117718614Y-80620999D02*
X117861471Y-80692428D01*
X117861471Y-80692428D02*
X117932900Y-80763856D01*
X117932900Y-80763856D02*
X118004328Y-80906713D01*
X118004328Y-80906713D02*
X118004328Y-81049570D01*
X118004328Y-81049570D02*
X117932900Y-81192428D01*
X117932900Y-81192428D02*
X117861471Y-81263856D01*
X117861471Y-81263856D02*
X117718614Y-81335285D01*
X117718614Y-81335285D02*
X117432900Y-81406713D01*
X117432900Y-81406713D02*
X117075757Y-81406713D01*
X117075757Y-81406713D02*
X116790042Y-81335285D01*
X116790042Y-81335285D02*
X116647185Y-81263856D01*
X116647185Y-81263856D02*
X116575757Y-81192428D01*
X116575757Y-81192428D02*
X116504328Y-81049570D01*
X116504328Y-79620999D02*
X116504328Y-79478142D01*
X116504328Y-79478142D02*
X116575757Y-79335285D01*
X116575757Y-79335285D02*
X116647185Y-79263857D01*
X116647185Y-79263857D02*
X116790042Y-79192428D01*
X116790042Y-79192428D02*
X117075757Y-79120999D01*
X117075757Y-79120999D02*
X117432900Y-79120999D01*
X117432900Y-79120999D02*
X117718614Y-79192428D01*
X117718614Y-79192428D02*
X117861471Y-79263857D01*
X117861471Y-79263857D02*
X117932900Y-79335285D01*
X117932900Y-79335285D02*
X118004328Y-79478142D01*
X118004328Y-79478142D02*
X118004328Y-79620999D01*
X118004328Y-79620999D02*
X117932900Y-79763857D01*
X117932900Y-79763857D02*
X117861471Y-79835285D01*
X117861471Y-79835285D02*
X117718614Y-79906714D01*
X117718614Y-79906714D02*
X117432900Y-79978142D01*
X117432900Y-79978142D02*
X117075757Y-79978142D01*
X117075757Y-79978142D02*
X116790042Y-79906714D01*
X116790042Y-79906714D02*
X116647185Y-79835285D01*
X116647185Y-79835285D02*
X116575757Y-79763857D01*
X116575757Y-79763857D02*
X116504328Y-79620999D01*
X116504328Y-78192428D02*
X116504328Y-78049571D01*
X116504328Y-78049571D02*
X116575757Y-77906714D01*
X116575757Y-77906714D02*
X116647185Y-77835286D01*
X116647185Y-77835286D02*
X116790042Y-77763857D01*
X116790042Y-77763857D02*
X117075757Y-77692428D01*
X117075757Y-77692428D02*
X117432900Y-77692428D01*
X117432900Y-77692428D02*
X117718614Y-77763857D01*
X117718614Y-77763857D02*
X117861471Y-77835286D01*
X117861471Y-77835286D02*
X117932900Y-77906714D01*
X117932900Y-77906714D02*
X118004328Y-78049571D01*
X118004328Y-78049571D02*
X118004328Y-78192428D01*
X118004328Y-78192428D02*
X117932900Y-78335286D01*
X117932900Y-78335286D02*
X117861471Y-78406714D01*
X117861471Y-78406714D02*
X117718614Y-78478143D01*
X117718614Y-78478143D02*
X117432900Y-78549571D01*
X117432900Y-78549571D02*
X117075757Y-78549571D01*
X117075757Y-78549571D02*
X116790042Y-78478143D01*
X116790042Y-78478143D02*
X116647185Y-78406714D01*
X116647185Y-78406714D02*
X116575757Y-78335286D01*
X116575757Y-78335286D02*
X116504328Y-78192428D01*
X116504328Y-76763857D02*
X116504328Y-76621000D01*
X116504328Y-76621000D02*
X116575757Y-76478143D01*
X116575757Y-76478143D02*
X116647185Y-76406715D01*
X116647185Y-76406715D02*
X116790042Y-76335286D01*
X116790042Y-76335286D02*
X117075757Y-76263857D01*
X117075757Y-76263857D02*
X117432900Y-76263857D01*
X117432900Y-76263857D02*
X117718614Y-76335286D01*
X117718614Y-76335286D02*
X117861471Y-76406715D01*
X117861471Y-76406715D02*
X117932900Y-76478143D01*
X117932900Y-76478143D02*
X118004328Y-76621000D01*
X118004328Y-76621000D02*
X118004328Y-76763857D01*
X118004328Y-76763857D02*
X117932900Y-76906715D01*
X117932900Y-76906715D02*
X117861471Y-76978143D01*
X117861471Y-76978143D02*
X117718614Y-77049572D01*
X117718614Y-77049572D02*
X117432900Y-77121000D01*
X117432900Y-77121000D02*
X117075757Y-77121000D01*
X117075757Y-77121000D02*
X116790042Y-77049572D01*
X116790042Y-77049572D02*
X116647185Y-76978143D01*
X116647185Y-76978143D02*
X116575757Y-76906715D01*
X116575757Y-76906715D02*
X116504328Y-76763857D01*
X118004328Y-74478144D02*
X117004328Y-74478144D01*
X117147185Y-74478144D02*
X117075757Y-74406715D01*
X117075757Y-74406715D02*
X117004328Y-74263858D01*
X117004328Y-74263858D02*
X117004328Y-74049572D01*
X117004328Y-74049572D02*
X117075757Y-73906715D01*
X117075757Y-73906715D02*
X117218614Y-73835287D01*
X117218614Y-73835287D02*
X118004328Y-73835287D01*
X117218614Y-73835287D02*
X117075757Y-73763858D01*
X117075757Y-73763858D02*
X117004328Y-73621001D01*
X117004328Y-73621001D02*
X117004328Y-73406715D01*
X117004328Y-73406715D02*
X117075757Y-73263858D01*
X117075757Y-73263858D02*
X117218614Y-73192429D01*
X117218614Y-73192429D02*
X118004328Y-73192429D01*
X118004328Y-72478144D02*
X117004328Y-72478144D01*
X116504328Y-72478144D02*
X116575757Y-72549572D01*
X116575757Y-72549572D02*
X116647185Y-72478144D01*
X116647185Y-72478144D02*
X116575757Y-72406715D01*
X116575757Y-72406715D02*
X116504328Y-72478144D01*
X116504328Y-72478144D02*
X116647185Y-72478144D01*
X118004328Y-71549572D02*
X117932900Y-71692429D01*
X117932900Y-71692429D02*
X117790042Y-71763858D01*
X117790042Y-71763858D02*
X116504328Y-71763858D01*
X117932900Y-71049572D02*
X118004328Y-70906715D01*
X118004328Y-70906715D02*
X118004328Y-70621001D01*
X118004328Y-70621001D02*
X117932900Y-70478144D01*
X117932900Y-70478144D02*
X117790042Y-70406715D01*
X117790042Y-70406715D02*
X117718614Y-70406715D01*
X117718614Y-70406715D02*
X117575757Y-70478144D01*
X117575757Y-70478144D02*
X117504328Y-70621001D01*
X117504328Y-70621001D02*
X117504328Y-70835287D01*
X117504328Y-70835287D02*
X117432900Y-70978144D01*
X117432900Y-70978144D02*
X117290042Y-71049572D01*
X117290042Y-71049572D02*
X117218614Y-71049572D01*
X117218614Y-71049572D02*
X117075757Y-70978144D01*
X117075757Y-70978144D02*
X117004328Y-70835287D01*
X117004328Y-70835287D02*
X117004328Y-70621001D01*
X117004328Y-70621001D02*
X117075757Y-70478144D01*
D12*
X122309000Y-112141000D02*
X118539580Y-112141000D01*
X122309000Y-46101000D02*
X118539580Y-46101000D01*
X119126000Y-112141000D02*
X119126000Y-46101000D01*
X119126000Y-112141000D02*
X119126000Y-46101000D01*
X119126000Y-112141000D02*
X118539579Y-111014496D01*
X119126000Y-112141000D02*
X119712421Y-111014496D01*
X119126000Y-46101000D02*
X119712421Y-47227504D01*
X119126000Y-46101000D02*
X118539579Y-47227504D01*
D10*
D11*
X125889715Y-116766185D02*
X125746858Y-116694757D01*
X125746858Y-116694757D02*
X125675429Y-116623328D01*
X125675429Y-116623328D02*
X125604001Y-116480471D01*
X125604001Y-116480471D02*
X125604001Y-116409042D01*
X125604001Y-116409042D02*
X125675429Y-116266185D01*
X125675429Y-116266185D02*
X125746858Y-116194757D01*
X125746858Y-116194757D02*
X125889715Y-116123328D01*
X125889715Y-116123328D02*
X126175429Y-116123328D01*
X126175429Y-116123328D02*
X126318287Y-116194757D01*
X126318287Y-116194757D02*
X126389715Y-116266185D01*
X126389715Y-116266185D02*
X126461144Y-116409042D01*
X126461144Y-116409042D02*
X126461144Y-116480471D01*
X126461144Y-116480471D02*
X126389715Y-116623328D01*
X126389715Y-116623328D02*
X126318287Y-116694757D01*
X126318287Y-116694757D02*
X126175429Y-116766185D01*
X126175429Y-116766185D02*
X125889715Y-116766185D01*
X125889715Y-116766185D02*
X125746858Y-116837614D01*
X125746858Y-116837614D02*
X125675429Y-116909042D01*
X125675429Y-116909042D02*
X125604001Y-117051900D01*
X125604001Y-117051900D02*
X125604001Y-117337614D01*
X125604001Y-117337614D02*
X125675429Y-117480471D01*
X125675429Y-117480471D02*
X125746858Y-117551900D01*
X125746858Y-117551900D02*
X125889715Y-117623328D01*
X125889715Y-117623328D02*
X126175429Y-117623328D01*
X126175429Y-117623328D02*
X126318287Y-117551900D01*
X126318287Y-117551900D02*
X126389715Y-117480471D01*
X126389715Y-117480471D02*
X126461144Y-117337614D01*
X126461144Y-117337614D02*
X126461144Y-117051900D01*
X126461144Y-117051900D02*
X126389715Y-116909042D01*
X126389715Y-116909042D02*
X126318287Y-116837614D01*
X126318287Y-116837614D02*
X126175429Y-116766185D01*
X127389715Y-116123328D02*
X127532572Y-116123328D01*
X127532572Y-116123328D02*
X127675429Y-116194757D01*
X127675429Y-116194757D02*
X127746858Y-116266185D01*
X127746858Y-116266185D02*
X127818286Y-116409042D01*
X127818286Y-116409042D02*
X127889715Y-116694757D01*
X127889715Y-116694757D02*
X127889715Y-117051900D01*
X127889715Y-117051900D02*
X127818286Y-117337614D01*
X127818286Y-117337614D02*
X127746858Y-117480471D01*
X127746858Y-117480471D02*
X127675429Y-117551900D01*
X127675429Y-117551900D02*
X127532572Y-117623328D01*
X127532572Y-117623328D02*
X127389715Y-117623328D01*
X127389715Y-117623328D02*
X127246858Y-117551900D01*
X127246858Y-117551900D02*
X127175429Y-117480471D01*
X127175429Y-117480471D02*
X127104000Y-117337614D01*
X127104000Y-117337614D02*
X127032572Y-117051900D01*
X127032572Y-117051900D02*
X127032572Y-116694757D01*
X127032572Y-116694757D02*
X127104000Y-116409042D01*
X127104000Y-116409042D02*
X127175429Y-116266185D01*
X127175429Y-116266185D02*
X127246858Y-116194757D01*
X127246858Y-116194757D02*
X127389715Y-116123328D01*
X128818286Y-116123328D02*
X128961143Y-116123328D01*
X128961143Y-116123328D02*
X129104000Y-116194757D01*
X129104000Y-116194757D02*
X129175429Y-116266185D01*
X129175429Y-116266185D02*
X129246857Y-116409042D01*
X129246857Y-116409042D02*
X129318286Y-116694757D01*
X129318286Y-116694757D02*
X129318286Y-117051900D01*
X129318286Y-117051900D02*
X129246857Y-117337614D01*
X129246857Y-117337614D02*
X129175429Y-117480471D01*
X129175429Y-117480471D02*
X129104000Y-117551900D01*
X129104000Y-117551900D02*
X128961143Y-117623328D01*
X128961143Y-117623328D02*
X128818286Y-117623328D01*
X128818286Y-117623328D02*
X128675429Y-117551900D01*
X128675429Y-117551900D02*
X128604000Y-117480471D01*
X128604000Y-117480471D02*
X128532571Y-117337614D01*
X128532571Y-117337614D02*
X128461143Y-117051900D01*
X128461143Y-117051900D02*
X128461143Y-116694757D01*
X128461143Y-116694757D02*
X128532571Y-116409042D01*
X128532571Y-116409042D02*
X128604000Y-116266185D01*
X128604000Y-116266185D02*
X128675429Y-116194757D01*
X128675429Y-116194757D02*
X128818286Y-116123328D01*
X129961142Y-117480471D02*
X130032571Y-117551900D01*
X130032571Y-117551900D02*
X129961142Y-117623328D01*
X129961142Y-117623328D02*
X129889714Y-117551900D01*
X129889714Y-117551900D02*
X129961142Y-117480471D01*
X129961142Y-117480471D02*
X129961142Y-117623328D01*
X130961143Y-116123328D02*
X131104000Y-116123328D01*
X131104000Y-116123328D02*
X131246857Y-116194757D01*
X131246857Y-116194757D02*
X131318286Y-116266185D01*
X131318286Y-116266185D02*
X131389714Y-116409042D01*
X131389714Y-116409042D02*
X131461143Y-116694757D01*
X131461143Y-116694757D02*
X131461143Y-117051900D01*
X131461143Y-117051900D02*
X131389714Y-117337614D01*
X131389714Y-117337614D02*
X131318286Y-117480471D01*
X131318286Y-117480471D02*
X131246857Y-117551900D01*
X131246857Y-117551900D02*
X131104000Y-117623328D01*
X131104000Y-117623328D02*
X130961143Y-117623328D01*
X130961143Y-117623328D02*
X130818286Y-117551900D01*
X130818286Y-117551900D02*
X130746857Y-117480471D01*
X130746857Y-117480471D02*
X130675428Y-117337614D01*
X130675428Y-117337614D02*
X130604000Y-117051900D01*
X130604000Y-117051900D02*
X130604000Y-116694757D01*
X130604000Y-116694757D02*
X130675428Y-116409042D01*
X130675428Y-116409042D02*
X130746857Y-116266185D01*
X130746857Y-116266185D02*
X130818286Y-116194757D01*
X130818286Y-116194757D02*
X130961143Y-116123328D01*
X132389714Y-116123328D02*
X132532571Y-116123328D01*
X132532571Y-116123328D02*
X132675428Y-116194757D01*
X132675428Y-116194757D02*
X132746857Y-116266185D01*
X132746857Y-116266185D02*
X132818285Y-116409042D01*
X132818285Y-116409042D02*
X132889714Y-116694757D01*
X132889714Y-116694757D02*
X132889714Y-117051900D01*
X132889714Y-117051900D02*
X132818285Y-117337614D01*
X132818285Y-117337614D02*
X132746857Y-117480471D01*
X132746857Y-117480471D02*
X132675428Y-117551900D01*
X132675428Y-117551900D02*
X132532571Y-117623328D01*
X132532571Y-117623328D02*
X132389714Y-117623328D01*
X132389714Y-117623328D02*
X132246857Y-117551900D01*
X132246857Y-117551900D02*
X132175428Y-117480471D01*
X132175428Y-117480471D02*
X132103999Y-117337614D01*
X132103999Y-117337614D02*
X132032571Y-117051900D01*
X132032571Y-117051900D02*
X132032571Y-116694757D01*
X132032571Y-116694757D02*
X132103999Y-116409042D01*
X132103999Y-116409042D02*
X132175428Y-116266185D01*
X132175428Y-116266185D02*
X132246857Y-116194757D01*
X132246857Y-116194757D02*
X132389714Y-116123328D01*
X133818285Y-116123328D02*
X133961142Y-116123328D01*
X133961142Y-116123328D02*
X134103999Y-116194757D01*
X134103999Y-116194757D02*
X134175428Y-116266185D01*
X134175428Y-116266185D02*
X134246856Y-116409042D01*
X134246856Y-116409042D02*
X134318285Y-116694757D01*
X134318285Y-116694757D02*
X134318285Y-117051900D01*
X134318285Y-117051900D02*
X134246856Y-117337614D01*
X134246856Y-117337614D02*
X134175428Y-117480471D01*
X134175428Y-117480471D02*
X134103999Y-117551900D01*
X134103999Y-117551900D02*
X133961142Y-117623328D01*
X133961142Y-117623328D02*
X133818285Y-117623328D01*
X133818285Y-117623328D02*
X133675428Y-117551900D01*
X133675428Y-117551900D02*
X133603999Y-117480471D01*
X133603999Y-117480471D02*
X133532570Y-117337614D01*
X133532570Y-117337614D02*
X133461142Y-117051900D01*
X133461142Y-117051900D02*
X133461142Y-116694757D01*
X133461142Y-116694757D02*
X133532570Y-116409042D01*
X133532570Y-116409042D02*
X133603999Y-116266185D01*
X133603999Y-116266185D02*
X133675428Y-116194757D01*
X133675428Y-116194757D02*
X133818285Y-116123328D01*
X135246856Y-116123328D02*
X135389713Y-116123328D01*
X135389713Y-116123328D02*
X135532570Y-116194757D01*
X135532570Y-116194757D02*
X135603999Y-116266185D01*
X135603999Y-116266185D02*
X135675427Y-116409042D01*
X135675427Y-116409042D02*
X135746856Y-116694757D01*
X135746856Y-116694757D02*
X135746856Y-117051900D01*
X135746856Y-117051900D02*
X135675427Y-117337614D01*
X135675427Y-117337614D02*
X135603999Y-117480471D01*
X135603999Y-117480471D02*
X135532570Y-117551900D01*
X135532570Y-117551900D02*
X135389713Y-117623328D01*
X135389713Y-117623328D02*
X135246856Y-117623328D01*
X135246856Y-117623328D02*
X135103999Y-117551900D01*
X135103999Y-117551900D02*
X135032570Y-117480471D01*
X135032570Y-117480471D02*
X134961141Y-117337614D01*
X134961141Y-117337614D02*
X134889713Y-117051900D01*
X134889713Y-117051900D02*
X134889713Y-116694757D01*
X134889713Y-116694757D02*
X134961141Y-116409042D01*
X134961141Y-116409042D02*
X135032570Y-116266185D01*
X135032570Y-116266185D02*
X135103999Y-116194757D01*
X135103999Y-116194757D02*
X135246856Y-116123328D01*
X137532569Y-117623328D02*
X137532569Y-116623328D01*
X137532569Y-116766185D02*
X137603998Y-116694757D01*
X137603998Y-116694757D02*
X137746855Y-116623328D01*
X137746855Y-116623328D02*
X137961141Y-116623328D01*
X137961141Y-116623328D02*
X138103998Y-116694757D01*
X138103998Y-116694757D02*
X138175427Y-116837614D01*
X138175427Y-116837614D02*
X138175427Y-117623328D01*
X138175427Y-116837614D02*
X138246855Y-116694757D01*
X138246855Y-116694757D02*
X138389712Y-116623328D01*
X138389712Y-116623328D02*
X138603998Y-116623328D01*
X138603998Y-116623328D02*
X138746855Y-116694757D01*
X138746855Y-116694757D02*
X138818284Y-116837614D01*
X138818284Y-116837614D02*
X138818284Y-117623328D01*
X139532569Y-117623328D02*
X139532569Y-116623328D01*
X139532569Y-116123328D02*
X139461141Y-116194757D01*
X139461141Y-116194757D02*
X139532569Y-116266185D01*
X139532569Y-116266185D02*
X139603998Y-116194757D01*
X139603998Y-116194757D02*
X139532569Y-116123328D01*
X139532569Y-116123328D02*
X139532569Y-116266185D01*
X140461141Y-117623328D02*
X140318284Y-117551900D01*
X140318284Y-117551900D02*
X140246855Y-117409042D01*
X140246855Y-117409042D02*
X140246855Y-116123328D01*
X140961141Y-117551900D02*
X141103998Y-117623328D01*
X141103998Y-117623328D02*
X141389712Y-117623328D01*
X141389712Y-117623328D02*
X141532569Y-117551900D01*
X141532569Y-117551900D02*
X141603998Y-117409042D01*
X141603998Y-117409042D02*
X141603998Y-117337614D01*
X141603998Y-117337614D02*
X141532569Y-117194757D01*
X141532569Y-117194757D02*
X141389712Y-117123328D01*
X141389712Y-117123328D02*
X141175427Y-117123328D01*
X141175427Y-117123328D02*
X141032569Y-117051900D01*
X141032569Y-117051900D02*
X140961141Y-116909042D01*
X140961141Y-116909042D02*
X140961141Y-116837614D01*
X140961141Y-116837614D02*
X141032569Y-116694757D01*
X141032569Y-116694757D02*
X141175427Y-116623328D01*
X141175427Y-116623328D02*
X141389712Y-116623328D01*
X141389712Y-116623328D02*
X141532569Y-116694757D01*
D12*
X123444000Y-113149000D02*
X123444000Y-119331420D01*
X143764000Y-113149000D02*
X143764000Y-119331420D01*
X123444000Y-118745000D02*
X143764000Y-118745000D01*
X123444000Y-118745000D02*
X143764000Y-118745000D01*
X123444000Y-118745000D02*
X124570504Y-118158579D01*
X123444000Y-118745000D02*
X124570504Y-119331421D01*
X143764000Y-118745000D02*
X142637496Y-119331421D01*
X143764000Y-118745000D02*
X142637496Y-118158579D01*
D13*
X137112000Y-105410000D03*
X139412000Y-105410000D03*
D14*
X139412000Y-99110000D03*
D13*
X141712000Y-105410000D03*
D15*
X138684000Y-82931000D03*
D16*
X138684000Y-85471000D03*
X136144000Y-82931000D03*
X136144000Y-85471000D03*
X133604000Y-82931000D03*
X133604000Y-85471000D03*
X131064000Y-82931000D03*
X131064000Y-85471000D03*
X128524000Y-82931000D03*
X128524000Y-85471000D03*
X125984000Y-82931000D03*
X125984000Y-85471000D03*
D17*
X141986000Y-88265000D03*
X139886000Y-88265000D03*
D18*
X137330000Y-95103000D03*
X137330000Y-92603000D03*
D19*
X131048400Y-108018200D03*
X130398400Y-108018200D03*
X129748400Y-108018200D03*
X129098400Y-108018200D03*
X128448400Y-108018200D03*
D20*
X125573400Y-110693200D03*
D21*
X126010900Y-110693200D03*
D22*
X127523400Y-107693200D03*
D23*
X129748400Y-110693200D03*
D22*
X131973400Y-107693200D03*
D21*
X133485900Y-110693200D03*
D20*
X133923400Y-110693200D03*
D17*
X141986000Y-90297000D03*
X139886000Y-90297000D03*
D24*
X127965200Y-90805200D03*
X125425200Y-90805200D03*
X125425200Y-100025200D03*
X127965200Y-100025200D03*
D15*
X137414000Y-75636200D03*
D16*
X137414000Y-78176200D03*
D18*
X139362000Y-95103000D03*
X139362000Y-92603000D03*
D15*
X129794000Y-75636200D03*
D16*
X129794000Y-78176200D03*
D15*
X138264000Y-109474000D03*
D16*
X140804000Y-109474000D03*
D24*
X131013200Y-100025200D03*
X133553200Y-100025200D03*
X133553200Y-90805200D03*
X131013200Y-90805200D03*
D15*
X133604000Y-75636200D03*
D16*
X133604000Y-78176200D03*
D15*
X126085600Y-103987600D03*
D16*
X128625600Y-103987600D03*
D17*
X138650000Y-90297000D03*
X136550000Y-90297000D03*
D25*
X125620000Y-54900000D03*
X125620000Y-56900000D03*
X125620000Y-58900000D03*
X125620000Y-60900000D03*
X125620000Y-62900000D03*
X125620000Y-64900000D03*
X125620000Y-66900000D03*
X125620000Y-68900000D03*
X141620000Y-68900000D03*
X141620000Y-66900000D03*
X141620000Y-64900000D03*
X141620000Y-62900000D03*
X141620000Y-60900000D03*
X141620000Y-58900000D03*
X141620000Y-56900000D03*
X141620000Y-54900000D03*
D18*
X141394000Y-95103000D03*
X141394000Y-92603000D03*
D17*
X138650000Y-88265000D03*
X136550000Y-88265000D03*
D15*
X141478000Y-74041000D03*
D16*
X141478000Y-76581000D03*
X141478000Y-79121000D03*
D15*
X125984000Y-75636200D03*
D16*
X125984000Y-78176200D03*
D26*
X138785600Y-102870000D03*
D27*
X128422400Y-106578400D03*
D28*
X125120400Y-89255600D03*
D26*
X141528800Y-101803200D03*
X139547600Y-68884800D03*
X137312400Y-107391200D03*
X135382000Y-105359200D03*
X130454400Y-71628000D03*
X130505200Y-67310000D03*
X128108054Y-109252723D03*
D28*
X135001000Y-94665800D03*
D29*
X141732000Y-107340400D03*
D26*
X139412000Y-97637600D03*
X141376400Y-97739200D03*
X136601200Y-99771200D03*
D28*
X131216400Y-89357200D03*
D26*
X139141200Y-107238800D03*
X127711200Y-68935600D03*
X142138400Y-99009200D03*
X137922000Y-97586800D03*
D30*
X141071600Y-88696800D03*
X126796800Y-95453200D03*
X140462000Y-94183200D03*
X138379200Y-91236800D03*
X133705600Y-97891600D03*
X141655800Y-94208600D03*
X128422400Y-98247200D03*
X139395200Y-94132400D03*
X137312400Y-94132400D03*
X135890000Y-92811600D03*
X137109200Y-70053200D03*
X137515600Y-61112400D03*
X137210800Y-63855600D03*
X138582400Y-55676800D03*
X138379200Y-57708800D03*
X136144000Y-61264800D03*
X136144000Y-63652400D03*
X138988800Y-67310000D03*
X132181600Y-69088000D03*
X133045200Y-66548000D03*
X127511600Y-66900000D03*
X128727200Y-72390000D03*
X133680200Y-73964800D03*
X131267200Y-65074800D03*
X131216400Y-72694800D03*
X127660400Y-64973200D03*
X139573000Y-59004200D03*
X135280400Y-65481200D03*
X128066800Y-55524400D03*
X130860800Y-98755200D03*
X129082800Y-89662000D03*
X133731000Y-89636600D03*
D31*
X133497500Y-110744000D02*
X133935000Y-110744000D01*
D32*
X125425200Y-90805200D02*
X125425200Y-89560400D01*
D31*
X129548531Y-110693200D02*
X128108054Y-109252723D01*
X126022500Y-110744000D02*
X125585000Y-110744000D01*
D32*
X125425200Y-89560400D02*
X125120400Y-89255600D01*
D31*
X126022500Y-110278488D02*
X126022500Y-110744000D01*
X137112000Y-105410000D02*
X135432800Y-105410000D01*
D33*
X128460000Y-106616000D02*
X128422400Y-106578400D01*
D31*
X141620000Y-68900000D02*
X139562800Y-68900000D01*
X137112000Y-105410000D02*
X137112000Y-107190800D01*
X135432800Y-105410000D02*
X135382000Y-105359200D01*
X137112000Y-107190800D02*
X137312400Y-107391200D01*
X129748400Y-110693200D02*
X129548531Y-110693200D01*
X133935000Y-110739710D02*
X133935000Y-110744000D01*
X126010900Y-109904300D02*
X126010900Y-110693200D01*
D33*
X139562800Y-68900000D02*
X139547600Y-68884800D01*
X128460000Y-108069000D02*
X128460000Y-106616000D01*
X131060000Y-108069000D02*
X131060000Y-108454000D01*
D31*
X139623800Y-111125000D02*
X140804000Y-109944800D01*
D34*
X141732000Y-105430000D02*
X141712000Y-105410000D01*
D35*
X131060000Y-108454000D02*
X131521200Y-108915200D01*
D33*
X131521200Y-108915200D02*
X131368800Y-108915200D01*
D31*
X140804000Y-109944800D02*
X140804000Y-109474000D01*
X134620000Y-108915200D02*
X136829800Y-111125000D01*
D34*
X141732000Y-107340400D02*
X141732000Y-105430000D01*
D31*
X131521200Y-108915200D02*
X134620000Y-108915200D01*
D33*
X131368800Y-108915200D02*
X131053600Y-108600000D01*
X131053600Y-108600000D02*
X131053600Y-108069000D01*
D31*
X136829800Y-111125000D02*
X139623800Y-111125000D01*
X141376400Y-97739200D02*
X140005600Y-99110000D01*
X142037600Y-99110000D02*
X142138400Y-99009200D01*
D32*
X131013200Y-89560400D02*
X131216400Y-89357200D01*
D31*
X140005600Y-99110000D02*
X139412000Y-99110000D01*
X139412000Y-106968000D02*
X139141200Y-107238800D01*
X139412000Y-105410000D02*
X139412000Y-106968000D01*
X137922000Y-97586800D02*
X137922000Y-97620000D01*
D33*
X127675600Y-68900000D02*
X127711200Y-68935600D01*
D31*
X125620000Y-68900000D02*
X127675600Y-68900000D01*
X139412000Y-97637600D02*
X139412000Y-99110000D01*
D32*
X131013200Y-90805200D02*
X131013200Y-89560400D01*
D31*
X139412000Y-99110000D02*
X142037600Y-99110000D01*
X137922000Y-97620000D02*
X139412000Y-99110000D01*
D36*
X141986000Y-88265000D02*
X141986000Y-89255600D01*
X141071600Y-88696800D02*
X141427200Y-88696800D01*
X141986000Y-89255600D02*
X141986000Y-90297000D01*
X141427200Y-88696800D02*
X141986000Y-89255600D01*
X126796800Y-89814000D02*
X126796800Y-95453200D01*
X138120200Y-87735200D02*
X128875600Y-87735200D01*
X138650000Y-88265000D02*
X139886000Y-88265000D01*
X128875600Y-87735200D02*
X126796800Y-89814000D01*
X138650000Y-88265000D02*
X138120200Y-87735200D01*
X138650000Y-90297000D02*
X138650000Y-90966000D01*
X138650000Y-90297000D02*
X139886000Y-90297000D01*
X131750400Y-103987600D02*
X135229600Y-100508400D01*
X135229600Y-100508400D02*
X135229600Y-97028000D01*
X138650000Y-90966000D02*
X138379200Y-91236800D01*
X140462000Y-95294534D02*
X139468267Y-96288267D01*
X135969333Y-96288267D02*
X139468267Y-96288267D01*
X128625600Y-103987600D02*
X131750400Y-103987600D01*
X140462000Y-94183200D02*
X140462000Y-95294534D01*
X135229600Y-97028000D02*
X135969333Y-96288267D01*
X133705600Y-97435866D02*
X133705600Y-97891600D01*
X136550000Y-90297000D02*
X136550000Y-90474400D01*
X137330000Y-92603000D02*
X136144000Y-93789000D01*
X133553200Y-100025200D02*
X133553200Y-98044000D01*
X136550000Y-88265000D02*
X136550000Y-90297000D01*
X137330000Y-91254400D02*
X137330000Y-92603000D01*
X133553200Y-98044000D02*
X133705600Y-97891600D01*
X136144000Y-93789000D02*
X136144000Y-94997466D01*
X136550000Y-90474400D02*
X137330000Y-91254400D01*
D33*
X141394000Y-92603000D02*
X137330000Y-92603000D01*
D36*
X136144000Y-94997466D02*
X133705600Y-97435866D01*
X141655800Y-94208600D02*
X141655800Y-94841200D01*
X141655800Y-94841200D02*
X141394000Y-95103000D01*
X139362000Y-95103000D02*
X139362000Y-94165600D01*
X139362000Y-94165600D02*
X139395200Y-94132400D01*
X127965200Y-98704400D02*
X128422400Y-98247200D01*
X127965200Y-100025200D02*
X127965200Y-98704400D01*
X127965200Y-97485200D02*
X128371600Y-97485200D01*
X133451600Y-94437200D02*
X130403600Y-97485200D01*
X135839200Y-92862400D02*
X135026400Y-92862400D01*
X125425200Y-100025200D02*
X127965200Y-97485200D01*
X135026400Y-92862400D02*
X133451600Y-94437200D01*
X137330000Y-94150000D02*
X137312400Y-94132400D01*
X137330000Y-95103000D02*
X137330000Y-94150000D01*
X135890000Y-92811600D02*
X135839200Y-92862400D01*
X130403600Y-97485200D02*
X128371600Y-97485200D01*
X138379200Y-57708800D02*
X138379200Y-60248800D01*
X138379200Y-60248800D02*
X137515600Y-61112400D01*
X136753600Y-64312800D02*
X137210800Y-63855600D01*
X139359200Y-54900000D02*
X138582400Y-55676800D01*
X137109200Y-70053200D02*
X136753600Y-69697600D01*
X141620000Y-54900000D02*
X139359200Y-54900000D01*
X136753600Y-69697600D02*
X136753600Y-64312800D01*
X136144000Y-61264800D02*
X136144000Y-58216800D01*
X136144000Y-79044800D02*
X137160000Y-80060800D01*
X136144000Y-58216800D02*
X137515600Y-56845200D01*
X140538200Y-80060800D02*
X141478000Y-79121000D01*
X136144000Y-63652400D02*
X136144000Y-79044800D01*
X137515600Y-56845200D02*
X140760295Y-56845200D01*
X137160000Y-80060800D02*
X140538200Y-80060800D01*
X128778000Y-69900800D02*
X128778000Y-64566800D01*
X128524000Y-82931000D02*
X128016000Y-82423000D01*
X128016000Y-82423000D02*
X128016000Y-70662800D01*
X128778000Y-64566800D02*
X127111200Y-62900000D01*
X127111200Y-62900000D02*
X125620000Y-62900000D01*
X128016000Y-70662800D02*
X128778000Y-69900800D01*
X129899105Y-75636200D02*
X132181600Y-73353705D01*
X132181600Y-73353705D02*
X132181600Y-69088000D01*
X138988800Y-67310000D02*
X139398800Y-66900000D01*
X139398800Y-66900000D02*
X141620000Y-66900000D01*
X135270800Y-62900000D02*
X134366000Y-63804800D01*
X134366000Y-63804800D02*
X134366000Y-74874200D01*
X134366000Y-74874200D02*
X133604000Y-75636200D01*
X141620000Y-62900000D02*
X135270800Y-62900000D01*
X131572000Y-80721200D02*
X132283200Y-81432400D01*
X132283200Y-81432400D02*
X132283200Y-84251800D01*
X132892800Y-66700400D02*
X132892800Y-73585706D01*
X125620000Y-66900000D02*
X127511600Y-66900000D01*
X131572000Y-74906506D02*
X131572000Y-80721200D01*
X132892800Y-73585706D02*
X131572000Y-74906506D01*
X133045200Y-66548000D02*
X132892800Y-66700400D01*
X132283200Y-84251800D02*
X131064000Y-85471000D01*
X129438400Y-63968400D02*
X126370000Y-60900000D01*
X129438400Y-71678800D02*
X129438400Y-63968400D01*
X128727200Y-72390000D02*
X129438400Y-71678800D01*
X133680200Y-73964800D02*
X133807200Y-73837800D01*
X134924800Y-62128400D02*
X138226800Y-62128400D01*
X139455200Y-60900000D02*
X138226800Y-62128400D01*
X133807200Y-73837800D02*
X133807200Y-63246000D01*
X133807200Y-63246000D02*
X134924800Y-62128400D01*
X141620000Y-60900000D02*
X139455200Y-60900000D01*
X132029200Y-65836800D02*
X131267200Y-65074800D01*
X131419600Y-72491600D02*
X131419600Y-68326000D01*
X127587200Y-64900000D02*
X127660400Y-64973200D01*
X131419600Y-68326000D02*
X132029200Y-67716400D01*
X132029200Y-67716400D02*
X132029200Y-65836800D01*
X125620000Y-64900000D02*
X127587200Y-64900000D01*
X131216400Y-72694800D02*
X131419600Y-72491600D01*
X134784200Y-78700976D02*
X134784200Y-84290800D01*
X135280400Y-65481200D02*
X135026400Y-65735200D01*
X135026400Y-65735200D02*
X135026400Y-78458776D01*
X135026400Y-78458776D02*
X134784200Y-78700976D01*
X141620000Y-58900000D02*
X139677200Y-58900000D01*
X139677200Y-58900000D02*
X139573000Y-59004200D01*
X134784200Y-84290800D02*
X133604000Y-85471000D01*
X137922000Y-65836800D02*
X137922000Y-75128200D01*
X138858800Y-64900000D02*
X137922000Y-65836800D01*
X141620000Y-64900000D02*
X138858800Y-64900000D01*
X137922000Y-75128200D02*
X137414000Y-75636200D01*
X127442400Y-54900000D02*
X128066800Y-55524400D01*
X125620000Y-54900000D02*
X127442400Y-54900000D01*
X131013200Y-98907600D02*
X130860800Y-98755200D01*
X131013200Y-100025200D02*
X131013200Y-98907600D01*
X127965200Y-90805200D02*
X127965200Y-90779600D01*
X127965200Y-90779600D02*
X129082800Y-89662000D01*
X133553200Y-89814400D02*
X133553200Y-90805200D01*
X133731000Y-89636600D02*
X133553200Y-89814400D01*
M02*
