G04 #@! TF.GenerationSoftware,KiCad,Pcbnew,8.0.5*
G04 #@! TF.CreationDate,2024-11-08T00:03:23+01:00*
G04 #@! TF.ProjectId,iot-opentherm,696f742d-6f70-4656-9e74-6865726d2e6b,rev?*
G04 #@! TF.SameCoordinates,Original*
G04 #@! TF.FileFunction,Legend,Bot*
G04 #@! TF.FilePolarity,Positive*
%FSLAX46Y46*%
G04 Gerber Fmt 4.6, Leading zero omitted, Abs format (unit mm)*
G04 Created by KiCad (PCBNEW 8.0.5) date 2024-11-08 00:03:23*
%MOMM*%
%LPD*%
G01*
G04 APERTURE LIST*
G04 Aperture macros list*
%AMRoundRect*
0 Rectangle with rounded corners*
0 $1 Rounding radius*
0 $2 $3 $4 $5 $6 $7 $8 $9 X,Y pos of 4 corners*
0 Add a 4 corners polygon primitive as box body*
4,1,4,$2,$3,$4,$5,$6,$7,$8,$9,$2,$3,0*
0 Add four circle primitives for the rounded corners*
1,1,$1+$1,$2,$3*
1,1,$1+$1,$4,$5*
1,1,$1+$1,$6,$7*
1,1,$1+$1,$8,$9*
0 Add four rect primitives between the rounded corners*
20,1,$1+$1,$2,$3,$4,$5,0*
20,1,$1+$1,$4,$5,$6,$7,0*
20,1,$1+$1,$6,$7,$8,$9,0*
20,1,$1+$1,$8,$9,$2,$3,0*%
G04 Aperture macros list end*
%ADD10C,0.203200*%
%ADD11C,0.254000*%
%ADD12C,0.152400*%
%ADD13C,0.150000*%
%ADD14C,0.010000*%
%ADD15C,0.120000*%
%ADD16R,1.700000X1.700000*%
%ADD17O,1.700000X1.700000*%
%ADD18O,1.000000X1.900000*%
%ADD19O,1.050000X1.250000*%
%ADD20RoundRect,0.102000X-0.900000X-0.900000X0.900000X-0.900000X0.900000X0.900000X-0.900000X0.900000X0*%
%ADD21C,2.004000*%
%ADD22RoundRect,0.102000X0.900000X-0.900000X0.900000X0.900000X-0.900000X0.900000X-0.900000X-0.900000X0*%
%ADD23RoundRect,0.237500X-0.300000X-0.237500X0.300000X-0.237500X0.300000X0.237500X-0.300000X0.237500X0*%
%ADD24RoundRect,0.237500X0.250000X0.237500X-0.250000X0.237500X-0.250000X-0.237500X0.250000X-0.237500X0*%
%ADD25RoundRect,0.250000X-0.337500X-0.475000X0.337500X-0.475000X0.337500X0.475000X-0.337500X0.475000X0*%
%ADD26RoundRect,0.250000X0.475000X-0.337500X0.475000X0.337500X-0.475000X0.337500X-0.475000X-0.337500X0*%
%ADD27RoundRect,0.237500X-0.237500X0.250000X-0.237500X-0.250000X0.237500X-0.250000X0.237500X0.250000X0*%
%ADD28RoundRect,0.237500X0.237500X-0.250000X0.237500X0.250000X-0.237500X0.250000X-0.237500X-0.250000X0*%
%ADD29RoundRect,0.237500X-0.250000X-0.237500X0.250000X-0.237500X0.250000X0.237500X-0.250000X0.237500X0*%
%ADD30RoundRect,0.150000X-0.587500X-0.150000X0.587500X-0.150000X0.587500X0.150000X-0.587500X0.150000X0*%
%ADD31RoundRect,0.250000X-0.475000X0.337500X-0.475000X-0.337500X0.475000X-0.337500X0.475000X0.337500X0*%
G04 APERTURE END LIST*
D10*
X141813611Y-47530790D02*
X141813611Y-46514790D01*
X141184658Y-47530790D02*
X141281420Y-47482410D01*
X141281420Y-47482410D02*
X141329801Y-47434029D01*
X141329801Y-47434029D02*
X141378182Y-47337267D01*
X141378182Y-47337267D02*
X141378182Y-47046981D01*
X141378182Y-47046981D02*
X141329801Y-46950219D01*
X141329801Y-46950219D02*
X141281420Y-46901838D01*
X141281420Y-46901838D02*
X141184658Y-46853457D01*
X141184658Y-46853457D02*
X141039515Y-46853457D01*
X141039515Y-46853457D02*
X140942753Y-46901838D01*
X140942753Y-46901838D02*
X140894372Y-46950219D01*
X140894372Y-46950219D02*
X140845991Y-47046981D01*
X140845991Y-47046981D02*
X140845991Y-47337267D01*
X140845991Y-47337267D02*
X140894372Y-47434029D01*
X140894372Y-47434029D02*
X140942753Y-47482410D01*
X140942753Y-47482410D02*
X141039515Y-47530790D01*
X141039515Y-47530790D02*
X141184658Y-47530790D01*
X140555706Y-46514790D02*
X139975134Y-46514790D01*
X140265420Y-47530790D02*
X140265420Y-46514790D01*
X138668849Y-46514790D02*
X138475325Y-46514790D01*
X138475325Y-46514790D02*
X138378563Y-46563171D01*
X138378563Y-46563171D02*
X138281801Y-46659933D01*
X138281801Y-46659933D02*
X138233420Y-46853457D01*
X138233420Y-46853457D02*
X138233420Y-47192124D01*
X138233420Y-47192124D02*
X138281801Y-47385648D01*
X138281801Y-47385648D02*
X138378563Y-47482410D01*
X138378563Y-47482410D02*
X138475325Y-47530790D01*
X138475325Y-47530790D02*
X138668849Y-47530790D01*
X138668849Y-47530790D02*
X138765611Y-47482410D01*
X138765611Y-47482410D02*
X138862373Y-47385648D01*
X138862373Y-47385648D02*
X138910754Y-47192124D01*
X138910754Y-47192124D02*
X138910754Y-46853457D01*
X138910754Y-46853457D02*
X138862373Y-46659933D01*
X138862373Y-46659933D02*
X138765611Y-46563171D01*
X138765611Y-46563171D02*
X138668849Y-46514790D01*
X137797992Y-46853457D02*
X137797992Y-47869457D01*
X137797992Y-46901838D02*
X137701230Y-46853457D01*
X137701230Y-46853457D02*
X137507706Y-46853457D01*
X137507706Y-46853457D02*
X137410944Y-46901838D01*
X137410944Y-46901838D02*
X137362563Y-46950219D01*
X137362563Y-46950219D02*
X137314182Y-47046981D01*
X137314182Y-47046981D02*
X137314182Y-47337267D01*
X137314182Y-47337267D02*
X137362563Y-47434029D01*
X137362563Y-47434029D02*
X137410944Y-47482410D01*
X137410944Y-47482410D02*
X137507706Y-47530790D01*
X137507706Y-47530790D02*
X137701230Y-47530790D01*
X137701230Y-47530790D02*
X137797992Y-47482410D01*
X136491706Y-47482410D02*
X136588468Y-47530790D01*
X136588468Y-47530790D02*
X136781992Y-47530790D01*
X136781992Y-47530790D02*
X136878754Y-47482410D01*
X136878754Y-47482410D02*
X136927135Y-47385648D01*
X136927135Y-47385648D02*
X136927135Y-46998600D01*
X136927135Y-46998600D02*
X136878754Y-46901838D01*
X136878754Y-46901838D02*
X136781992Y-46853457D01*
X136781992Y-46853457D02*
X136588468Y-46853457D01*
X136588468Y-46853457D02*
X136491706Y-46901838D01*
X136491706Y-46901838D02*
X136443325Y-46998600D01*
X136443325Y-46998600D02*
X136443325Y-47095362D01*
X136443325Y-47095362D02*
X136927135Y-47192124D01*
X136007897Y-46853457D02*
X136007897Y-47530790D01*
X136007897Y-46950219D02*
X135959516Y-46901838D01*
X135959516Y-46901838D02*
X135862754Y-46853457D01*
X135862754Y-46853457D02*
X135717611Y-46853457D01*
X135717611Y-46853457D02*
X135620849Y-46901838D01*
X135620849Y-46901838D02*
X135572468Y-46998600D01*
X135572468Y-46998600D02*
X135572468Y-47530790D01*
X135233802Y-46514790D02*
X134653230Y-46514790D01*
X134943516Y-47530790D02*
X134943516Y-46514790D01*
X134314564Y-47530790D02*
X134314564Y-46514790D01*
X133879135Y-47530790D02*
X133879135Y-46998600D01*
X133879135Y-46998600D02*
X133927516Y-46901838D01*
X133927516Y-46901838D02*
X134024278Y-46853457D01*
X134024278Y-46853457D02*
X134169421Y-46853457D01*
X134169421Y-46853457D02*
X134266183Y-46901838D01*
X134266183Y-46901838D02*
X134314564Y-46950219D01*
X133008278Y-47482410D02*
X133105040Y-47530790D01*
X133105040Y-47530790D02*
X133298564Y-47530790D01*
X133298564Y-47530790D02*
X133395326Y-47482410D01*
X133395326Y-47482410D02*
X133443707Y-47385648D01*
X133443707Y-47385648D02*
X133443707Y-46998600D01*
X133443707Y-46998600D02*
X133395326Y-46901838D01*
X133395326Y-46901838D02*
X133298564Y-46853457D01*
X133298564Y-46853457D02*
X133105040Y-46853457D01*
X133105040Y-46853457D02*
X133008278Y-46901838D01*
X133008278Y-46901838D02*
X132959897Y-46998600D01*
X132959897Y-46998600D02*
X132959897Y-47095362D01*
X132959897Y-47095362D02*
X133443707Y-47192124D01*
X132524469Y-47530790D02*
X132524469Y-46853457D01*
X132524469Y-47046981D02*
X132476088Y-46950219D01*
X132476088Y-46950219D02*
X132427707Y-46901838D01*
X132427707Y-46901838D02*
X132330945Y-46853457D01*
X132330945Y-46853457D02*
X132234183Y-46853457D01*
X131895517Y-47530790D02*
X131895517Y-46853457D01*
X131895517Y-46950219D02*
X131847136Y-46901838D01*
X131847136Y-46901838D02*
X131750374Y-46853457D01*
X131750374Y-46853457D02*
X131605231Y-46853457D01*
X131605231Y-46853457D02*
X131508469Y-46901838D01*
X131508469Y-46901838D02*
X131460088Y-46998600D01*
X131460088Y-46998600D02*
X131460088Y-47530790D01*
X131460088Y-46998600D02*
X131411707Y-46901838D01*
X131411707Y-46901838D02*
X131314945Y-46853457D01*
X131314945Y-46853457D02*
X131169802Y-46853457D01*
X131169802Y-46853457D02*
X131073041Y-46901838D01*
X131073041Y-46901838D02*
X131024660Y-46998600D01*
X131024660Y-46998600D02*
X131024660Y-47530790D01*
X130492469Y-47482410D02*
X130492469Y-47530790D01*
X130492469Y-47530790D02*
X130540850Y-47627552D01*
X130540850Y-47627552D02*
X130589231Y-47675933D01*
X129379707Y-46853457D02*
X129137802Y-47530790D01*
X129137802Y-47530790D02*
X128895897Y-46853457D01*
X127976659Y-47530790D02*
X128557231Y-47530790D01*
X128266945Y-47530790D02*
X128266945Y-46514790D01*
X128266945Y-46514790D02*
X128363707Y-46659933D01*
X128363707Y-46659933D02*
X128460469Y-46756695D01*
X128460469Y-46756695D02*
X128557231Y-46805076D01*
X127541231Y-47434029D02*
X127492850Y-47482410D01*
X127492850Y-47482410D02*
X127541231Y-47530790D01*
X127541231Y-47530790D02*
X127589612Y-47482410D01*
X127589612Y-47482410D02*
X127541231Y-47434029D01*
X127541231Y-47434029D02*
X127541231Y-47530790D01*
X126863897Y-46514790D02*
X126767135Y-46514790D01*
X126767135Y-46514790D02*
X126670373Y-46563171D01*
X126670373Y-46563171D02*
X126621992Y-46611552D01*
X126621992Y-46611552D02*
X126573611Y-46708314D01*
X126573611Y-46708314D02*
X126525230Y-46901838D01*
X126525230Y-46901838D02*
X126525230Y-47143743D01*
X126525230Y-47143743D02*
X126573611Y-47337267D01*
X126573611Y-47337267D02*
X126621992Y-47434029D01*
X126621992Y-47434029D02*
X126670373Y-47482410D01*
X126670373Y-47482410D02*
X126767135Y-47530790D01*
X126767135Y-47530790D02*
X126863897Y-47530790D01*
X126863897Y-47530790D02*
X126960659Y-47482410D01*
X126960659Y-47482410D02*
X127009040Y-47434029D01*
X127009040Y-47434029D02*
X127057421Y-47337267D01*
X127057421Y-47337267D02*
X127105802Y-47143743D01*
X127105802Y-47143743D02*
X127105802Y-46901838D01*
X127105802Y-46901838D02*
X127057421Y-46708314D01*
X127057421Y-46708314D02*
X127009040Y-46611552D01*
X127009040Y-46611552D02*
X126960659Y-46563171D01*
X126960659Y-46563171D02*
X126863897Y-46514790D01*
X125557611Y-47530790D02*
X126138183Y-47530790D01*
X125847897Y-47530790D02*
X125847897Y-46514790D01*
X125847897Y-46514790D02*
X125944659Y-46659933D01*
X125944659Y-46659933D02*
X126041421Y-46756695D01*
X126041421Y-46756695D02*
X126138183Y-46805076D01*
X141813611Y-49166493D02*
X141813611Y-48150493D01*
X141813611Y-48150493D02*
X141233039Y-49166493D01*
X141233039Y-49166493D02*
X141233039Y-48150493D01*
X140604087Y-49166493D02*
X140700849Y-49118113D01*
X140700849Y-49118113D02*
X140749230Y-49069732D01*
X140749230Y-49069732D02*
X140797611Y-48972970D01*
X140797611Y-48972970D02*
X140797611Y-48682684D01*
X140797611Y-48682684D02*
X140749230Y-48585922D01*
X140749230Y-48585922D02*
X140700849Y-48537541D01*
X140700849Y-48537541D02*
X140604087Y-48489160D01*
X140604087Y-48489160D02*
X140458944Y-48489160D01*
X140458944Y-48489160D02*
X140362182Y-48537541D01*
X140362182Y-48537541D02*
X140313801Y-48585922D01*
X140313801Y-48585922D02*
X140265420Y-48682684D01*
X140265420Y-48682684D02*
X140265420Y-48972970D01*
X140265420Y-48972970D02*
X140313801Y-49069732D01*
X140313801Y-49069732D02*
X140362182Y-49118113D01*
X140362182Y-49118113D02*
X140458944Y-49166493D01*
X140458944Y-49166493D02*
X140604087Y-49166493D01*
X139926754Y-48489160D02*
X139684849Y-49166493D01*
X139684849Y-49166493D02*
X139442944Y-48489160D01*
X139007516Y-49118113D02*
X139007516Y-49166493D01*
X139007516Y-49166493D02*
X139055897Y-49263255D01*
X139055897Y-49263255D02*
X139104278Y-49311636D01*
X137846373Y-48247255D02*
X137797992Y-48198874D01*
X137797992Y-48198874D02*
X137701230Y-48150493D01*
X137701230Y-48150493D02*
X137459325Y-48150493D01*
X137459325Y-48150493D02*
X137362563Y-48198874D01*
X137362563Y-48198874D02*
X137314182Y-48247255D01*
X137314182Y-48247255D02*
X137265801Y-48344017D01*
X137265801Y-48344017D02*
X137265801Y-48440779D01*
X137265801Y-48440779D02*
X137314182Y-48585922D01*
X137314182Y-48585922D02*
X137894754Y-49166493D01*
X137894754Y-49166493D02*
X137265801Y-49166493D01*
X136636849Y-48150493D02*
X136540087Y-48150493D01*
X136540087Y-48150493D02*
X136443325Y-48198874D01*
X136443325Y-48198874D02*
X136394944Y-48247255D01*
X136394944Y-48247255D02*
X136346563Y-48344017D01*
X136346563Y-48344017D02*
X136298182Y-48537541D01*
X136298182Y-48537541D02*
X136298182Y-48779446D01*
X136298182Y-48779446D02*
X136346563Y-48972970D01*
X136346563Y-48972970D02*
X136394944Y-49069732D01*
X136394944Y-49069732D02*
X136443325Y-49118113D01*
X136443325Y-49118113D02*
X136540087Y-49166493D01*
X136540087Y-49166493D02*
X136636849Y-49166493D01*
X136636849Y-49166493D02*
X136733611Y-49118113D01*
X136733611Y-49118113D02*
X136781992Y-49069732D01*
X136781992Y-49069732D02*
X136830373Y-48972970D01*
X136830373Y-48972970D02*
X136878754Y-48779446D01*
X136878754Y-48779446D02*
X136878754Y-48537541D01*
X136878754Y-48537541D02*
X136830373Y-48344017D01*
X136830373Y-48344017D02*
X136781992Y-48247255D01*
X136781992Y-48247255D02*
X136733611Y-48198874D01*
X136733611Y-48198874D02*
X136636849Y-48150493D01*
X135911135Y-48247255D02*
X135862754Y-48198874D01*
X135862754Y-48198874D02*
X135765992Y-48150493D01*
X135765992Y-48150493D02*
X135524087Y-48150493D01*
X135524087Y-48150493D02*
X135427325Y-48198874D01*
X135427325Y-48198874D02*
X135378944Y-48247255D01*
X135378944Y-48247255D02*
X135330563Y-48344017D01*
X135330563Y-48344017D02*
X135330563Y-48440779D01*
X135330563Y-48440779D02*
X135378944Y-48585922D01*
X135378944Y-48585922D02*
X135959516Y-49166493D01*
X135959516Y-49166493D02*
X135330563Y-49166493D01*
X134459706Y-48489160D02*
X134459706Y-49166493D01*
X134701611Y-48102113D02*
X134943516Y-48827827D01*
X134943516Y-48827827D02*
X134314563Y-48827827D01*
D11*
X136242990Y-110473405D02*
X135468895Y-110473405D01*
D12*
X141441714Y-111306305D02*
X140861143Y-111306305D01*
X141151428Y-111596590D02*
X141151428Y-111016019D01*
X140135428Y-110834590D02*
X140498285Y-110834590D01*
X140498285Y-110834590D02*
X140534571Y-111197447D01*
X140534571Y-111197447D02*
X140498285Y-111161162D01*
X140498285Y-111161162D02*
X140425714Y-111124876D01*
X140425714Y-111124876D02*
X140244285Y-111124876D01*
X140244285Y-111124876D02*
X140171714Y-111161162D01*
X140171714Y-111161162D02*
X140135428Y-111197447D01*
X140135428Y-111197447D02*
X140099142Y-111270019D01*
X140099142Y-111270019D02*
X140099142Y-111451447D01*
X140099142Y-111451447D02*
X140135428Y-111524019D01*
X140135428Y-111524019D02*
X140171714Y-111560305D01*
X140171714Y-111560305D02*
X140244285Y-111596590D01*
X140244285Y-111596590D02*
X140425714Y-111596590D01*
X140425714Y-111596590D02*
X140498285Y-111560305D01*
X140498285Y-111560305D02*
X140534571Y-111524019D01*
X139881428Y-110834590D02*
X139627428Y-111596590D01*
X139627428Y-111596590D02*
X139373428Y-110834590D01*
X139119428Y-111596590D02*
X139119428Y-110834590D01*
X139119428Y-110834590D02*
X138937999Y-110834590D01*
X138937999Y-110834590D02*
X138829142Y-110870876D01*
X138829142Y-110870876D02*
X138756571Y-110943447D01*
X138756571Y-110943447D02*
X138720285Y-111016019D01*
X138720285Y-111016019D02*
X138683999Y-111161162D01*
X138683999Y-111161162D02*
X138683999Y-111270019D01*
X138683999Y-111270019D02*
X138720285Y-111415162D01*
X138720285Y-111415162D02*
X138756571Y-111487733D01*
X138756571Y-111487733D02*
X138829142Y-111560305D01*
X138829142Y-111560305D02*
X138937999Y-111596590D01*
X138937999Y-111596590D02*
X139119428Y-111596590D01*
X137921999Y-111524019D02*
X137958285Y-111560305D01*
X137958285Y-111560305D02*
X138067142Y-111596590D01*
X138067142Y-111596590D02*
X138139714Y-111596590D01*
X138139714Y-111596590D02*
X138248571Y-111560305D01*
X138248571Y-111560305D02*
X138321142Y-111487733D01*
X138321142Y-111487733D02*
X138357428Y-111415162D01*
X138357428Y-111415162D02*
X138393714Y-111270019D01*
X138393714Y-111270019D02*
X138393714Y-111161162D01*
X138393714Y-111161162D02*
X138357428Y-111016019D01*
X138357428Y-111016019D02*
X138321142Y-110943447D01*
X138321142Y-110943447D02*
X138248571Y-110870876D01*
X138248571Y-110870876D02*
X138139714Y-110834590D01*
X138139714Y-110834590D02*
X138067142Y-110834590D01*
X138067142Y-110834590D02*
X137958285Y-110870876D01*
X137958285Y-110870876D02*
X137921999Y-110907162D01*
D11*
X143354990Y-110473405D02*
X142580895Y-110473405D01*
X142967942Y-110860452D02*
X142967942Y-110086357D01*
D13*
X132308599Y-68496544D02*
X132344885Y-68532830D01*
X132344885Y-68532830D02*
X132453742Y-68569115D01*
X132453742Y-68569115D02*
X132526314Y-68569115D01*
X132526314Y-68569115D02*
X132635171Y-68532830D01*
X132635171Y-68532830D02*
X132707742Y-68460258D01*
X132707742Y-68460258D02*
X132744028Y-68387687D01*
X132744028Y-68387687D02*
X132780314Y-68242544D01*
X132780314Y-68242544D02*
X132780314Y-68133687D01*
X132780314Y-68133687D02*
X132744028Y-67988544D01*
X132744028Y-67988544D02*
X132707742Y-67915972D01*
X132707742Y-67915972D02*
X132635171Y-67843401D01*
X132635171Y-67843401D02*
X132526314Y-67807115D01*
X132526314Y-67807115D02*
X132453742Y-67807115D01*
X132453742Y-67807115D02*
X132344885Y-67843401D01*
X132344885Y-67843401D02*
X132308599Y-67879687D01*
X131655457Y-68061115D02*
X131655457Y-68569115D01*
X131836885Y-67770830D02*
X132018314Y-68315115D01*
X132018314Y-68315115D02*
X131546599Y-68315115D01*
D12*
X132359399Y-89777990D02*
X132613399Y-89415133D01*
X132794828Y-89777990D02*
X132794828Y-89015990D01*
X132794828Y-89015990D02*
X132504542Y-89015990D01*
X132504542Y-89015990D02*
X132431971Y-89052276D01*
X132431971Y-89052276D02*
X132395685Y-89088562D01*
X132395685Y-89088562D02*
X132359399Y-89161133D01*
X132359399Y-89161133D02*
X132359399Y-89269990D01*
X132359399Y-89269990D02*
X132395685Y-89342562D01*
X132395685Y-89342562D02*
X132431971Y-89378847D01*
X132431971Y-89378847D02*
X132504542Y-89415133D01*
X132504542Y-89415133D02*
X132794828Y-89415133D01*
X131706257Y-89015990D02*
X131851399Y-89015990D01*
X131851399Y-89015990D02*
X131923971Y-89052276D01*
X131923971Y-89052276D02*
X131960257Y-89088562D01*
X131960257Y-89088562D02*
X132032828Y-89197419D01*
X132032828Y-89197419D02*
X132069114Y-89342562D01*
X132069114Y-89342562D02*
X132069114Y-89632847D01*
X132069114Y-89632847D02*
X132032828Y-89705419D01*
X132032828Y-89705419D02*
X131996542Y-89741705D01*
X131996542Y-89741705D02*
X131923971Y-89777990D01*
X131923971Y-89777990D02*
X131778828Y-89777990D01*
X131778828Y-89777990D02*
X131706257Y-89741705D01*
X131706257Y-89741705D02*
X131669971Y-89705419D01*
X131669971Y-89705419D02*
X131633685Y-89632847D01*
X131633685Y-89632847D02*
X131633685Y-89451419D01*
X131633685Y-89451419D02*
X131669971Y-89378847D01*
X131669971Y-89378847D02*
X131706257Y-89342562D01*
X131706257Y-89342562D02*
X131778828Y-89306276D01*
X131778828Y-89306276D02*
X131923971Y-89306276D01*
X131923971Y-89306276D02*
X131996542Y-89342562D01*
X131996542Y-89342562D02*
X132032828Y-89378847D01*
X132032828Y-89378847D02*
X132069114Y-89451419D01*
D13*
X132460999Y-70579344D02*
X132497285Y-70615630D01*
X132497285Y-70615630D02*
X132606142Y-70651915D01*
X132606142Y-70651915D02*
X132678714Y-70651915D01*
X132678714Y-70651915D02*
X132787571Y-70615630D01*
X132787571Y-70615630D02*
X132860142Y-70543058D01*
X132860142Y-70543058D02*
X132896428Y-70470487D01*
X132896428Y-70470487D02*
X132932714Y-70325344D01*
X132932714Y-70325344D02*
X132932714Y-70216487D01*
X132932714Y-70216487D02*
X132896428Y-70071344D01*
X132896428Y-70071344D02*
X132860142Y-69998772D01*
X132860142Y-69998772D02*
X132787571Y-69926201D01*
X132787571Y-69926201D02*
X132678714Y-69889915D01*
X132678714Y-69889915D02*
X132606142Y-69889915D01*
X132606142Y-69889915D02*
X132497285Y-69926201D01*
X132497285Y-69926201D02*
X132460999Y-69962487D01*
X132206999Y-69889915D02*
X131735285Y-69889915D01*
X131735285Y-69889915D02*
X131989285Y-70180201D01*
X131989285Y-70180201D02*
X131880428Y-70180201D01*
X131880428Y-70180201D02*
X131807857Y-70216487D01*
X131807857Y-70216487D02*
X131771571Y-70252772D01*
X131771571Y-70252772D02*
X131735285Y-70325344D01*
X131735285Y-70325344D02*
X131735285Y-70506772D01*
X131735285Y-70506772D02*
X131771571Y-70579344D01*
X131771571Y-70579344D02*
X131807857Y-70615630D01*
X131807857Y-70615630D02*
X131880428Y-70651915D01*
X131880428Y-70651915D02*
X132098142Y-70651915D01*
X132098142Y-70651915D02*
X132170714Y-70615630D01*
X132170714Y-70615630D02*
X132206999Y-70579344D01*
X140233399Y-104666144D02*
X140269685Y-104702430D01*
X140269685Y-104702430D02*
X140378542Y-104738715D01*
X140378542Y-104738715D02*
X140451114Y-104738715D01*
X140451114Y-104738715D02*
X140559971Y-104702430D01*
X140559971Y-104702430D02*
X140632542Y-104629858D01*
X140632542Y-104629858D02*
X140668828Y-104557287D01*
X140668828Y-104557287D02*
X140705114Y-104412144D01*
X140705114Y-104412144D02*
X140705114Y-104303287D01*
X140705114Y-104303287D02*
X140668828Y-104158144D01*
X140668828Y-104158144D02*
X140632542Y-104085572D01*
X140632542Y-104085572D02*
X140559971Y-104013001D01*
X140559971Y-104013001D02*
X140451114Y-103976715D01*
X140451114Y-103976715D02*
X140378542Y-103976715D01*
X140378542Y-103976715D02*
X140269685Y-104013001D01*
X140269685Y-104013001D02*
X140233399Y-104049287D01*
X139507685Y-104738715D02*
X139943114Y-104738715D01*
X139725399Y-104738715D02*
X139725399Y-103976715D01*
X139725399Y-103976715D02*
X139797971Y-104085572D01*
X139797971Y-104085572D02*
X139870542Y-104158144D01*
X139870542Y-104158144D02*
X139943114Y-104194430D01*
X127330199Y-93308715D02*
X127584199Y-92945858D01*
X127765628Y-93308715D02*
X127765628Y-92546715D01*
X127765628Y-92546715D02*
X127475342Y-92546715D01*
X127475342Y-92546715D02*
X127402771Y-92583001D01*
X127402771Y-92583001D02*
X127366485Y-92619287D01*
X127366485Y-92619287D02*
X127330199Y-92691858D01*
X127330199Y-92691858D02*
X127330199Y-92800715D01*
X127330199Y-92800715D02*
X127366485Y-92873287D01*
X127366485Y-92873287D02*
X127402771Y-92909572D01*
X127402771Y-92909572D02*
X127475342Y-92945858D01*
X127475342Y-92945858D02*
X127765628Y-92945858D01*
X126604485Y-93308715D02*
X127039914Y-93308715D01*
X126822199Y-93308715D02*
X126822199Y-92546715D01*
X126822199Y-92546715D02*
X126894771Y-92655572D01*
X126894771Y-92655572D02*
X126967342Y-92728144D01*
X126967342Y-92728144D02*
X127039914Y-92764430D01*
X126822199Y-88685915D02*
X127076199Y-88323058D01*
X127257628Y-88685915D02*
X127257628Y-87923915D01*
X127257628Y-87923915D02*
X126967342Y-87923915D01*
X126967342Y-87923915D02*
X126894771Y-87960201D01*
X126894771Y-87960201D02*
X126858485Y-87996487D01*
X126858485Y-87996487D02*
X126822199Y-88069058D01*
X126822199Y-88069058D02*
X126822199Y-88177915D01*
X126822199Y-88177915D02*
X126858485Y-88250487D01*
X126858485Y-88250487D02*
X126894771Y-88286772D01*
X126894771Y-88286772D02*
X126967342Y-88323058D01*
X126967342Y-88323058D02*
X127257628Y-88323058D01*
X126169057Y-88177915D02*
X126169057Y-88685915D01*
X126350485Y-87887630D02*
X126531914Y-88431915D01*
X126531914Y-88431915D02*
X126060199Y-88431915D01*
X132934999Y-100674715D02*
X133188999Y-100311858D01*
X133370428Y-100674715D02*
X133370428Y-99912715D01*
X133370428Y-99912715D02*
X133080142Y-99912715D01*
X133080142Y-99912715D02*
X133007571Y-99949001D01*
X133007571Y-99949001D02*
X132971285Y-99985287D01*
X132971285Y-99985287D02*
X132934999Y-100057858D01*
X132934999Y-100057858D02*
X132934999Y-100166715D01*
X132934999Y-100166715D02*
X132971285Y-100239287D01*
X132971285Y-100239287D02*
X133007571Y-100275572D01*
X133007571Y-100275572D02*
X133080142Y-100311858D01*
X133080142Y-100311858D02*
X133370428Y-100311858D01*
X132680999Y-99912715D02*
X132209285Y-99912715D01*
X132209285Y-99912715D02*
X132463285Y-100203001D01*
X132463285Y-100203001D02*
X132354428Y-100203001D01*
X132354428Y-100203001D02*
X132281857Y-100239287D01*
X132281857Y-100239287D02*
X132245571Y-100275572D01*
X132245571Y-100275572D02*
X132209285Y-100348144D01*
X132209285Y-100348144D02*
X132209285Y-100529572D01*
X132209285Y-100529572D02*
X132245571Y-100602144D01*
X132245571Y-100602144D02*
X132281857Y-100638430D01*
X132281857Y-100638430D02*
X132354428Y-100674715D01*
X132354428Y-100674715D02*
X132572142Y-100674715D01*
X132572142Y-100674715D02*
X132644714Y-100638430D01*
X132644714Y-100638430D02*
X132680999Y-100602144D01*
X133066971Y-94422687D02*
X133139542Y-94386401D01*
X133139542Y-94386401D02*
X133212114Y-94313830D01*
X133212114Y-94313830D02*
X133320971Y-94204972D01*
X133320971Y-94204972D02*
X133393542Y-94168687D01*
X133393542Y-94168687D02*
X133466114Y-94168687D01*
X133429828Y-94350115D02*
X133502400Y-94313830D01*
X133502400Y-94313830D02*
X133574971Y-94241258D01*
X133574971Y-94241258D02*
X133611257Y-94096115D01*
X133611257Y-94096115D02*
X133611257Y-93842115D01*
X133611257Y-93842115D02*
X133574971Y-93696972D01*
X133574971Y-93696972D02*
X133502400Y-93624401D01*
X133502400Y-93624401D02*
X133429828Y-93588115D01*
X133429828Y-93588115D02*
X133284685Y-93588115D01*
X133284685Y-93588115D02*
X133212114Y-93624401D01*
X133212114Y-93624401D02*
X133139542Y-93696972D01*
X133139542Y-93696972D02*
X133103257Y-93842115D01*
X133103257Y-93842115D02*
X133103257Y-94096115D01*
X133103257Y-94096115D02*
X133139542Y-94241258D01*
X133139542Y-94241258D02*
X133212114Y-94313830D01*
X133212114Y-94313830D02*
X133284685Y-94350115D01*
X133284685Y-94350115D02*
X133429828Y-94350115D01*
X132377542Y-94350115D02*
X132812971Y-94350115D01*
X132595256Y-94350115D02*
X132595256Y-93588115D01*
X132595256Y-93588115D02*
X132667828Y-93696972D01*
X132667828Y-93696972D02*
X132740399Y-93769544D01*
X132740399Y-93769544D02*
X132812971Y-93805830D01*
X138861799Y-101770544D02*
X138898085Y-101806830D01*
X138898085Y-101806830D02*
X139006942Y-101843115D01*
X139006942Y-101843115D02*
X139079514Y-101843115D01*
X139079514Y-101843115D02*
X139188371Y-101806830D01*
X139188371Y-101806830D02*
X139260942Y-101734258D01*
X139260942Y-101734258D02*
X139297228Y-101661687D01*
X139297228Y-101661687D02*
X139333514Y-101516544D01*
X139333514Y-101516544D02*
X139333514Y-101407687D01*
X139333514Y-101407687D02*
X139297228Y-101262544D01*
X139297228Y-101262544D02*
X139260942Y-101189972D01*
X139260942Y-101189972D02*
X139188371Y-101117401D01*
X139188371Y-101117401D02*
X139079514Y-101081115D01*
X139079514Y-101081115D02*
X139006942Y-101081115D01*
X139006942Y-101081115D02*
X138898085Y-101117401D01*
X138898085Y-101117401D02*
X138861799Y-101153687D01*
X138571514Y-101153687D02*
X138535228Y-101117401D01*
X138535228Y-101117401D02*
X138462657Y-101081115D01*
X138462657Y-101081115D02*
X138281228Y-101081115D01*
X138281228Y-101081115D02*
X138208657Y-101117401D01*
X138208657Y-101117401D02*
X138172371Y-101153687D01*
X138172371Y-101153687D02*
X138136085Y-101226258D01*
X138136085Y-101226258D02*
X138136085Y-101298830D01*
X138136085Y-101298830D02*
X138172371Y-101407687D01*
X138172371Y-101407687D02*
X138607799Y-101843115D01*
X138607799Y-101843115D02*
X138136085Y-101843115D01*
X130987799Y-97880715D02*
X131241799Y-97517858D01*
X131423228Y-97880715D02*
X131423228Y-97118715D01*
X131423228Y-97118715D02*
X131132942Y-97118715D01*
X131132942Y-97118715D02*
X131060371Y-97155001D01*
X131060371Y-97155001D02*
X131024085Y-97191287D01*
X131024085Y-97191287D02*
X130987799Y-97263858D01*
X130987799Y-97263858D02*
X130987799Y-97372715D01*
X130987799Y-97372715D02*
X131024085Y-97445287D01*
X131024085Y-97445287D02*
X131060371Y-97481572D01*
X131060371Y-97481572D02*
X131132942Y-97517858D01*
X131132942Y-97517858D02*
X131423228Y-97517858D01*
X130697514Y-97191287D02*
X130661228Y-97155001D01*
X130661228Y-97155001D02*
X130588657Y-97118715D01*
X130588657Y-97118715D02*
X130407228Y-97118715D01*
X130407228Y-97118715D02*
X130334657Y-97155001D01*
X130334657Y-97155001D02*
X130298371Y-97191287D01*
X130298371Y-97191287D02*
X130262085Y-97263858D01*
X130262085Y-97263858D02*
X130262085Y-97336430D01*
X130262085Y-97336430D02*
X130298371Y-97445287D01*
X130298371Y-97445287D02*
X130733799Y-97880715D01*
X130733799Y-97880715D02*
X130262085Y-97880715D01*
X136474199Y-89346315D02*
X136728199Y-88983458D01*
X136909628Y-89346315D02*
X136909628Y-88584315D01*
X136909628Y-88584315D02*
X136619342Y-88584315D01*
X136619342Y-88584315D02*
X136546771Y-88620601D01*
X136546771Y-88620601D02*
X136510485Y-88656887D01*
X136510485Y-88656887D02*
X136474199Y-88729458D01*
X136474199Y-88729458D02*
X136474199Y-88838315D01*
X136474199Y-88838315D02*
X136510485Y-88910887D01*
X136510485Y-88910887D02*
X136546771Y-88947172D01*
X136546771Y-88947172D02*
X136619342Y-88983458D01*
X136619342Y-88983458D02*
X136909628Y-88983458D01*
X136220199Y-88584315D02*
X135712199Y-88584315D01*
X135712199Y-88584315D02*
X136038771Y-89346315D01*
X136296399Y-92241915D02*
X136550399Y-91879058D01*
X136731828Y-92241915D02*
X136731828Y-91479915D01*
X136731828Y-91479915D02*
X136441542Y-91479915D01*
X136441542Y-91479915D02*
X136368971Y-91516201D01*
X136368971Y-91516201D02*
X136332685Y-91552487D01*
X136332685Y-91552487D02*
X136296399Y-91625058D01*
X136296399Y-91625058D02*
X136296399Y-91733915D01*
X136296399Y-91733915D02*
X136332685Y-91806487D01*
X136332685Y-91806487D02*
X136368971Y-91842772D01*
X136368971Y-91842772D02*
X136441542Y-91879058D01*
X136441542Y-91879058D02*
X136731828Y-91879058D01*
X135606971Y-91479915D02*
X135969828Y-91479915D01*
X135969828Y-91479915D02*
X136006114Y-91842772D01*
X136006114Y-91842772D02*
X135969828Y-91806487D01*
X135969828Y-91806487D02*
X135897257Y-91770201D01*
X135897257Y-91770201D02*
X135715828Y-91770201D01*
X135715828Y-91770201D02*
X135643257Y-91806487D01*
X135643257Y-91806487D02*
X135606971Y-91842772D01*
X135606971Y-91842772D02*
X135570685Y-91915344D01*
X135570685Y-91915344D02*
X135570685Y-92096772D01*
X135570685Y-92096772D02*
X135606971Y-92169344D01*
X135606971Y-92169344D02*
X135643257Y-92205630D01*
X135643257Y-92205630D02*
X135715828Y-92241915D01*
X135715828Y-92241915D02*
X135897257Y-92241915D01*
X135897257Y-92241915D02*
X135969828Y-92205630D01*
X135969828Y-92205630D02*
X136006114Y-92169344D01*
D14*
X128038829Y-53005097D02*
X128098753Y-53027355D01*
X128123673Y-53044080D01*
X128148910Y-53068043D01*
X128166912Y-53098526D01*
X128178858Y-53140023D01*
X128185930Y-53197032D01*
X128189308Y-53274047D01*
X128190171Y-53375565D01*
X128190002Y-53428027D01*
X128189153Y-53499715D01*
X128187711Y-53556925D01*
X128185814Y-53594809D01*
X128183597Y-53608514D01*
X128169172Y-53603981D01*
X128140054Y-53591670D01*
X128139181Y-53591272D01*
X128124060Y-53583356D01*
X128113891Y-53572495D01*
X128107691Y-53553471D01*
X128104478Y-53521069D01*
X128103270Y-53470071D01*
X128103086Y-53395261D01*
X128102714Y-53347804D01*
X128098750Y-53258615D01*
X128089673Y-53193287D01*
X128074524Y-53148393D01*
X128052345Y-53120507D01*
X128022175Y-53106203D01*
X128017990Y-53105206D01*
X127961480Y-53104427D01*
X127917410Y-53129744D01*
X127886972Y-53180502D01*
X127881544Y-53195175D01*
X127869171Y-53227649D01*
X127862905Y-53242572D01*
X127850036Y-53240516D01*
X127821933Y-53229357D01*
X127795721Y-53210927D01*
X127783771Y-53176098D01*
X127787336Y-53151151D01*
X127809235Y-53100547D01*
X127844644Y-53053128D01*
X127886052Y-53020334D01*
X127903400Y-53012752D01*
X127969089Y-53000076D01*
X128038829Y-53005097D01*
G36*
X128038829Y-53005097D02*
G01*
X128098753Y-53027355D01*
X128123673Y-53044080D01*
X128148910Y-53068043D01*
X128166912Y-53098526D01*
X128178858Y-53140023D01*
X128185930Y-53197032D01*
X128189308Y-53274047D01*
X128190171Y-53375565D01*
X128190002Y-53428027D01*
X128189153Y-53499715D01*
X128187711Y-53556925D01*
X128185814Y-53594809D01*
X128183597Y-53608514D01*
X128169172Y-53603981D01*
X128140054Y-53591670D01*
X128139181Y-53591272D01*
X128124060Y-53583356D01*
X128113891Y-53572495D01*
X128107691Y-53553471D01*
X128104478Y-53521069D01*
X128103270Y-53470071D01*
X128103086Y-53395261D01*
X128102714Y-53347804D01*
X128098750Y-53258615D01*
X128089673Y-53193287D01*
X128074524Y-53148393D01*
X128052345Y-53120507D01*
X128022175Y-53106203D01*
X128017990Y-53105206D01*
X127961480Y-53104427D01*
X127917410Y-53129744D01*
X127886972Y-53180502D01*
X127881544Y-53195175D01*
X127869171Y-53227649D01*
X127862905Y-53242572D01*
X127850036Y-53240516D01*
X127821933Y-53229357D01*
X127795721Y-53210927D01*
X127783771Y-53176098D01*
X127787336Y-53151151D01*
X127809235Y-53100547D01*
X127844644Y-53053128D01*
X127886052Y-53020334D01*
X127903400Y-53012752D01*
X127969089Y-53000076D01*
X128038829Y-53005097D01*
G37*
X131987020Y-52971822D02*
X132054810Y-53003680D01*
X132110366Y-53058770D01*
X132121881Y-53076016D01*
X132131432Y-53095562D01*
X132138206Y-53120198D01*
X132142819Y-53154711D01*
X132145888Y-53203889D01*
X132148029Y-53272519D01*
X132149859Y-53365389D01*
X132154404Y-53623007D01*
X132116225Y-53608491D01*
X132081268Y-53595156D01*
X132055097Y-53582323D01*
X132038013Y-53565780D01*
X132028086Y-53540465D01*
X132023386Y-53501316D01*
X132021982Y-53443268D01*
X132021943Y-53361261D01*
X132021744Y-53295895D01*
X132020559Y-53233173D01*
X132017729Y-53190334D01*
X132012609Y-53162220D01*
X132004553Y-53143675D01*
X131992914Y-53129543D01*
X131964303Y-53109600D01*
X131916239Y-53102083D01*
X131868688Y-53121079D01*
X131865550Y-53123511D01*
X131855769Y-53134748D01*
X131848553Y-53152770D01*
X131843299Y-53182026D01*
X131839402Y-53226962D01*
X131836256Y-53292028D01*
X131833257Y-53381670D01*
X131826000Y-53621697D01*
X131764314Y-53594044D01*
X131702629Y-53566391D01*
X131702629Y-53347246D01*
X131702884Y-53287711D01*
X131705086Y-53204892D01*
X131710661Y-53143227D01*
X131720941Y-53097748D01*
X131737258Y-53063484D01*
X131760943Y-53035466D01*
X131793328Y-53008723D01*
X131839907Y-52981780D01*
X131913287Y-52964191D01*
X131987020Y-52971822D01*
G36*
X131987020Y-52971822D02*
G01*
X132054810Y-53003680D01*
X132110366Y-53058770D01*
X132121881Y-53076016D01*
X132131432Y-53095562D01*
X132138206Y-53120198D01*
X132142819Y-53154711D01*
X132145888Y-53203889D01*
X132148029Y-53272519D01*
X132149859Y-53365389D01*
X132154404Y-53623007D01*
X132116225Y-53608491D01*
X132081268Y-53595156D01*
X132055097Y-53582323D01*
X132038013Y-53565780D01*
X132028086Y-53540465D01*
X132023386Y-53501316D01*
X132021982Y-53443268D01*
X132021943Y-53361261D01*
X132021744Y-53295895D01*
X132020559Y-53233173D01*
X132017729Y-53190334D01*
X132012609Y-53162220D01*
X132004553Y-53143675D01*
X131992914Y-53129543D01*
X131964303Y-53109600D01*
X131916239Y-53102083D01*
X131868688Y-53121079D01*
X131865550Y-53123511D01*
X131855769Y-53134748D01*
X131848553Y-53152770D01*
X131843299Y-53182026D01*
X131839402Y-53226962D01*
X131836256Y-53292028D01*
X131833257Y-53381670D01*
X131826000Y-53621697D01*
X131764314Y-53594044D01*
X131702629Y-53566391D01*
X131702629Y-53347246D01*
X131702884Y-53287711D01*
X131705086Y-53204892D01*
X131710661Y-53143227D01*
X131720941Y-53097748D01*
X131737258Y-53063484D01*
X131760943Y-53035466D01*
X131793328Y-53008723D01*
X131839907Y-52981780D01*
X131913287Y-52964191D01*
X131987020Y-52971822D01*
G37*
X130163691Y-53020467D02*
X130168273Y-53023003D01*
X130205704Y-53052057D01*
X130239170Y-53089410D01*
X130245007Y-53097852D01*
X130256165Y-53117553D01*
X130264136Y-53140935D01*
X130269618Y-53173067D01*
X130273307Y-53219019D01*
X130275899Y-53283859D01*
X130278092Y-53372657D01*
X130278402Y-53387669D01*
X130279400Y-53484999D01*
X130277994Y-53553934D01*
X130274164Y-53594948D01*
X130267889Y-53608514D01*
X130248898Y-53604452D01*
X130216638Y-53592144D01*
X130209041Y-53588545D01*
X130197176Y-53580398D01*
X130188994Y-53567004D01*
X130183643Y-53543608D01*
X130180269Y-53505455D01*
X130178019Y-53447790D01*
X130176040Y-53365857D01*
X130175498Y-53341907D01*
X130173403Y-53266266D01*
X130170683Y-53213328D01*
X130166515Y-53178075D01*
X130160079Y-53155487D01*
X130150550Y-53140544D01*
X130137106Y-53128227D01*
X130097305Y-53106634D01*
X130048341Y-53102476D01*
X130004529Y-53118999D01*
X129973008Y-53153210D01*
X129960914Y-53202114D01*
X129960578Y-53215407D01*
X129953972Y-53239472D01*
X129934470Y-53243144D01*
X129896283Y-53228813D01*
X129887438Y-53224217D01*
X129863534Y-53197186D01*
X129863061Y-53156994D01*
X129885836Y-53101409D01*
X129906727Y-53071117D01*
X129960142Y-53028084D01*
X130026074Y-53003755D01*
X130096574Y-53000443D01*
X130163691Y-53020467D01*
G36*
X130163691Y-53020467D02*
G01*
X130168273Y-53023003D01*
X130205704Y-53052057D01*
X130239170Y-53089410D01*
X130245007Y-53097852D01*
X130256165Y-53117553D01*
X130264136Y-53140935D01*
X130269618Y-53173067D01*
X130273307Y-53219019D01*
X130275899Y-53283859D01*
X130278092Y-53372657D01*
X130278402Y-53387669D01*
X130279400Y-53484999D01*
X130277994Y-53553934D01*
X130274164Y-53594948D01*
X130267889Y-53608514D01*
X130248898Y-53604452D01*
X130216638Y-53592144D01*
X130209041Y-53588545D01*
X130197176Y-53580398D01*
X130188994Y-53567004D01*
X130183643Y-53543608D01*
X130180269Y-53505455D01*
X130178019Y-53447790D01*
X130176040Y-53365857D01*
X130175498Y-53341907D01*
X130173403Y-53266266D01*
X130170683Y-53213328D01*
X130166515Y-53178075D01*
X130160079Y-53155487D01*
X130150550Y-53140544D01*
X130137106Y-53128227D01*
X130097305Y-53106634D01*
X130048341Y-53102476D01*
X130004529Y-53118999D01*
X129973008Y-53153210D01*
X129960914Y-53202114D01*
X129960578Y-53215407D01*
X129953972Y-53239472D01*
X129934470Y-53243144D01*
X129896283Y-53228813D01*
X129887438Y-53224217D01*
X129863534Y-53197186D01*
X129863061Y-53156994D01*
X129885836Y-53101409D01*
X129906727Y-53071117D01*
X129960142Y-53028084D01*
X130026074Y-53003755D01*
X130096574Y-53000443D01*
X130163691Y-53020467D01*
G37*
X131234543Y-52803444D02*
X131281714Y-52823342D01*
X131281714Y-53220509D01*
X131281519Y-53323498D01*
X131280998Y-53416141D01*
X131280199Y-53494700D01*
X131279172Y-53555439D01*
X131277963Y-53594623D01*
X131276623Y-53608514D01*
X131276099Y-53608468D01*
X131258287Y-53603420D01*
X131225823Y-53592580D01*
X131180114Y-53576646D01*
X131180114Y-53372173D01*
X131179824Y-53291832D01*
X131178474Y-53233562D01*
X131175369Y-53193909D01*
X131169812Y-53167618D01*
X131161107Y-53149436D01*
X131148556Y-53134107D01*
X131139999Y-53125955D01*
X131093728Y-53103375D01*
X131042728Y-53105375D01*
X130995993Y-53132073D01*
X130989189Y-53138698D01*
X130978293Y-53152456D01*
X130970836Y-53170642D01*
X130966169Y-53198177D01*
X130963642Y-53239981D01*
X130962602Y-53300973D01*
X130962400Y-53386073D01*
X130962303Y-53429234D01*
X130961674Y-53500224D01*
X130960556Y-53557076D01*
X130959063Y-53594828D01*
X130957309Y-53608514D01*
X130956785Y-53608468D01*
X130938973Y-53603420D01*
X130906509Y-53592580D01*
X130860800Y-53576646D01*
X130860823Y-53371237D01*
X130860857Y-53352951D01*
X130862778Y-53257626D01*
X130868678Y-53185543D01*
X130880001Y-53131813D01*
X130898187Y-53091549D01*
X130924679Y-53059861D01*
X130960918Y-53031861D01*
X130996263Y-53014333D01*
X131052773Y-53000785D01*
X131108356Y-53000015D01*
X131151086Y-53013195D01*
X131154298Y-53015015D01*
X131164205Y-53014820D01*
X131170975Y-52999572D01*
X131175861Y-52964613D01*
X131180114Y-52905289D01*
X131187371Y-52783547D01*
X131234543Y-52803444D01*
G36*
X131234543Y-52803444D02*
G01*
X131281714Y-52823342D01*
X131281714Y-53220509D01*
X131281519Y-53323498D01*
X131280998Y-53416141D01*
X131280199Y-53494700D01*
X131279172Y-53555439D01*
X131277963Y-53594623D01*
X131276623Y-53608514D01*
X131276099Y-53608468D01*
X131258287Y-53603420D01*
X131225823Y-53592580D01*
X131180114Y-53576646D01*
X131180114Y-53372173D01*
X131179824Y-53291832D01*
X131178474Y-53233562D01*
X131175369Y-53193909D01*
X131169812Y-53167618D01*
X131161107Y-53149436D01*
X131148556Y-53134107D01*
X131139999Y-53125955D01*
X131093728Y-53103375D01*
X131042728Y-53105375D01*
X130995993Y-53132073D01*
X130989189Y-53138698D01*
X130978293Y-53152456D01*
X130970836Y-53170642D01*
X130966169Y-53198177D01*
X130963642Y-53239981D01*
X130962602Y-53300973D01*
X130962400Y-53386073D01*
X130962303Y-53429234D01*
X130961674Y-53500224D01*
X130960556Y-53557076D01*
X130959063Y-53594828D01*
X130957309Y-53608514D01*
X130956785Y-53608468D01*
X130938973Y-53603420D01*
X130906509Y-53592580D01*
X130860800Y-53576646D01*
X130860823Y-53371237D01*
X130860857Y-53352951D01*
X130862778Y-53257626D01*
X130868678Y-53185543D01*
X130880001Y-53131813D01*
X130898187Y-53091549D01*
X130924679Y-53059861D01*
X130960918Y-53031861D01*
X130996263Y-53014333D01*
X131052773Y-53000785D01*
X131108356Y-53000015D01*
X131151086Y-53013195D01*
X131154298Y-53015015D01*
X131164205Y-53014820D01*
X131170975Y-52999572D01*
X131175861Y-52964613D01*
X131180114Y-52905289D01*
X131187371Y-52783547D01*
X131234543Y-52803444D01*
G37*
X129209941Y-53003282D02*
X129241774Y-53015758D01*
X129278743Y-53032602D01*
X129278743Y-53519196D01*
X129232812Y-53565127D01*
X129222320Y-53575427D01*
X129193255Y-53598320D01*
X129163943Y-53605735D01*
X129120326Y-53602321D01*
X129102568Y-53600114D01*
X129056767Y-53595445D01*
X129024743Y-53593585D01*
X129015244Y-53593869D01*
X128976274Y-53596948D01*
X128929160Y-53602321D01*
X128914085Y-53604168D01*
X128876110Y-53604893D01*
X128848325Y-53593429D01*
X128816674Y-53565127D01*
X128770743Y-53519196D01*
X128770743Y-53259055D01*
X128771101Y-53182180D01*
X128772216Y-53108886D01*
X128773952Y-53050850D01*
X128776167Y-53012663D01*
X128778721Y-52998914D01*
X128779256Y-52998951D01*
X128797808Y-53005793D01*
X128829153Y-53020868D01*
X128871608Y-53042822D01*
X128875604Y-53271240D01*
X128879600Y-53499657D01*
X128966686Y-53499657D01*
X128970657Y-53249286D01*
X128971916Y-53181227D01*
X128973718Y-53108482D01*
X128975671Y-53050730D01*
X128977612Y-53012648D01*
X128979377Y-52998914D01*
X128979885Y-52998962D01*
X128997482Y-53004015D01*
X129029834Y-53014849D01*
X129075543Y-53030783D01*
X129075765Y-53250706D01*
X129075988Y-53288909D01*
X129077531Y-53363146D01*
X129080292Y-53425145D01*
X129083977Y-53469308D01*
X129088292Y-53490041D01*
X129103732Y-53501131D01*
X129135241Y-53504556D01*
X129169886Y-53499657D01*
X129173857Y-53249286D01*
X129175278Y-53185663D01*
X129178225Y-53110356D01*
X129182079Y-53051286D01*
X129186542Y-53012718D01*
X129191317Y-52998914D01*
X129209941Y-53003282D01*
G36*
X129209941Y-53003282D02*
G01*
X129241774Y-53015758D01*
X129278743Y-53032602D01*
X129278743Y-53519196D01*
X129232812Y-53565127D01*
X129222320Y-53575427D01*
X129193255Y-53598320D01*
X129163943Y-53605735D01*
X129120326Y-53602321D01*
X129102568Y-53600114D01*
X129056767Y-53595445D01*
X129024743Y-53593585D01*
X129015244Y-53593869D01*
X128976274Y-53596948D01*
X128929160Y-53602321D01*
X128914085Y-53604168D01*
X128876110Y-53604893D01*
X128848325Y-53593429D01*
X128816674Y-53565127D01*
X128770743Y-53519196D01*
X128770743Y-53259055D01*
X128771101Y-53182180D01*
X128772216Y-53108886D01*
X128773952Y-53050850D01*
X128776167Y-53012663D01*
X128778721Y-52998914D01*
X128779256Y-52998951D01*
X128797808Y-53005793D01*
X128829153Y-53020868D01*
X128871608Y-53042822D01*
X128875604Y-53271240D01*
X128879600Y-53499657D01*
X128966686Y-53499657D01*
X128970657Y-53249286D01*
X128971916Y-53181227D01*
X128973718Y-53108482D01*
X128975671Y-53050730D01*
X128977612Y-53012648D01*
X128979377Y-52998914D01*
X128979885Y-52998962D01*
X128997482Y-53004015D01*
X129029834Y-53014849D01*
X129075543Y-53030783D01*
X129075765Y-53250706D01*
X129075988Y-53288909D01*
X129077531Y-53363146D01*
X129080292Y-53425145D01*
X129083977Y-53469308D01*
X129088292Y-53490041D01*
X129103732Y-53501131D01*
X129135241Y-53504556D01*
X129169886Y-53499657D01*
X129173857Y-53249286D01*
X129175278Y-53185663D01*
X129178225Y-53110356D01*
X129182079Y-53051286D01*
X129186542Y-53012718D01*
X129191317Y-52998914D01*
X129209941Y-53003282D01*
G37*
X133821714Y-53289200D02*
X133821701Y-53304935D01*
X133820914Y-53375119D01*
X133818210Y-53424022D01*
X133812606Y-53458178D01*
X133803119Y-53484124D01*
X133788768Y-53508397D01*
X133785237Y-53513433D01*
X133747878Y-53553143D01*
X133705311Y-53583092D01*
X133683452Y-53592810D01*
X133604908Y-53609020D01*
X133527231Y-53598535D01*
X133455645Y-53562707D01*
X133395374Y-53502887D01*
X133390286Y-53494873D01*
X133373730Y-53448342D01*
X133362573Y-53383552D01*
X133357160Y-53308727D01*
X133357768Y-53239513D01*
X133504248Y-53239513D01*
X133505402Y-53335399D01*
X133505866Y-53341569D01*
X133512629Y-53394478D01*
X133524671Y-53428029D01*
X133545005Y-53451016D01*
X133579097Y-53472548D01*
X133612814Y-53473680D01*
X133647543Y-53448857D01*
X133653584Y-53442325D01*
X133665417Y-53422779D01*
X133672404Y-53394386D01*
X133675727Y-53350430D01*
X133676571Y-53284192D01*
X133675125Y-53222150D01*
X133667907Y-53163042D01*
X133653006Y-53125686D01*
X133628636Y-53106152D01*
X133593008Y-53100514D01*
X133579440Y-53101635D01*
X133541430Y-53122194D01*
X133516312Y-53168299D01*
X133504248Y-53239513D01*
X133357768Y-53239513D01*
X133357833Y-53232096D01*
X133364937Y-53161882D01*
X133378815Y-53106312D01*
X133396649Y-53069301D01*
X133446855Y-53011733D01*
X133514885Y-52975962D01*
X133598158Y-52963665D01*
X133620398Y-52964331D01*
X133685891Y-52977947D01*
X133739687Y-53012249D01*
X133789057Y-53071338D01*
X133791995Y-53075722D01*
X133805287Y-53099299D01*
X133813932Y-53125949D01*
X133818904Y-53162159D01*
X133821174Y-53214413D01*
X133821678Y-53284192D01*
X133821714Y-53289200D01*
G36*
X133821714Y-53289200D02*
G01*
X133821701Y-53304935D01*
X133820914Y-53375119D01*
X133818210Y-53424022D01*
X133812606Y-53458178D01*
X133803119Y-53484124D01*
X133788768Y-53508397D01*
X133785237Y-53513433D01*
X133747878Y-53553143D01*
X133705311Y-53583092D01*
X133683452Y-53592810D01*
X133604908Y-53609020D01*
X133527231Y-53598535D01*
X133455645Y-53562707D01*
X133395374Y-53502887D01*
X133390286Y-53494873D01*
X133373730Y-53448342D01*
X133362573Y-53383552D01*
X133357160Y-53308727D01*
X133357768Y-53239513D01*
X133504248Y-53239513D01*
X133505402Y-53335399D01*
X133505866Y-53341569D01*
X133512629Y-53394478D01*
X133524671Y-53428029D01*
X133545005Y-53451016D01*
X133579097Y-53472548D01*
X133612814Y-53473680D01*
X133647543Y-53448857D01*
X133653584Y-53442325D01*
X133665417Y-53422779D01*
X133672404Y-53394386D01*
X133675727Y-53350430D01*
X133676571Y-53284192D01*
X133675125Y-53222150D01*
X133667907Y-53163042D01*
X133653006Y-53125686D01*
X133628636Y-53106152D01*
X133593008Y-53100514D01*
X133579440Y-53101635D01*
X133541430Y-53122194D01*
X133516312Y-53168299D01*
X133504248Y-53239513D01*
X133357768Y-53239513D01*
X133357833Y-53232096D01*
X133364937Y-53161882D01*
X133378815Y-53106312D01*
X133396649Y-53069301D01*
X133446855Y-53011733D01*
X133514885Y-52975962D01*
X133598158Y-52963665D01*
X133620398Y-52964331D01*
X133685891Y-52977947D01*
X133739687Y-53012249D01*
X133789057Y-53071338D01*
X133791995Y-53075722D01*
X133805287Y-53099299D01*
X133813932Y-53125949D01*
X133818904Y-53162159D01*
X133821174Y-53214413D01*
X133821678Y-53284192D01*
X133821714Y-53289200D01*
G37*
X127696590Y-53306622D02*
X127696307Y-53345305D01*
X127692762Y-53421521D01*
X127683483Y-53477294D01*
X127666375Y-53518613D01*
X127639344Y-53551467D01*
X127600292Y-53581846D01*
X127575445Y-53595660D01*
X127535615Y-53604965D01*
X127479665Y-53604230D01*
X127448385Y-53601283D01*
X127410653Y-53592283D01*
X127380494Y-53572720D01*
X127345408Y-53536267D01*
X127340720Y-53530943D01*
X127309177Y-53489969D01*
X127294128Y-53454283D01*
X127290286Y-53411966D01*
X127290286Y-53349779D01*
X127333742Y-53366182D01*
X127365424Y-53385356D01*
X127392962Y-53430347D01*
X127398711Y-53444752D01*
X127430855Y-53485546D01*
X127474611Y-53506081D01*
X127522254Y-53504235D01*
X127566057Y-53477886D01*
X127581111Y-53461455D01*
X127594763Y-53436667D01*
X127590493Y-53414144D01*
X127565916Y-53390964D01*
X127518651Y-53364202D01*
X127446314Y-53330934D01*
X127297543Y-53265816D01*
X127293595Y-53201308D01*
X127295079Y-53160220D01*
X127392010Y-53160220D01*
X127399368Y-53185657D01*
X127432848Y-53212814D01*
X127493614Y-53243714D01*
X127503669Y-53248190D01*
X127551751Y-53269017D01*
X127587726Y-53283665D01*
X127604444Y-53289200D01*
X127606977Y-53285126D01*
X127607993Y-53260247D01*
X127604369Y-53220257D01*
X127595242Y-53181152D01*
X127566773Y-53131884D01*
X127525678Y-53104122D01*
X127476590Y-53100364D01*
X127424144Y-53123109D01*
X127409609Y-53134481D01*
X127392010Y-53160220D01*
X127295079Y-53160220D01*
X127295338Y-53153064D01*
X127317281Y-53092096D01*
X127344979Y-53058497D01*
X127402405Y-53020966D01*
X127470527Y-53002006D01*
X127540947Y-53003507D01*
X127605267Y-53027355D01*
X127619426Y-53036513D01*
X127651904Y-53064849D01*
X127674116Y-53100695D01*
X127687804Y-53149384D01*
X127694715Y-53216249D01*
X127695628Y-53260247D01*
X127696590Y-53306622D01*
G36*
X127696590Y-53306622D02*
G01*
X127696307Y-53345305D01*
X127692762Y-53421521D01*
X127683483Y-53477294D01*
X127666375Y-53518613D01*
X127639344Y-53551467D01*
X127600292Y-53581846D01*
X127575445Y-53595660D01*
X127535615Y-53604965D01*
X127479665Y-53604230D01*
X127448385Y-53601283D01*
X127410653Y-53592283D01*
X127380494Y-53572720D01*
X127345408Y-53536267D01*
X127340720Y-53530943D01*
X127309177Y-53489969D01*
X127294128Y-53454283D01*
X127290286Y-53411966D01*
X127290286Y-53349779D01*
X127333742Y-53366182D01*
X127365424Y-53385356D01*
X127392962Y-53430347D01*
X127398711Y-53444752D01*
X127430855Y-53485546D01*
X127474611Y-53506081D01*
X127522254Y-53504235D01*
X127566057Y-53477886D01*
X127581111Y-53461455D01*
X127594763Y-53436667D01*
X127590493Y-53414144D01*
X127565916Y-53390964D01*
X127518651Y-53364202D01*
X127446314Y-53330934D01*
X127297543Y-53265816D01*
X127293595Y-53201308D01*
X127295079Y-53160220D01*
X127392010Y-53160220D01*
X127399368Y-53185657D01*
X127432848Y-53212814D01*
X127493614Y-53243714D01*
X127503669Y-53248190D01*
X127551751Y-53269017D01*
X127587726Y-53283665D01*
X127604444Y-53289200D01*
X127606977Y-53285126D01*
X127607993Y-53260247D01*
X127604369Y-53220257D01*
X127595242Y-53181152D01*
X127566773Y-53131884D01*
X127525678Y-53104122D01*
X127476590Y-53100364D01*
X127424144Y-53123109D01*
X127409609Y-53134481D01*
X127392010Y-53160220D01*
X127295079Y-53160220D01*
X127295338Y-53153064D01*
X127317281Y-53092096D01*
X127344979Y-53058497D01*
X127402405Y-53020966D01*
X127470527Y-53002006D01*
X127540947Y-53003507D01*
X127605267Y-53027355D01*
X127619426Y-53036513D01*
X127651904Y-53064849D01*
X127674116Y-53100695D01*
X127687804Y-53149384D01*
X127694715Y-53216249D01*
X127695628Y-53260247D01*
X127696590Y-53306622D01*
G37*
X129786698Y-53303714D02*
X129785537Y-53360313D01*
X129777345Y-53437462D01*
X129759519Y-53495276D01*
X129729975Y-53539422D01*
X129686625Y-53575568D01*
X129645332Y-53596463D01*
X129575987Y-53608090D01*
X129506736Y-53595377D01*
X129444145Y-53559945D01*
X129394779Y-53503418D01*
X129388818Y-53492995D01*
X129380945Y-53474733D01*
X129375106Y-53451429D01*
X129370999Y-53419085D01*
X129368325Y-53373704D01*
X129366781Y-53311287D01*
X129366734Y-53305748D01*
X129467429Y-53305748D01*
X129467772Y-53358577D01*
X129469942Y-53406362D01*
X129475307Y-53437209D01*
X129485217Y-53457935D01*
X129501021Y-53475356D01*
X129504724Y-53478705D01*
X129552299Y-53503419D01*
X129602635Y-53500890D01*
X129649517Y-53471288D01*
X129663477Y-53455953D01*
X129675160Y-53435622D01*
X129681686Y-53407514D01*
X129684524Y-53364550D01*
X129685143Y-53299647D01*
X129684837Y-53250122D01*
X129682722Y-53201782D01*
X129677390Y-53170587D01*
X129667460Y-53149647D01*
X129651550Y-53132073D01*
X129642204Y-53124159D01*
X129593776Y-53102843D01*
X129543040Y-53106198D01*
X129498987Y-53134107D01*
X129489504Y-53145173D01*
X129477939Y-53166009D01*
X129471252Y-53195106D01*
X129468173Y-53239381D01*
X129467429Y-53305748D01*
X129366734Y-53305748D01*
X129366067Y-53227837D01*
X129365883Y-53119358D01*
X129365829Y-52782601D01*
X129413000Y-52802362D01*
X129425472Y-52807770D01*
X129445324Y-52819985D01*
X129456687Y-52838482D01*
X129462933Y-52870829D01*
X129467429Y-52924593D01*
X129471535Y-52972866D01*
X129476963Y-53004557D01*
X129484739Y-53016383D01*
X129496457Y-53013212D01*
X129526318Y-53002067D01*
X129579684Y-52999304D01*
X129637093Y-53009625D01*
X129686625Y-53031861D01*
X129713876Y-53052443D01*
X129748865Y-53092600D01*
X129771274Y-53144086D01*
X129783190Y-53212568D01*
X129786542Y-53299647D01*
X129786698Y-53303714D01*
G36*
X129786698Y-53303714D02*
G01*
X129785537Y-53360313D01*
X129777345Y-53437462D01*
X129759519Y-53495276D01*
X129729975Y-53539422D01*
X129686625Y-53575568D01*
X129645332Y-53596463D01*
X129575987Y-53608090D01*
X129506736Y-53595377D01*
X129444145Y-53559945D01*
X129394779Y-53503418D01*
X129388818Y-53492995D01*
X129380945Y-53474733D01*
X129375106Y-53451429D01*
X129370999Y-53419085D01*
X129368325Y-53373704D01*
X129366781Y-53311287D01*
X129366734Y-53305748D01*
X129467429Y-53305748D01*
X129467772Y-53358577D01*
X129469942Y-53406362D01*
X129475307Y-53437209D01*
X129485217Y-53457935D01*
X129501021Y-53475356D01*
X129504724Y-53478705D01*
X129552299Y-53503419D01*
X129602635Y-53500890D01*
X129649517Y-53471288D01*
X129663477Y-53455953D01*
X129675160Y-53435622D01*
X129681686Y-53407514D01*
X129684524Y-53364550D01*
X129685143Y-53299647D01*
X129684837Y-53250122D01*
X129682722Y-53201782D01*
X129677390Y-53170587D01*
X129667460Y-53149647D01*
X129651550Y-53132073D01*
X129642204Y-53124159D01*
X129593776Y-53102843D01*
X129543040Y-53106198D01*
X129498987Y-53134107D01*
X129489504Y-53145173D01*
X129477939Y-53166009D01*
X129471252Y-53195106D01*
X129468173Y-53239381D01*
X129467429Y-53305748D01*
X129366734Y-53305748D01*
X129366067Y-53227837D01*
X129365883Y-53119358D01*
X129365829Y-52782601D01*
X129413000Y-52802362D01*
X129425472Y-52807770D01*
X129445324Y-52819985D01*
X129456687Y-52838482D01*
X129462933Y-52870829D01*
X129467429Y-52924593D01*
X129471535Y-52972866D01*
X129476963Y-53004557D01*
X129484739Y-53016383D01*
X129496457Y-53013212D01*
X129526318Y-53002067D01*
X129579684Y-52999304D01*
X129637093Y-53009625D01*
X129686625Y-53031861D01*
X129713876Y-53052443D01*
X129748865Y-53092600D01*
X129771274Y-53144086D01*
X129783190Y-53212568D01*
X129786542Y-53299647D01*
X129786698Y-53303714D01*
G37*
X132718299Y-53248055D02*
X132713684Y-53358078D01*
X132711078Y-53381387D01*
X132691660Y-53464352D01*
X132656573Y-53527448D01*
X132603212Y-53575808D01*
X132600196Y-53577804D01*
X132532362Y-53606185D01*
X132461535Y-53608711D01*
X132393289Y-53587097D01*
X132333196Y-53543062D01*
X132286829Y-53478322D01*
X132286050Y-53476761D01*
X132270643Y-53436558D01*
X132259357Y-53390866D01*
X132253370Y-53347972D01*
X132253861Y-53316160D01*
X132262007Y-53303714D01*
X132269244Y-53304471D01*
X132303851Y-53318235D01*
X132343078Y-53343546D01*
X132376448Y-53372845D01*
X132393483Y-53398572D01*
X132411192Y-53433471D01*
X132447485Y-53465212D01*
X132489630Y-53477886D01*
X132505077Y-53474221D01*
X132535569Y-53455774D01*
X132562128Y-53430166D01*
X132573486Y-53406934D01*
X132573482Y-53406848D01*
X132560596Y-53396179D01*
X132526241Y-53376933D01*
X132475593Y-53351813D01*
X132413829Y-53323524D01*
X132413489Y-53323374D01*
X132346388Y-53293498D01*
X132301411Y-53271973D01*
X132274145Y-53255437D01*
X132260178Y-53240531D01*
X132255097Y-53223893D01*
X132254490Y-53202162D01*
X132258712Y-53161013D01*
X132402000Y-53161013D01*
X132416791Y-53173949D01*
X132453644Y-53193333D01*
X132454725Y-53193881D01*
X132498205Y-53214587D01*
X132537102Y-53231105D01*
X132561778Y-53238093D01*
X132571676Y-53228753D01*
X132573486Y-53196748D01*
X132565966Y-53156915D01*
X132539897Y-53120717D01*
X132502154Y-53101950D01*
X132460077Y-53103845D01*
X132421005Y-53129632D01*
X132405647Y-53147451D01*
X132402000Y-53161013D01*
X132258712Y-53161013D01*
X132259833Y-53150086D01*
X132286251Y-53079335D01*
X132330473Y-53023735D01*
X132387697Y-52985239D01*
X132453120Y-52965797D01*
X132521937Y-52967359D01*
X132589347Y-52991878D01*
X132650544Y-53041302D01*
X132684450Y-53090212D01*
X132708806Y-53160027D01*
X132712767Y-53196748D01*
X132718299Y-53248055D01*
G36*
X132718299Y-53248055D02*
G01*
X132713684Y-53358078D01*
X132711078Y-53381387D01*
X132691660Y-53464352D01*
X132656573Y-53527448D01*
X132603212Y-53575808D01*
X132600196Y-53577804D01*
X132532362Y-53606185D01*
X132461535Y-53608711D01*
X132393289Y-53587097D01*
X132333196Y-53543062D01*
X132286829Y-53478322D01*
X132286050Y-53476761D01*
X132270643Y-53436558D01*
X132259357Y-53390866D01*
X132253370Y-53347972D01*
X132253861Y-53316160D01*
X132262007Y-53303714D01*
X132269244Y-53304471D01*
X132303851Y-53318235D01*
X132343078Y-53343546D01*
X132376448Y-53372845D01*
X132393483Y-53398572D01*
X132411192Y-53433471D01*
X132447485Y-53465212D01*
X132489630Y-53477886D01*
X132505077Y-53474221D01*
X132535569Y-53455774D01*
X132562128Y-53430166D01*
X132573486Y-53406934D01*
X132573482Y-53406848D01*
X132560596Y-53396179D01*
X132526241Y-53376933D01*
X132475593Y-53351813D01*
X132413829Y-53323524D01*
X132413489Y-53323374D01*
X132346388Y-53293498D01*
X132301411Y-53271973D01*
X132274145Y-53255437D01*
X132260178Y-53240531D01*
X132255097Y-53223893D01*
X132254490Y-53202162D01*
X132258712Y-53161013D01*
X132402000Y-53161013D01*
X132416791Y-53173949D01*
X132453644Y-53193333D01*
X132454725Y-53193881D01*
X132498205Y-53214587D01*
X132537102Y-53231105D01*
X132561778Y-53238093D01*
X132571676Y-53228753D01*
X132573486Y-53196748D01*
X132565966Y-53156915D01*
X132539897Y-53120717D01*
X132502154Y-53101950D01*
X132460077Y-53103845D01*
X132421005Y-53129632D01*
X132405647Y-53147451D01*
X132402000Y-53161013D01*
X132258712Y-53161013D01*
X132259833Y-53150086D01*
X132286251Y-53079335D01*
X132330473Y-53023735D01*
X132387697Y-52985239D01*
X132453120Y-52965797D01*
X132521937Y-52967359D01*
X132589347Y-52991878D01*
X132650544Y-53041302D01*
X132684450Y-53090212D01*
X132708806Y-53160027D01*
X132712767Y-53196748D01*
X132718299Y-53248055D01*
G37*
X130645483Y-53014569D02*
X130695376Y-53043661D01*
X130717325Y-53066327D01*
X130759504Y-53134082D01*
X130773714Y-53207950D01*
X130773714Y-53258770D01*
X130726999Y-53239128D01*
X130694692Y-53219308D01*
X130669231Y-53178160D01*
X130666616Y-53169675D01*
X130638478Y-53126451D01*
X130596067Y-53103103D01*
X130547370Y-53102100D01*
X130500373Y-53125914D01*
X130493357Y-53132056D01*
X130469893Y-53158745D01*
X130466019Y-53182014D01*
X130483768Y-53204862D01*
X130525179Y-53230287D01*
X130592286Y-53261288D01*
X130596824Y-53263252D01*
X130671322Y-53297990D01*
X130722203Y-53328763D01*
X130753525Y-53359488D01*
X130769343Y-53394082D01*
X130773714Y-53436462D01*
X130767986Y-53483446D01*
X130739062Y-53543585D01*
X130688178Y-53586788D01*
X130651374Y-53599759D01*
X130599434Y-53606856D01*
X130548999Y-53605340D01*
X130512983Y-53594632D01*
X130509158Y-53591966D01*
X130498998Y-53573337D01*
X130506048Y-53540505D01*
X130518297Y-53514735D01*
X130537939Y-53504006D01*
X130575191Y-53504539D01*
X130626908Y-53501462D01*
X130660701Y-53480212D01*
X130672114Y-53440877D01*
X130672104Y-53439747D01*
X130665187Y-53416913D01*
X130641659Y-53395963D01*
X130595914Y-53371815D01*
X130533704Y-53342741D01*
X130492499Y-53326925D01*
X130468712Y-53327944D01*
X130457597Y-53348837D01*
X130454408Y-53392641D01*
X130454400Y-53462393D01*
X130454044Y-53505452D01*
X130452413Y-53558626D01*
X130449761Y-53595022D01*
X130446422Y-53608514D01*
X130445530Y-53608423D01*
X130426237Y-53601110D01*
X130394284Y-53585678D01*
X130350124Y-53562842D01*
X130355371Y-53357078D01*
X130355736Y-53343432D01*
X130359904Y-53247651D01*
X130367268Y-53175462D01*
X130379330Y-53122058D01*
X130397593Y-53082633D01*
X130423560Y-53052380D01*
X130458733Y-53026493D01*
X130459384Y-53026087D01*
X130516256Y-53004968D01*
X130582033Y-53001400D01*
X130645483Y-53014569D01*
G36*
X130645483Y-53014569D02*
G01*
X130695376Y-53043661D01*
X130717325Y-53066327D01*
X130759504Y-53134082D01*
X130773714Y-53207950D01*
X130773714Y-53258770D01*
X130726999Y-53239128D01*
X130694692Y-53219308D01*
X130669231Y-53178160D01*
X130666616Y-53169675D01*
X130638478Y-53126451D01*
X130596067Y-53103103D01*
X130547370Y-53102100D01*
X130500373Y-53125914D01*
X130493357Y-53132056D01*
X130469893Y-53158745D01*
X130466019Y-53182014D01*
X130483768Y-53204862D01*
X130525179Y-53230287D01*
X130592286Y-53261288D01*
X130596824Y-53263252D01*
X130671322Y-53297990D01*
X130722203Y-53328763D01*
X130753525Y-53359488D01*
X130769343Y-53394082D01*
X130773714Y-53436462D01*
X130767986Y-53483446D01*
X130739062Y-53543585D01*
X130688178Y-53586788D01*
X130651374Y-53599759D01*
X130599434Y-53606856D01*
X130548999Y-53605340D01*
X130512983Y-53594632D01*
X130509158Y-53591966D01*
X130498998Y-53573337D01*
X130506048Y-53540505D01*
X130518297Y-53514735D01*
X130537939Y-53504006D01*
X130575191Y-53504539D01*
X130626908Y-53501462D01*
X130660701Y-53480212D01*
X130672114Y-53440877D01*
X130672104Y-53439747D01*
X130665187Y-53416913D01*
X130641659Y-53395963D01*
X130595914Y-53371815D01*
X130533704Y-53342741D01*
X130492499Y-53326925D01*
X130468712Y-53327944D01*
X130457597Y-53348837D01*
X130454408Y-53392641D01*
X130454400Y-53462393D01*
X130454044Y-53505452D01*
X130452413Y-53558626D01*
X130449761Y-53595022D01*
X130446422Y-53608514D01*
X130445530Y-53608423D01*
X130426237Y-53601110D01*
X130394284Y-53585678D01*
X130350124Y-53562842D01*
X130355371Y-53357078D01*
X130355736Y-53343432D01*
X130359904Y-53247651D01*
X130367268Y-53175462D01*
X130379330Y-53122058D01*
X130397593Y-53082633D01*
X130423560Y-53052380D01*
X130458733Y-53026493D01*
X130459384Y-53026087D01*
X130516256Y-53004968D01*
X130582033Y-53001400D01*
X130645483Y-53014569D01*
G37*
X133265815Y-53355524D02*
X133267252Y-53467000D01*
X133267651Y-53499339D01*
X133268929Y-53607455D01*
X133269185Y-53690186D01*
X133267634Y-53750426D01*
X133263490Y-53791073D01*
X133255964Y-53815023D01*
X133244271Y-53825171D01*
X133227624Y-53824414D01*
X133205236Y-53815648D01*
X133176321Y-53801769D01*
X133170142Y-53798808D01*
X133144413Y-53784311D01*
X133130976Y-53767065D01*
X133125834Y-53738308D01*
X133124990Y-53689283D01*
X133124952Y-53601257D01*
X133034276Y-53601257D01*
X132978498Y-53598815D01*
X132934640Y-53588908D01*
X132898218Y-53568886D01*
X132895503Y-53566929D01*
X132858546Y-53533869D01*
X132832826Y-53493931D01*
X132816606Y-53441657D01*
X132808148Y-53371588D01*
X132806083Y-53292430D01*
X132950857Y-53292430D01*
X132950882Y-53305697D01*
X132952261Y-53365584D01*
X132956687Y-53404732D01*
X132965461Y-53430153D01*
X132979886Y-53448857D01*
X132980784Y-53449750D01*
X133016237Y-53473952D01*
X133050596Y-53471567D01*
X133089403Y-53442260D01*
X133098895Y-53432244D01*
X133112876Y-53411708D01*
X133120760Y-53384997D01*
X133124245Y-53344499D01*
X133125029Y-53282603D01*
X133124350Y-53245130D01*
X133116983Y-53176980D01*
X133100168Y-53132330D01*
X133072234Y-53107926D01*
X133031509Y-53100514D01*
X133014350Y-53102094D01*
X132984660Y-53117766D01*
X132965031Y-53152691D01*
X132954188Y-53209901D01*
X132950857Y-53292430D01*
X132806083Y-53292430D01*
X132805714Y-53278267D01*
X132806253Y-53210169D01*
X132808707Y-53158587D01*
X132814158Y-53122816D01*
X132823686Y-53096015D01*
X132838371Y-53071338D01*
X132851852Y-53052480D01*
X132900799Y-53001568D01*
X132956256Y-52973918D01*
X133025928Y-52965165D01*
X133105664Y-52973890D01*
X133174595Y-53005185D01*
X133229113Y-53060381D01*
X133233223Y-53066224D01*
X133242808Y-53081753D01*
X133250151Y-53099498D01*
X133255612Y-53123290D01*
X133259550Y-53156958D01*
X133262323Y-53204333D01*
X133264292Y-53269245D01*
X133264528Y-53282603D01*
X133265815Y-53355524D01*
G36*
X133265815Y-53355524D02*
G01*
X133267252Y-53467000D01*
X133267651Y-53499339D01*
X133268929Y-53607455D01*
X133269185Y-53690186D01*
X133267634Y-53750426D01*
X133263490Y-53791073D01*
X133255964Y-53815023D01*
X133244271Y-53825171D01*
X133227624Y-53824414D01*
X133205236Y-53815648D01*
X133176321Y-53801769D01*
X133170142Y-53798808D01*
X133144413Y-53784311D01*
X133130976Y-53767065D01*
X133125834Y-53738308D01*
X133124990Y-53689283D01*
X133124952Y-53601257D01*
X133034276Y-53601257D01*
X132978498Y-53598815D01*
X132934640Y-53588908D01*
X132898218Y-53568886D01*
X132895503Y-53566929D01*
X132858546Y-53533869D01*
X132832826Y-53493931D01*
X132816606Y-53441657D01*
X132808148Y-53371588D01*
X132806083Y-53292430D01*
X132950857Y-53292430D01*
X132950882Y-53305697D01*
X132952261Y-53365584D01*
X132956687Y-53404732D01*
X132965461Y-53430153D01*
X132979886Y-53448857D01*
X132980784Y-53449750D01*
X133016237Y-53473952D01*
X133050596Y-53471567D01*
X133089403Y-53442260D01*
X133098895Y-53432244D01*
X133112876Y-53411708D01*
X133120760Y-53384997D01*
X133124245Y-53344499D01*
X133125029Y-53282603D01*
X133124350Y-53245130D01*
X133116983Y-53176980D01*
X133100168Y-53132330D01*
X133072234Y-53107926D01*
X133031509Y-53100514D01*
X133014350Y-53102094D01*
X132984660Y-53117766D01*
X132965031Y-53152691D01*
X132954188Y-53209901D01*
X132950857Y-53292430D01*
X132806083Y-53292430D01*
X132805714Y-53278267D01*
X132806253Y-53210169D01*
X132808707Y-53158587D01*
X132814158Y-53122816D01*
X132823686Y-53096015D01*
X132838371Y-53071338D01*
X132851852Y-53052480D01*
X132900799Y-53001568D01*
X132956256Y-52973918D01*
X133025928Y-52965165D01*
X133105664Y-52973890D01*
X133174595Y-53005185D01*
X133229113Y-53060381D01*
X133233223Y-53066224D01*
X133242808Y-53081753D01*
X133250151Y-53099498D01*
X133255612Y-53123290D01*
X133259550Y-53156958D01*
X133262323Y-53204333D01*
X133264292Y-53269245D01*
X133264528Y-53282603D01*
X133265815Y-53355524D01*
G37*
X128523495Y-53000220D02*
X128554599Y-53008121D01*
X128583559Y-53027817D01*
X128620831Y-53064484D01*
X128644801Y-53090378D01*
X128669770Y-53123997D01*
X128681031Y-53155506D01*
X128683657Y-53195485D01*
X128683657Y-53260917D01*
X128639035Y-53237842D01*
X128603673Y-53209724D01*
X128579451Y-53171848D01*
X128575291Y-53161551D01*
X128543594Y-53121637D01*
X128499554Y-53101624D01*
X128451531Y-53103572D01*
X128407886Y-53129543D01*
X128389420Y-53150635D01*
X128378663Y-53177619D01*
X128390178Y-53201634D01*
X128425981Y-53225791D01*
X128488090Y-53253199D01*
X128497515Y-53256985D01*
X128554058Y-53281759D01*
X128602580Y-53306189D01*
X128633451Y-53325486D01*
X128664371Y-53359953D01*
X128684927Y-53414957D01*
X128682744Y-53473983D01*
X128658424Y-53529845D01*
X128612568Y-53575355D01*
X128575438Y-53594727D01*
X128503711Y-53608292D01*
X128463852Y-53606462D01*
X128426953Y-53596568D01*
X128412797Y-53575806D01*
X128418091Y-53541613D01*
X128419631Y-53537092D01*
X128431842Y-53513116D01*
X128452174Y-53504042D01*
X128490908Y-53504649D01*
X128518257Y-53505474D01*
X128550257Y-53498392D01*
X128572182Y-53477219D01*
X128584670Y-53451152D01*
X128586062Y-53423845D01*
X128585998Y-53423685D01*
X128569807Y-53408930D01*
X128535155Y-53387457D01*
X128490321Y-53363458D01*
X128443582Y-53341125D01*
X128403217Y-53324652D01*
X128377504Y-53318229D01*
X128373679Y-53324518D01*
X128368864Y-53354115D01*
X128365566Y-53402447D01*
X128364343Y-53463372D01*
X128364058Y-53505542D01*
X128362718Y-53558653D01*
X128360528Y-53595025D01*
X128357769Y-53608514D01*
X128343344Y-53603981D01*
X128314226Y-53591670D01*
X128277257Y-53574826D01*
X128277257Y-53358721D01*
X128277493Y-53303327D01*
X128279729Y-53219207D01*
X128285423Y-53156800D01*
X128295903Y-53111358D01*
X128312497Y-53078133D01*
X128336531Y-53052378D01*
X128369333Y-53029344D01*
X128411124Y-53010335D01*
X128488287Y-52998914D01*
X128523495Y-53000220D01*
G36*
X128523495Y-53000220D02*
G01*
X128554599Y-53008121D01*
X128583559Y-53027817D01*
X128620831Y-53064484D01*
X128644801Y-53090378D01*
X128669770Y-53123997D01*
X128681031Y-53155506D01*
X128683657Y-53195485D01*
X128683657Y-53260917D01*
X128639035Y-53237842D01*
X128603673Y-53209724D01*
X128579451Y-53171848D01*
X128575291Y-53161551D01*
X128543594Y-53121637D01*
X128499554Y-53101624D01*
X128451531Y-53103572D01*
X128407886Y-53129543D01*
X128389420Y-53150635D01*
X128378663Y-53177619D01*
X128390178Y-53201634D01*
X128425981Y-53225791D01*
X128488090Y-53253199D01*
X128497515Y-53256985D01*
X128554058Y-53281759D01*
X128602580Y-53306189D01*
X128633451Y-53325486D01*
X128664371Y-53359953D01*
X128684927Y-53414957D01*
X128682744Y-53473983D01*
X128658424Y-53529845D01*
X128612568Y-53575355D01*
X128575438Y-53594727D01*
X128503711Y-53608292D01*
X128463852Y-53606462D01*
X128426953Y-53596568D01*
X128412797Y-53575806D01*
X128418091Y-53541613D01*
X128419631Y-53537092D01*
X128431842Y-53513116D01*
X128452174Y-53504042D01*
X128490908Y-53504649D01*
X128518257Y-53505474D01*
X128550257Y-53498392D01*
X128572182Y-53477219D01*
X128584670Y-53451152D01*
X128586062Y-53423845D01*
X128585998Y-53423685D01*
X128569807Y-53408930D01*
X128535155Y-53387457D01*
X128490321Y-53363458D01*
X128443582Y-53341125D01*
X128403217Y-53324652D01*
X128377504Y-53318229D01*
X128373679Y-53324518D01*
X128368864Y-53354115D01*
X128365566Y-53402447D01*
X128364343Y-53463372D01*
X128364058Y-53505542D01*
X128362718Y-53558653D01*
X128360528Y-53595025D01*
X128357769Y-53608514D01*
X128343344Y-53603981D01*
X128314226Y-53591670D01*
X128277257Y-53574826D01*
X128277257Y-53358721D01*
X128277493Y-53303327D01*
X128279729Y-53219207D01*
X128285423Y-53156800D01*
X128295903Y-53111358D01*
X128312497Y-53078133D01*
X128336531Y-53052378D01*
X128369333Y-53029344D01*
X128411124Y-53010335D01*
X128488287Y-52998914D01*
X128523495Y-53000220D01*
G37*
X130669933Y-48296371D02*
X130745856Y-48296865D01*
X130800491Y-48298135D01*
X130837500Y-48300547D01*
X130860547Y-48304467D01*
X130873296Y-48310262D01*
X130879411Y-48318299D01*
X130882556Y-48328943D01*
X130882646Y-48329325D01*
X130887814Y-48354347D01*
X130897209Y-48402681D01*
X130909867Y-48469260D01*
X130924825Y-48549014D01*
X130941119Y-48636875D01*
X130942448Y-48644064D01*
X130958691Y-48729340D01*
X130973805Y-48804242D01*
X130986808Y-48864219D01*
X130996715Y-48904717D01*
X131002544Y-48921184D01*
X131002575Y-48921210D01*
X131020943Y-48930320D01*
X131058640Y-48945457D01*
X131107543Y-48963358D01*
X131110297Y-48964330D01*
X131172817Y-48987959D01*
X131245543Y-49017595D01*
X131313294Y-49047062D01*
X131424703Y-49097626D01*
X131671399Y-48929160D01*
X131688775Y-48917311D01*
X131763202Y-48866947D01*
X131829614Y-48822612D01*
X131884039Y-48786916D01*
X131922506Y-48762471D01*
X131941042Y-48751889D01*
X131953743Y-48754315D01*
X131982579Y-48773110D01*
X132027143Y-48810330D01*
X132088670Y-48867020D01*
X132168398Y-48944227D01*
X132175532Y-48951255D01*
X132238796Y-49014222D01*
X132294990Y-49071268D01*
X132340677Y-49118817D01*
X132372414Y-49153297D01*
X132386764Y-49171131D01*
X132386810Y-49171217D01*
X132388633Y-49184795D01*
X132381910Y-49206820D01*
X132364946Y-49240304D01*
X132336044Y-49288261D01*
X132293508Y-49353704D01*
X132235644Y-49439645D01*
X132225783Y-49454151D01*
X132175913Y-49527635D01*
X132131905Y-49592687D01*
X132096380Y-49645417D01*
X132071959Y-49681936D01*
X132061264Y-49698356D01*
X132060458Y-49701834D01*
X132065518Y-49727785D01*
X132080677Y-49770159D01*
X132103463Y-49821728D01*
X132134429Y-49889170D01*
X132169004Y-49969195D01*
X132198366Y-50041629D01*
X132205645Y-50060377D01*
X132224710Y-50108246D01*
X132238715Y-50141596D01*
X132245041Y-50154114D01*
X132252025Y-50155050D01*
X132283413Y-50160461D01*
X132334787Y-50169806D01*
X132400802Y-50182069D01*
X132476113Y-50196232D01*
X132555375Y-50211280D01*
X132633243Y-50226195D01*
X132704370Y-50239961D01*
X132763412Y-50251562D01*
X132805022Y-50259980D01*
X132823857Y-50264199D01*
X132826980Y-50265389D01*
X132834591Y-50271805D01*
X132840254Y-50285465D01*
X132844251Y-50309999D01*
X132846866Y-50349038D01*
X132848384Y-50406213D01*
X132849086Y-50485154D01*
X132849257Y-50589492D01*
X132849257Y-50906799D01*
X132773057Y-50921839D01*
X132763840Y-50923642D01*
X132714891Y-50932980D01*
X132647205Y-50945669D01*
X132568478Y-50960273D01*
X132486400Y-50975355D01*
X132454078Y-50981422D01*
X132381855Y-50996181D01*
X132321666Y-51010137D01*
X132279040Y-51021952D01*
X132259510Y-51030287D01*
X132250660Y-51043905D01*
X132234548Y-51079938D01*
X132218065Y-51126572D01*
X132212263Y-51144034D01*
X132190906Y-51201358D01*
X132163359Y-51269201D01*
X132134107Y-51336355D01*
X132118463Y-51371430D01*
X132096174Y-51423822D01*
X132080857Y-51463058D01*
X132075162Y-51482563D01*
X132075478Y-51484036D01*
X132086281Y-51504729D01*
X132110638Y-51544665D01*
X132146081Y-51599972D01*
X132190136Y-51666781D01*
X132240332Y-51741220D01*
X132405501Y-51983623D01*
X132188503Y-52200983D01*
X132167516Y-52221899D01*
X132103342Y-52284505D01*
X132045990Y-52338495D01*
X131998820Y-52380826D01*
X131965192Y-52408457D01*
X131948467Y-52418343D01*
X131930303Y-52410821D01*
X131892265Y-52389227D01*
X131838726Y-52356151D01*
X131773884Y-52314191D01*
X131701940Y-52265943D01*
X131631275Y-52218291D01*
X131567526Y-52176328D01*
X131515513Y-52143165D01*
X131479279Y-52121378D01*
X131462867Y-52113543D01*
X131461905Y-52113614D01*
X131440103Y-52121338D01*
X131401440Y-52139323D01*
X131353612Y-52164013D01*
X131353110Y-52164284D01*
X131289587Y-52196099D01*
X131246060Y-52211642D01*
X131219052Y-52211685D01*
X131205090Y-52197000D01*
X131199180Y-52182544D01*
X131183229Y-52143831D01*
X131158660Y-52084316D01*
X131126779Y-52007165D01*
X131088893Y-51915541D01*
X131046310Y-51812607D01*
X131000337Y-51701526D01*
X130958667Y-51600472D01*
X130916268Y-51496780D01*
X130878756Y-51404119D01*
X130847388Y-51325642D01*
X130823425Y-51264500D01*
X130808123Y-51223843D01*
X130802743Y-51206825D01*
X130813018Y-51191219D01*
X130841563Y-51165162D01*
X130881971Y-51134887D01*
X130978979Y-51055684D01*
X131065793Y-50954475D01*
X131129322Y-50843116D01*
X131169177Y-50724893D01*
X131184965Y-50603095D01*
X131176296Y-50481010D01*
X131142778Y-50361925D01*
X131084021Y-50249129D01*
X130999632Y-50145911D01*
X130955631Y-50105713D01*
X130850211Y-50034638D01*
X130737410Y-49988301D01*
X130620525Y-49965599D01*
X130502853Y-49965428D01*
X130387690Y-49986687D01*
X130278335Y-50028270D01*
X130178083Y-50089076D01*
X130090233Y-50168001D01*
X130018080Y-50263941D01*
X129964922Y-50375795D01*
X129934057Y-50502457D01*
X129928392Y-50563507D01*
X129936185Y-50695776D01*
X129971284Y-50821266D01*
X130032649Y-50937759D01*
X130119243Y-51043039D01*
X130230029Y-51134887D01*
X130268931Y-51163930D01*
X130298104Y-51190272D01*
X130309257Y-51206800D01*
X130304810Y-51221209D01*
X130290378Y-51259815D01*
X130267173Y-51319201D01*
X130236452Y-51396215D01*
X130199474Y-51487703D01*
X130157496Y-51590516D01*
X130111778Y-51701502D01*
X130070178Y-51802072D01*
X130027222Y-51905947D01*
X129988829Y-51998819D01*
X129956305Y-52077525D01*
X129930958Y-52138899D01*
X129914095Y-52179779D01*
X129907025Y-52197000D01*
X129906943Y-52197204D01*
X129892798Y-52211745D01*
X129865659Y-52211579D01*
X129822023Y-52195927D01*
X129758388Y-52164013D01*
X129753379Y-52161326D01*
X129706125Y-52137150D01*
X129668811Y-52120037D01*
X129649133Y-52113543D01*
X129633005Y-52121218D01*
X129596959Y-52142871D01*
X129545092Y-52175928D01*
X129481445Y-52217810D01*
X129410060Y-52265943D01*
X129339724Y-52313131D01*
X129274670Y-52355267D01*
X129220820Y-52388578D01*
X129182374Y-52410469D01*
X129163534Y-52418343D01*
X129160325Y-52417343D01*
X129137954Y-52401584D01*
X129099733Y-52369033D01*
X129049021Y-52322733D01*
X128989181Y-52265726D01*
X128923571Y-52201058D01*
X128706648Y-51983772D01*
X128875601Y-51735253D01*
X129044553Y-51486733D01*
X128993183Y-51375595D01*
X128993031Y-51375266D01*
X128962183Y-51304418D01*
X128930661Y-51225523D01*
X128905266Y-51155600D01*
X128901423Y-51144322D01*
X128882047Y-51091967D01*
X128864574Y-51051283D01*
X128852388Y-51030287D01*
X128847426Y-51027322D01*
X128817634Y-51017375D01*
X128767047Y-51004505D01*
X128701194Y-50990053D01*
X128625600Y-50975355D01*
X128602957Y-50971210D01*
X128521038Y-50956116D01*
X128444600Y-50941899D01*
X128381337Y-50929995D01*
X128338943Y-50921839D01*
X128262743Y-50906799D01*
X128262743Y-50589492D01*
X128262760Y-50550476D01*
X128263082Y-50455292D01*
X128264033Y-50384255D01*
X128265896Y-50333734D01*
X128268955Y-50300098D01*
X128273494Y-50279718D01*
X128279795Y-50268962D01*
X128288143Y-50264199D01*
X128296224Y-50262270D01*
X128329172Y-50255445D01*
X128381736Y-50245022D01*
X128448569Y-50232018D01*
X128524328Y-50217449D01*
X128603665Y-50202333D01*
X128681237Y-50187685D01*
X128751698Y-50174523D01*
X128809702Y-50163863D01*
X128849904Y-50156721D01*
X128866959Y-50154114D01*
X128868112Y-50152541D01*
X128877385Y-50132119D01*
X128893432Y-50093045D01*
X128913635Y-50041629D01*
X128941672Y-49972353D01*
X128976186Y-49892290D01*
X129008538Y-49821728D01*
X129015952Y-49805889D01*
X129036755Y-49756293D01*
X129049219Y-49718038D01*
X129050863Y-49698356D01*
X129050015Y-49696962D01*
X129036548Y-49676420D01*
X129009850Y-49636516D01*
X128972539Y-49581140D01*
X128927234Y-49514177D01*
X128876552Y-49439517D01*
X128819445Y-49354692D01*
X128776607Y-49288800D01*
X128747460Y-49240478D01*
X128730317Y-49206733D01*
X128723495Y-49184572D01*
X128725306Y-49171002D01*
X128725915Y-49169984D01*
X128742297Y-49150210D01*
X128775695Y-49114175D01*
X128822671Y-49065451D01*
X128879786Y-49007612D01*
X128943603Y-48944227D01*
X129009802Y-48879905D01*
X129074648Y-48819447D01*
X129122299Y-48778655D01*
X129153990Y-48756484D01*
X129170958Y-48751889D01*
X129173175Y-48752921D01*
X129196524Y-48766837D01*
X129238912Y-48794030D01*
X129296369Y-48831889D01*
X129364923Y-48877803D01*
X129440601Y-48929160D01*
X129687298Y-49097626D01*
X129798706Y-49047062D01*
X129801943Y-49045597D01*
X129870343Y-49015965D01*
X129942907Y-48986493D01*
X130004457Y-48963358D01*
X130004729Y-48963262D01*
X130053595Y-48945367D01*
X130091212Y-48930253D01*
X130109457Y-48921184D01*
X130109752Y-48920855D01*
X130115946Y-48902282D01*
X130126139Y-48860045D01*
X130139348Y-48798696D01*
X130154590Y-48722789D01*
X130170881Y-48636875D01*
X130171449Y-48633796D01*
X130187713Y-48546128D01*
X130202608Y-48466741D01*
X130215171Y-48400701D01*
X130224438Y-48353079D01*
X130229444Y-48328943D01*
X130229764Y-48327605D01*
X130233060Y-48317273D01*
X130239738Y-48309506D01*
X130253462Y-48303940D01*
X130277895Y-48300207D01*
X130316702Y-48297942D01*
X130373546Y-48296778D01*
X130452090Y-48296348D01*
X130556000Y-48296286D01*
X130569056Y-48296286D01*
X130669933Y-48296371D01*
G36*
X130669933Y-48296371D02*
G01*
X130745856Y-48296865D01*
X130800491Y-48298135D01*
X130837500Y-48300547D01*
X130860547Y-48304467D01*
X130873296Y-48310262D01*
X130879411Y-48318299D01*
X130882556Y-48328943D01*
X130882646Y-48329325D01*
X130887814Y-48354347D01*
X130897209Y-48402681D01*
X130909867Y-48469260D01*
X130924825Y-48549014D01*
X130941119Y-48636875D01*
X130942448Y-48644064D01*
X130958691Y-48729340D01*
X130973805Y-48804242D01*
X130986808Y-48864219D01*
X130996715Y-48904717D01*
X131002544Y-48921184D01*
X131002575Y-48921210D01*
X131020943Y-48930320D01*
X131058640Y-48945457D01*
X131107543Y-48963358D01*
X131110297Y-48964330D01*
X131172817Y-48987959D01*
X131245543Y-49017595D01*
X131313294Y-49047062D01*
X131424703Y-49097626D01*
X131671399Y-48929160D01*
X131688775Y-48917311D01*
X131763202Y-48866947D01*
X131829614Y-48822612D01*
X131884039Y-48786916D01*
X131922506Y-48762471D01*
X131941042Y-48751889D01*
X131953743Y-48754315D01*
X131982579Y-48773110D01*
X132027143Y-48810330D01*
X132088670Y-48867020D01*
X132168398Y-48944227D01*
X132175532Y-48951255D01*
X132238796Y-49014222D01*
X132294990Y-49071268D01*
X132340677Y-49118817D01*
X132372414Y-49153297D01*
X132386764Y-49171131D01*
X132386810Y-49171217D01*
X132388633Y-49184795D01*
X132381910Y-49206820D01*
X132364946Y-49240304D01*
X132336044Y-49288261D01*
X132293508Y-49353704D01*
X132235644Y-49439645D01*
X132225783Y-49454151D01*
X132175913Y-49527635D01*
X132131905Y-49592687D01*
X132096380Y-49645417D01*
X132071959Y-49681936D01*
X132061264Y-49698356D01*
X132060458Y-49701834D01*
X132065518Y-49727785D01*
X132080677Y-49770159D01*
X132103463Y-49821728D01*
X132134429Y-49889170D01*
X132169004Y-49969195D01*
X132198366Y-50041629D01*
X132205645Y-50060377D01*
X132224710Y-50108246D01*
X132238715Y-50141596D01*
X132245041Y-50154114D01*
X132252025Y-50155050D01*
X132283413Y-50160461D01*
X132334787Y-50169806D01*
X132400802Y-50182069D01*
X132476113Y-50196232D01*
X132555375Y-50211280D01*
X132633243Y-50226195D01*
X132704370Y-50239961D01*
X132763412Y-50251562D01*
X132805022Y-50259980D01*
X132823857Y-50264199D01*
X132826980Y-50265389D01*
X132834591Y-50271805D01*
X132840254Y-50285465D01*
X132844251Y-50309999D01*
X132846866Y-50349038D01*
X132848384Y-50406213D01*
X132849086Y-50485154D01*
X132849257Y-50589492D01*
X132849257Y-50906799D01*
X132773057Y-50921839D01*
X132763840Y-50923642D01*
X132714891Y-50932980D01*
X132647205Y-50945669D01*
X132568478Y-50960273D01*
X132486400Y-50975355D01*
X132454078Y-50981422D01*
X132381855Y-50996181D01*
X132321666Y-51010137D01*
X132279040Y-51021952D01*
X132259510Y-51030287D01*
X132250660Y-51043905D01*
X132234548Y-51079938D01*
X132218065Y-51126572D01*
X132212263Y-51144034D01*
X132190906Y-51201358D01*
X132163359Y-51269201D01*
X132134107Y-51336355D01*
X132118463Y-51371430D01*
X132096174Y-51423822D01*
X132080857Y-51463058D01*
X132075162Y-51482563D01*
X132075478Y-51484036D01*
X132086281Y-51504729D01*
X132110638Y-51544665D01*
X132146081Y-51599972D01*
X132190136Y-51666781D01*
X132240332Y-51741220D01*
X132405501Y-51983623D01*
X132188503Y-52200983D01*
X132167516Y-52221899D01*
X132103342Y-52284505D01*
X132045990Y-52338495D01*
X131998820Y-52380826D01*
X131965192Y-52408457D01*
X131948467Y-52418343D01*
X131930303Y-52410821D01*
X131892265Y-52389227D01*
X131838726Y-52356151D01*
X131773884Y-52314191D01*
X131701940Y-52265943D01*
X131631275Y-52218291D01*
X131567526Y-52176328D01*
X131515513Y-52143165D01*
X131479279Y-52121378D01*
X131462867Y-52113543D01*
X131461905Y-52113614D01*
X131440103Y-52121338D01*
X131401440Y-52139323D01*
X131353612Y-52164013D01*
X131353110Y-52164284D01*
X131289587Y-52196099D01*
X131246060Y-52211642D01*
X131219052Y-52211685D01*
X131205090Y-52197000D01*
X131199180Y-52182544D01*
X131183229Y-52143831D01*
X131158660Y-52084316D01*
X131126779Y-52007165D01*
X131088893Y-51915541D01*
X131046310Y-51812607D01*
X131000337Y-51701526D01*
X130958667Y-51600472D01*
X130916268Y-51496780D01*
X130878756Y-51404119D01*
X130847388Y-51325642D01*
X130823425Y-51264500D01*
X130808123Y-51223843D01*
X130802743Y-51206825D01*
X130813018Y-51191219D01*
X130841563Y-51165162D01*
X130881971Y-51134887D01*
X130978979Y-51055684D01*
X131065793Y-50954475D01*
X131129322Y-50843116D01*
X131169177Y-50724893D01*
X131184965Y-50603095D01*
X131176296Y-50481010D01*
X131142778Y-50361925D01*
X131084021Y-50249129D01*
X130999632Y-50145911D01*
X130955631Y-50105713D01*
X130850211Y-50034638D01*
X130737410Y-49988301D01*
X130620525Y-49965599D01*
X130502853Y-49965428D01*
X130387690Y-49986687D01*
X130278335Y-50028270D01*
X130178083Y-50089076D01*
X130090233Y-50168001D01*
X130018080Y-50263941D01*
X129964922Y-50375795D01*
X129934057Y-50502457D01*
X129928392Y-50563507D01*
X129936185Y-50695776D01*
X129971284Y-50821266D01*
X130032649Y-50937759D01*
X130119243Y-51043039D01*
X130230029Y-51134887D01*
X130268931Y-51163930D01*
X130298104Y-51190272D01*
X130309257Y-51206800D01*
X130304810Y-51221209D01*
X130290378Y-51259815D01*
X130267173Y-51319201D01*
X130236452Y-51396215D01*
X130199474Y-51487703D01*
X130157496Y-51590516D01*
X130111778Y-51701502D01*
X130070178Y-51802072D01*
X130027222Y-51905947D01*
X129988829Y-51998819D01*
X129956305Y-52077525D01*
X129930958Y-52138899D01*
X129914095Y-52179779D01*
X129907025Y-52197000D01*
X129906943Y-52197204D01*
X129892798Y-52211745D01*
X129865659Y-52211579D01*
X129822023Y-52195927D01*
X129758388Y-52164013D01*
X129753379Y-52161326D01*
X129706125Y-52137150D01*
X129668811Y-52120037D01*
X129649133Y-52113543D01*
X129633005Y-52121218D01*
X129596959Y-52142871D01*
X129545092Y-52175928D01*
X129481445Y-52217810D01*
X129410060Y-52265943D01*
X129339724Y-52313131D01*
X129274670Y-52355267D01*
X129220820Y-52388578D01*
X129182374Y-52410469D01*
X129163534Y-52418343D01*
X129160325Y-52417343D01*
X129137954Y-52401584D01*
X129099733Y-52369033D01*
X129049021Y-52322733D01*
X128989181Y-52265726D01*
X128923571Y-52201058D01*
X128706648Y-51983772D01*
X128875601Y-51735253D01*
X129044553Y-51486733D01*
X128993183Y-51375595D01*
X128993031Y-51375266D01*
X128962183Y-51304418D01*
X128930661Y-51225523D01*
X128905266Y-51155600D01*
X128901423Y-51144322D01*
X128882047Y-51091967D01*
X128864574Y-51051283D01*
X128852388Y-51030287D01*
X128847426Y-51027322D01*
X128817634Y-51017375D01*
X128767047Y-51004505D01*
X128701194Y-50990053D01*
X128625600Y-50975355D01*
X128602957Y-50971210D01*
X128521038Y-50956116D01*
X128444600Y-50941899D01*
X128381337Y-50929995D01*
X128338943Y-50921839D01*
X128262743Y-50906799D01*
X128262743Y-50589492D01*
X128262760Y-50550476D01*
X128263082Y-50455292D01*
X128264033Y-50384255D01*
X128265896Y-50333734D01*
X128268955Y-50300098D01*
X128273494Y-50279718D01*
X128279795Y-50268962D01*
X128288143Y-50264199D01*
X128296224Y-50262270D01*
X128329172Y-50255445D01*
X128381736Y-50245022D01*
X128448569Y-50232018D01*
X128524328Y-50217449D01*
X128603665Y-50202333D01*
X128681237Y-50187685D01*
X128751698Y-50174523D01*
X128809702Y-50163863D01*
X128849904Y-50156721D01*
X128866959Y-50154114D01*
X128868112Y-50152541D01*
X128877385Y-50132119D01*
X128893432Y-50093045D01*
X128913635Y-50041629D01*
X128941672Y-49972353D01*
X128976186Y-49892290D01*
X129008538Y-49821728D01*
X129015952Y-49805889D01*
X129036755Y-49756293D01*
X129049219Y-49718038D01*
X129050863Y-49698356D01*
X129050015Y-49696962D01*
X129036548Y-49676420D01*
X129009850Y-49636516D01*
X128972539Y-49581140D01*
X128927234Y-49514177D01*
X128876552Y-49439517D01*
X128819445Y-49354692D01*
X128776607Y-49288800D01*
X128747460Y-49240478D01*
X128730317Y-49206733D01*
X128723495Y-49184572D01*
X128725306Y-49171002D01*
X128725915Y-49169984D01*
X128742297Y-49150210D01*
X128775695Y-49114175D01*
X128822671Y-49065451D01*
X128879786Y-49007612D01*
X128943603Y-48944227D01*
X129009802Y-48879905D01*
X129074648Y-48819447D01*
X129122299Y-48778655D01*
X129153990Y-48756484D01*
X129170958Y-48751889D01*
X129173175Y-48752921D01*
X129196524Y-48766837D01*
X129238912Y-48794030D01*
X129296369Y-48831889D01*
X129364923Y-48877803D01*
X129440601Y-48929160D01*
X129687298Y-49097626D01*
X129798706Y-49047062D01*
X129801943Y-49045597D01*
X129870343Y-49015965D01*
X129942907Y-48986493D01*
X130004457Y-48963358D01*
X130004729Y-48963262D01*
X130053595Y-48945367D01*
X130091212Y-48930253D01*
X130109457Y-48921184D01*
X130109752Y-48920855D01*
X130115946Y-48902282D01*
X130126139Y-48860045D01*
X130139348Y-48798696D01*
X130154590Y-48722789D01*
X130170881Y-48636875D01*
X130171449Y-48633796D01*
X130187713Y-48546128D01*
X130202608Y-48466741D01*
X130215171Y-48400701D01*
X130224438Y-48353079D01*
X130229444Y-48328943D01*
X130229764Y-48327605D01*
X130233060Y-48317273D01*
X130239738Y-48309506D01*
X130253462Y-48303940D01*
X130277895Y-48300207D01*
X130316702Y-48297942D01*
X130373546Y-48296778D01*
X130452090Y-48296348D01*
X130556000Y-48296286D01*
X130569056Y-48296286D01*
X130669933Y-48296371D01*
G37*
D15*
X129787867Y-67866800D02*
X129495333Y-67866800D01*
X129787867Y-68886800D02*
X129495333Y-68886800D01*
X131029276Y-87488500D02*
X131538724Y-87488500D01*
X131029276Y-88533500D02*
X131538724Y-88533500D01*
X129699652Y-69419800D02*
X129177148Y-69419800D01*
X129699652Y-70889800D02*
X129177148Y-70889800D01*
X140963000Y-104081948D02*
X140963000Y-104604452D01*
X142433000Y-104081948D02*
X142433000Y-104604452D01*
X125300500Y-93218724D02*
X125300500Y-92709276D01*
X126345500Y-93218724D02*
X126345500Y-92709276D01*
X127459500Y-88645276D02*
X127459500Y-89154724D01*
X128504500Y-88645276D02*
X128504500Y-89154724D01*
X133062724Y-98283500D02*
X132553276Y-98283500D01*
X133062724Y-99328500D02*
X132553276Y-99328500D01*
X130253000Y-91404000D02*
X130903000Y-91404000D01*
X130253000Y-94524000D02*
X130903000Y-94524000D01*
X131553000Y-91404000D02*
X130903000Y-91404000D01*
X131553000Y-94524000D02*
X130903000Y-94524000D01*
X129980500Y-94804000D02*
X129500500Y-94804000D01*
X129740500Y-94474000D01*
X129980500Y-94804000D01*
G36*
X129980500Y-94804000D02*
G01*
X129500500Y-94804000D01*
X129740500Y-94474000D01*
X129980500Y-94804000D01*
G37*
X136391000Y-102521252D02*
X136391000Y-101998748D01*
X137861000Y-102521252D02*
X137861000Y-101998748D01*
X130521276Y-95743500D02*
X131030724Y-95743500D01*
X130521276Y-96788500D02*
X131030724Y-96788500D01*
X134317500Y-89281724D02*
X134317500Y-88772276D01*
X135362500Y-89281724D02*
X135362500Y-88772276D01*
X134317500Y-92964724D02*
X134317500Y-92455276D01*
X135362500Y-92964724D02*
X135362500Y-92455276D01*
%LPC*%
D16*
X138684000Y-82931000D03*
D17*
X138684000Y-85471000D03*
X136144000Y-82931000D03*
X136144000Y-85471000D03*
X133604000Y-82931000D03*
X133604000Y-85471000D03*
X131064000Y-82931000D03*
X131064000Y-85471000D03*
X128524000Y-82931000D03*
X128524000Y-85471000D03*
X125984000Y-82931000D03*
X125984000Y-85471000D03*
D18*
X125573400Y-110693200D03*
D19*
X127523400Y-107693200D03*
X131973400Y-107693200D03*
D18*
X133923400Y-110693200D03*
D16*
X137414000Y-75636200D03*
D17*
X137414000Y-78176200D03*
D16*
X129794000Y-75636200D03*
D17*
X129794000Y-78176200D03*
D20*
X138277600Y-109474000D03*
D21*
X140817600Y-109474000D03*
D16*
X133604000Y-75636200D03*
D17*
X133604000Y-78176200D03*
D22*
X127584200Y-104114600D03*
D21*
X127584200Y-101574600D03*
D16*
X141478000Y-74041000D03*
D17*
X141478000Y-76581000D03*
X141478000Y-79121000D03*
D16*
X125984000Y-75636200D03*
D17*
X125984000Y-78176200D03*
D23*
X128779100Y-68376800D03*
X130504100Y-68376800D03*
D24*
X132196500Y-88011000D03*
X130371500Y-88011000D03*
D25*
X128400900Y-70154800D03*
X130475900Y-70154800D03*
D26*
X141698000Y-105380700D03*
X141698000Y-103305700D03*
D27*
X125823000Y-92051500D03*
X125823000Y-93876500D03*
D28*
X127982000Y-89812500D03*
X127982000Y-87987500D03*
D29*
X131895500Y-98806000D03*
X133720500Y-98806000D03*
D30*
X129965500Y-93914000D03*
X129965500Y-92014000D03*
X131840500Y-92964000D03*
D31*
X137126000Y-101222500D03*
X137126000Y-103297500D03*
D24*
X131688500Y-96266000D03*
X129863500Y-96266000D03*
D27*
X134840000Y-88114500D03*
X134840000Y-89939500D03*
X134840000Y-91797500D03*
X134840000Y-93622500D03*
%LPD*%
M02*
