G04 #@! TF.GenerationSoftware,KiCad,Pcbnew,8.0.5*
G04 #@! TF.CreationDate,2024-10-24T23:20:29+02:00*
G04 #@! TF.ProjectId,iot-opentherm,696f742d-6f70-4656-9e74-6865726d2e6b,rev?*
G04 #@! TF.SameCoordinates,Original*
G04 #@! TF.FileFunction,Copper,L2,Inr*
G04 #@! TF.FilePolarity,Positive*
%FSLAX46Y46*%
G04 Gerber Fmt 4.6, Leading zero omitted, Abs format (unit mm)*
G04 Created by KiCad (PCBNEW 8.0.5) date 2024-10-24 23:20:29*
%MOMM*%
%LPD*%
G01*
G04 APERTURE LIST*
G04 #@! TA.AperFunction,ComponentPad*
%ADD10R,1.700000X1.700000*%
G04 #@! TD*
G04 #@! TA.AperFunction,ComponentPad*
%ADD11O,1.700000X1.700000*%
G04 #@! TD*
G04 #@! TA.AperFunction,ComponentPad*
%ADD12O,1.000000X1.900000*%
G04 #@! TD*
G04 #@! TA.AperFunction,ComponentPad*
%ADD13O,1.050000X1.250000*%
G04 #@! TD*
G04 #@! TA.AperFunction,ViaPad*
%ADD14C,1.143000*%
G04 #@! TD*
G04 #@! TA.AperFunction,ViaPad*
%ADD15C,1.016000*%
G04 #@! TD*
G04 #@! TA.AperFunction,ViaPad*
%ADD16C,0.889000*%
G04 #@! TD*
G04 #@! TA.AperFunction,ViaPad*
%ADD17C,1.270000*%
G04 #@! TD*
G04 #@! TA.AperFunction,ViaPad*
%ADD18C,0.762000*%
G04 #@! TD*
G04 APERTURE END LIST*
D10*
X138684000Y-82931000D03*
D11*
X138684000Y-85471000D03*
X136144000Y-82931000D03*
X136144000Y-85471000D03*
X133604000Y-82931000D03*
X133604000Y-85471000D03*
X131064000Y-82931000D03*
X131064000Y-85471000D03*
X128524000Y-82931000D03*
X128524000Y-85471000D03*
X125984000Y-82931000D03*
X125984000Y-85471000D03*
D12*
X125573400Y-110693200D03*
D13*
X127523400Y-107693200D03*
X131973400Y-107693200D03*
D12*
X133923400Y-110693200D03*
D10*
X137414000Y-75636200D03*
D11*
X137414000Y-78176200D03*
D10*
X129794000Y-75636200D03*
D11*
X129794000Y-78176200D03*
D10*
X138264000Y-109474000D03*
D11*
X140804000Y-109474000D03*
D10*
X133604000Y-75636200D03*
D11*
X133604000Y-78176200D03*
D10*
X126085600Y-103987600D03*
D11*
X128625600Y-103987600D03*
D10*
X141478000Y-74041000D03*
D11*
X141478000Y-76581000D03*
X141478000Y-79121000D03*
D10*
X125984000Y-75636200D03*
D11*
X125984000Y-78176200D03*
D14*
X138785600Y-102870000D03*
D15*
X128422400Y-106578400D03*
D16*
X125120400Y-89255600D03*
D14*
X141528800Y-101803200D03*
X139547600Y-68884800D03*
X137312400Y-107391200D03*
X135382000Y-105359200D03*
X130454400Y-71628000D03*
X130505200Y-67310000D03*
X128108054Y-109252723D03*
D16*
X135001000Y-94665800D03*
D17*
X141732000Y-107340400D03*
D14*
X139412000Y-97637600D03*
X141376400Y-97739200D03*
X136601200Y-99771200D03*
D16*
X131216400Y-89357200D03*
D14*
X139141200Y-107238800D03*
X127711200Y-68935600D03*
X142138400Y-99009200D03*
X137922000Y-97586800D03*
D18*
X141071600Y-88696800D03*
X126796800Y-95453200D03*
X140462000Y-94183200D03*
X138379200Y-91236800D03*
X133705600Y-97891600D03*
X141655800Y-94208600D03*
X128422400Y-98247200D03*
X139395200Y-94132400D03*
X137312400Y-94132400D03*
X135890000Y-92811600D03*
X137109200Y-70053200D03*
X137515600Y-61112400D03*
X137210800Y-63855600D03*
X138582400Y-55676800D03*
X138379200Y-57708800D03*
X136144000Y-61264800D03*
X136144000Y-63652400D03*
X138988800Y-67310000D03*
X132181600Y-69088000D03*
X133045200Y-66548000D03*
X127511600Y-66900000D03*
X128727200Y-72390000D03*
X133680200Y-73964800D03*
X131267200Y-65074800D03*
X131216400Y-72694800D03*
X127660400Y-64973200D03*
X139573000Y-59004200D03*
X135280400Y-65481200D03*
X128066800Y-55524400D03*
X130860800Y-98755200D03*
X129082800Y-89662000D03*
X133731000Y-89636600D03*
G04 #@! TA.AperFunction,Conductor*
G36*
X127590736Y-54425566D02*
G01*
X127656672Y-54478149D01*
X127693264Y-54554132D01*
X127693264Y-54638468D01*
X127656672Y-54714451D01*
X127619900Y-54749609D01*
X127468328Y-54859732D01*
X127468325Y-54859734D01*
X127343215Y-54998684D01*
X127249725Y-55160613D01*
X127191944Y-55338445D01*
X127172400Y-55524400D01*
X127191944Y-55710354D01*
X127249725Y-55888186D01*
X127343215Y-56050115D01*
X127468325Y-56189065D01*
X127468328Y-56189067D01*
X127468330Y-56189069D01*
X127619600Y-56298973D01*
X127790415Y-56375025D01*
X127881862Y-56394462D01*
X127973309Y-56413900D01*
X127973310Y-56413900D01*
X128160291Y-56413900D01*
X128221255Y-56400941D01*
X128343185Y-56375025D01*
X128514000Y-56298973D01*
X128665270Y-56189069D01*
X128790385Y-56050115D01*
X128883875Y-55888185D01*
X128941655Y-55710356D01*
X128961200Y-55524400D01*
X128941655Y-55338444D01*
X128883875Y-55160615D01*
X128790385Y-54998685D01*
X128781473Y-54988787D01*
X128665274Y-54859734D01*
X128665271Y-54859732D01*
X128619082Y-54826174D01*
X128514000Y-54749827D01*
X128513700Y-54749609D01*
X128458212Y-54686098D01*
X128435776Y-54604802D01*
X128450835Y-54521822D01*
X128500406Y-54453593D01*
X128574671Y-54413629D01*
X128625085Y-54406800D01*
X143066000Y-54406800D01*
X143148221Y-54425566D01*
X143214157Y-54478149D01*
X143250749Y-54554132D01*
X143255500Y-54596300D01*
X143255500Y-98136977D01*
X143236734Y-98219198D01*
X143184151Y-98285134D01*
X143108168Y-98321726D01*
X143023832Y-98321726D01*
X142947849Y-98285134D01*
X142938335Y-98277020D01*
X142792033Y-98143648D01*
X142792023Y-98143641D01*
X142621861Y-98038282D01*
X142621858Y-98038281D01*
X142573285Y-98019463D01*
X142503396Y-97972261D01*
X142460908Y-97899411D01*
X142453050Y-97825279D01*
X142461027Y-97739200D01*
X142442559Y-97539900D01*
X142387785Y-97347388D01*
X142298568Y-97168217D01*
X142177949Y-97008492D01*
X142177948Y-97008491D01*
X142177945Y-97008487D01*
X142030039Y-96873653D01*
X142030023Y-96873641D01*
X141859861Y-96768282D01*
X141673214Y-96695975D01*
X141476479Y-96659200D01*
X141476477Y-96659200D01*
X141276323Y-96659200D01*
X141276321Y-96659200D01*
X141079585Y-96695975D01*
X140892938Y-96768282D01*
X140722776Y-96873641D01*
X140722760Y-96873653D01*
X140574849Y-97008492D01*
X140572941Y-97010586D01*
X140571311Y-97011718D01*
X140568376Y-97014394D01*
X140568020Y-97014004D01*
X140503679Y-97058702D01*
X140420399Y-97072001D01*
X140339595Y-97047849D01*
X140281681Y-96997113D01*
X140213548Y-96906891D01*
X140213546Y-96906888D01*
X140065639Y-96772053D01*
X140065623Y-96772041D01*
X139895461Y-96666682D01*
X139708814Y-96594375D01*
X139512079Y-96557600D01*
X139512077Y-96557600D01*
X139311923Y-96557600D01*
X139311921Y-96557600D01*
X139115185Y-96594375D01*
X138928538Y-96666682D01*
X138804399Y-96743546D01*
X138724615Y-96770874D01*
X138640874Y-96760879D01*
X138582965Y-96726072D01*
X138582622Y-96726527D01*
X138578336Y-96723290D01*
X138576978Y-96722474D01*
X138575639Y-96721253D01*
X138575623Y-96721241D01*
X138405461Y-96615882D01*
X138218814Y-96543575D01*
X138022079Y-96506800D01*
X138022077Y-96506800D01*
X137821923Y-96506800D01*
X137821921Y-96506800D01*
X137625185Y-96543575D01*
X137438538Y-96615882D01*
X137268376Y-96721241D01*
X137268360Y-96721253D01*
X137120454Y-96856087D01*
X136999832Y-97015817D01*
X136910616Y-97194983D01*
X136864320Y-97357700D01*
X136855841Y-97387500D01*
X136837373Y-97586800D01*
X136855841Y-97786100D01*
X136855841Y-97786103D01*
X136855842Y-97786104D01*
X136910616Y-97978616D01*
X136966344Y-98090531D01*
X136999832Y-98157783D01*
X137096003Y-98285134D01*
X137120454Y-98317512D01*
X137268360Y-98452346D01*
X137268362Y-98452348D01*
X137268366Y-98452351D01*
X137268369Y-98452353D01*
X137268376Y-98452358D01*
X137438538Y-98557717D01*
X137438540Y-98557718D01*
X137625178Y-98630022D01*
X137625181Y-98630022D01*
X137625185Y-98630024D01*
X137821921Y-98666800D01*
X137821923Y-98666800D01*
X138022079Y-98666800D01*
X138218814Y-98630024D01*
X138218816Y-98630023D01*
X138218822Y-98630022D01*
X138405460Y-98557718D01*
X138529603Y-98480851D01*
X138609384Y-98453525D01*
X138693125Y-98463520D01*
X138751033Y-98498328D01*
X138751378Y-98497873D01*
X138755676Y-98501119D01*
X138757029Y-98501932D01*
X138758366Y-98503151D01*
X138758371Y-98503154D01*
X138758376Y-98503158D01*
X138922448Y-98604746D01*
X138928540Y-98608518D01*
X139115178Y-98680822D01*
X139115181Y-98680822D01*
X139115185Y-98680824D01*
X139311921Y-98717600D01*
X139311923Y-98717600D01*
X139512079Y-98717600D01*
X139708814Y-98680824D01*
X139708816Y-98680823D01*
X139708822Y-98680822D01*
X139895460Y-98608518D01*
X140065634Y-98503151D01*
X140213549Y-98368308D01*
X140213558Y-98368295D01*
X140215442Y-98366230D01*
X140217070Y-98365098D01*
X140220024Y-98362406D01*
X140220381Y-98362797D01*
X140284699Y-98318106D01*
X140367977Y-98304797D01*
X140448783Y-98328939D01*
X140506716Y-98379683D01*
X140535135Y-98417315D01*
X140574854Y-98469912D01*
X140722760Y-98604746D01*
X140722762Y-98604748D01*
X140722766Y-98604751D01*
X140722769Y-98604753D01*
X140722776Y-98604758D01*
X140892938Y-98710117D01*
X140892947Y-98710121D01*
X140941512Y-98728936D01*
X141011402Y-98776136D01*
X141053891Y-98848987D01*
X141061749Y-98923123D01*
X141053773Y-99009200D01*
X141072241Y-99208500D01*
X141072241Y-99208503D01*
X141072242Y-99208504D01*
X141127016Y-99401016D01*
X141186411Y-99520295D01*
X141216232Y-99580183D01*
X141302405Y-99694294D01*
X141336854Y-99739912D01*
X141484760Y-99874746D01*
X141484762Y-99874748D01*
X141484766Y-99874751D01*
X141484769Y-99874753D01*
X141484776Y-99874758D01*
X141654938Y-99980117D01*
X141654940Y-99980118D01*
X141841578Y-100052422D01*
X141841581Y-100052422D01*
X141841585Y-100052424D01*
X142038321Y-100089200D01*
X142038323Y-100089200D01*
X142238479Y-100089200D01*
X142435214Y-100052424D01*
X142435216Y-100052423D01*
X142435222Y-100052422D01*
X142621860Y-99980118D01*
X142792034Y-99874751D01*
X142887063Y-99788120D01*
X142938335Y-99741380D01*
X143011739Y-99699856D01*
X143095891Y-99694294D01*
X143174123Y-99725795D01*
X143230939Y-99788120D01*
X143255087Y-99868924D01*
X143255500Y-99881422D01*
X143255500Y-107289563D01*
X143245264Y-107334407D01*
X143255500Y-107391236D01*
X143255500Y-111443149D01*
X143236734Y-111525370D01*
X143184151Y-111591306D01*
X143108168Y-111627898D01*
X143066041Y-111632649D01*
X135084397Y-111634359D01*
X135002172Y-111615610D01*
X134936224Y-111563042D01*
X134899616Y-111487066D01*
X134898497Y-111407889D01*
X134931400Y-111242477D01*
X134931400Y-110947201D01*
X134931399Y-110947200D01*
X134223400Y-110947200D01*
X134223400Y-110439200D01*
X134931399Y-110439200D01*
X134931400Y-110439199D01*
X134931400Y-110143921D01*
X134892663Y-109949176D01*
X134816678Y-109765732D01*
X134816677Y-109765730D01*
X134706364Y-109600637D01*
X134565962Y-109460235D01*
X134400869Y-109349922D01*
X134400864Y-109349920D01*
X134217428Y-109273939D01*
X134217418Y-109273935D01*
X134177400Y-109265974D01*
X134177400Y-110183139D01*
X134163460Y-110158995D01*
X134107605Y-110103140D01*
X134039196Y-110063644D01*
X133962896Y-110043200D01*
X133883904Y-110043200D01*
X133807604Y-110063644D01*
X133739195Y-110103140D01*
X133683340Y-110158995D01*
X133669400Y-110183139D01*
X133669400Y-109265974D01*
X133629381Y-109273935D01*
X133629371Y-109273939D01*
X133445935Y-109349920D01*
X133445930Y-109349922D01*
X133280837Y-109460235D01*
X133140435Y-109600637D01*
X133030122Y-109765730D01*
X133030121Y-109765732D01*
X133024712Y-109778793D01*
X132975909Y-109847574D01*
X132902096Y-109888368D01*
X132817894Y-109893096D01*
X132739978Y-109860822D01*
X132725799Y-109848849D01*
X132725669Y-109849009D01*
X132718472Y-109843102D01*
X132565578Y-109740942D01*
X132395692Y-109670573D01*
X132215342Y-109634700D01*
X132031458Y-109634700D01*
X131851107Y-109670573D01*
X131681221Y-109740942D01*
X131528329Y-109843101D01*
X131398301Y-109973129D01*
X131296142Y-110126021D01*
X131225773Y-110295907D01*
X131189900Y-110476258D01*
X131189900Y-111445200D01*
X131171134Y-111527421D01*
X131118551Y-111593357D01*
X131042568Y-111629949D01*
X131000400Y-111634700D01*
X128496400Y-111634700D01*
X128414179Y-111615934D01*
X128348243Y-111563351D01*
X128311651Y-111487368D01*
X128306900Y-111445200D01*
X128306900Y-110476258D01*
X128271026Y-110295907D01*
X128200657Y-110126021D01*
X128098498Y-109973129D01*
X127968470Y-109843101D01*
X127815578Y-109740942D01*
X127645692Y-109670573D01*
X127465342Y-109634700D01*
X127281458Y-109634700D01*
X127101107Y-109670573D01*
X126931221Y-109740942D01*
X126778327Y-109843102D01*
X126771131Y-109849009D01*
X126769813Y-109847404D01*
X126709726Y-109885148D01*
X126625920Y-109894580D01*
X126546321Y-109866715D01*
X126486694Y-109807073D01*
X126472084Y-109778787D01*
X126466675Y-109765728D01*
X126356364Y-109600637D01*
X126215962Y-109460235D01*
X126050869Y-109349922D01*
X126050864Y-109349920D01*
X125867428Y-109273939D01*
X125867418Y-109273935D01*
X125827400Y-109265974D01*
X125827400Y-110183139D01*
X125813460Y-110158995D01*
X125757605Y-110103140D01*
X125689196Y-110063644D01*
X125612896Y-110043200D01*
X125533904Y-110043200D01*
X125457604Y-110063644D01*
X125389195Y-110103140D01*
X125333340Y-110158995D01*
X125319400Y-110183139D01*
X125319400Y-109265974D01*
X125279381Y-109273935D01*
X125279371Y-109273939D01*
X125095935Y-109349920D01*
X125095930Y-109349922D01*
X124930837Y-109460235D01*
X124790435Y-109600637D01*
X124680122Y-109765730D01*
X124680121Y-109765732D01*
X124604136Y-109949176D01*
X124565400Y-110143921D01*
X124565400Y-110439199D01*
X124565401Y-110439200D01*
X125273400Y-110439200D01*
X125273400Y-110947200D01*
X124565401Y-110947200D01*
X124565400Y-110947201D01*
X124565400Y-111242478D01*
X124598098Y-111406864D01*
X124595732Y-111491166D01*
X124557024Y-111566093D01*
X124489639Y-111616806D01*
X124412076Y-111633333D01*
X124141837Y-111633101D01*
X124059632Y-111614264D01*
X123993742Y-111561625D01*
X123957215Y-111485610D01*
X123952500Y-111443601D01*
X123952500Y-107439200D01*
X126500795Y-107439200D01*
X127237035Y-107439200D01*
X127220549Y-107467755D01*
X127198400Y-107550413D01*
X127198400Y-107835987D01*
X127220549Y-107918645D01*
X127237035Y-107947200D01*
X126500795Y-107947200D01*
X126530097Y-108094515D01*
X126607962Y-108282499D01*
X126607967Y-108282509D01*
X126721013Y-108451694D01*
X126864905Y-108595586D01*
X127034090Y-108708632D01*
X127034100Y-108708637D01*
X127222083Y-108786501D01*
X127222086Y-108786502D01*
X127269399Y-108795913D01*
X127269400Y-108795912D01*
X127269400Y-107998818D01*
X127323846Y-108053264D01*
X127397955Y-108096051D01*
X127480613Y-108118200D01*
X127566187Y-108118200D01*
X127648845Y-108096051D01*
X127722954Y-108053264D01*
X127777400Y-107998818D01*
X127777400Y-108795913D01*
X127824713Y-108786502D01*
X127824716Y-108786501D01*
X128012699Y-108708637D01*
X128012709Y-108708632D01*
X128181894Y-108595586D01*
X128181895Y-108595586D01*
X128325786Y-108451695D01*
X128325786Y-108451694D01*
X128438832Y-108282509D01*
X128438837Y-108282499D01*
X128516702Y-108094515D01*
X128546005Y-107947200D01*
X127809765Y-107947200D01*
X127826251Y-107918645D01*
X127848400Y-107835987D01*
X127848400Y-107550413D01*
X127826251Y-107467755D01*
X127809765Y-107439200D01*
X128546004Y-107439200D01*
X130950795Y-107439200D01*
X131687035Y-107439200D01*
X131670549Y-107467755D01*
X131648400Y-107550413D01*
X131648400Y-107835987D01*
X131670549Y-107918645D01*
X131687035Y-107947200D01*
X130950795Y-107947200D01*
X130980097Y-108094515D01*
X131057962Y-108282499D01*
X131057967Y-108282509D01*
X131171013Y-108451694D01*
X131314905Y-108595586D01*
X131484090Y-108708632D01*
X131484100Y-108708637D01*
X131672083Y-108786501D01*
X131672086Y-108786502D01*
X131719399Y-108795913D01*
X131719400Y-108795912D01*
X131719400Y-107998818D01*
X131773846Y-108053264D01*
X131847955Y-108096051D01*
X131930613Y-108118200D01*
X132016187Y-108118200D01*
X132098845Y-108096051D01*
X132172954Y-108053264D01*
X132227400Y-107998818D01*
X132227400Y-108795913D01*
X132274713Y-108786502D01*
X132274716Y-108786501D01*
X132462699Y-108708637D01*
X132462709Y-108708632D01*
X132631894Y-108595586D01*
X132631895Y-108595586D01*
X132652081Y-108575400D01*
X136906000Y-108575400D01*
X136906000Y-109219999D01*
X136906001Y-109220000D01*
X137833297Y-109220000D01*
X137798075Y-109281007D01*
X137764000Y-109408174D01*
X137764000Y-109539826D01*
X137798075Y-109666993D01*
X137833297Y-109728000D01*
X136906001Y-109728000D01*
X136906000Y-109728001D01*
X136906000Y-110372599D01*
X136912504Y-110433094D01*
X136963553Y-110569960D01*
X137051094Y-110686901D01*
X137051098Y-110686905D01*
X137168039Y-110774446D01*
X137304905Y-110825495D01*
X137365400Y-110831999D01*
X137365413Y-110832000D01*
X138009999Y-110832000D01*
X138010000Y-110831999D01*
X138010000Y-109904702D01*
X138071007Y-109939925D01*
X138198174Y-109974000D01*
X138329826Y-109974000D01*
X138456993Y-109939925D01*
X138518000Y-109904702D01*
X138518000Y-110831999D01*
X138518001Y-110832000D01*
X139162587Y-110832000D01*
X139162599Y-110831999D01*
X139223094Y-110825495D01*
X139359960Y-110774446D01*
X139476901Y-110686905D01*
X139476905Y-110686901D01*
X139564445Y-110569962D01*
X139572620Y-110548044D01*
X139618935Y-110477564D01*
X139691243Y-110434159D01*
X139775223Y-110426426D01*
X139854242Y-110455896D01*
X139878519Y-110474844D01*
X139880753Y-110476900D01*
X139880758Y-110476904D01*
X139880760Y-110476906D01*
X140058424Y-110615189D01*
X140256426Y-110722342D01*
X140469365Y-110795444D01*
X140495877Y-110799868D01*
X140691426Y-110832500D01*
X140691431Y-110832500D01*
X140916574Y-110832500D01*
X141075018Y-110806059D01*
X141138635Y-110795444D01*
X141351574Y-110722342D01*
X141549576Y-110615189D01*
X141727240Y-110476906D01*
X141879722Y-110311268D01*
X142002860Y-110122791D01*
X142093296Y-109916616D01*
X142148564Y-109698368D01*
X142167156Y-109474000D01*
X142148564Y-109249632D01*
X142093296Y-109031384D01*
X142068125Y-108974000D01*
X142002862Y-108825212D01*
X141977571Y-108786501D01*
X141940952Y-108730452D01*
X141911694Y-108651360D01*
X141919650Y-108567400D01*
X141963247Y-108495208D01*
X142033850Y-108449080D01*
X142045254Y-108445354D01*
X142046268Y-108444961D01*
X142046274Y-108444960D01*
X142243885Y-108368405D01*
X142424065Y-108256842D01*
X142511071Y-108177524D01*
X142580673Y-108114075D01*
X142580673Y-108114073D01*
X142580677Y-108114071D01*
X142708389Y-107944954D01*
X142802850Y-107755250D01*
X142860845Y-107551418D01*
X142877308Y-107373748D01*
X142887330Y-107343178D01*
X142877308Y-107307048D01*
X142875903Y-107291884D01*
X142860845Y-107129382D01*
X142802850Y-106925550D01*
X142708389Y-106735846D01*
X142580677Y-106566729D01*
X142580676Y-106566728D01*
X142580673Y-106566724D01*
X142424070Y-106423962D01*
X142424058Y-106423953D01*
X142243883Y-106312394D01*
X142046271Y-106235839D01*
X141969186Y-106221430D01*
X141837961Y-106196900D01*
X141626039Y-106196900D01*
X141512667Y-106218092D01*
X141417728Y-106235839D01*
X141220116Y-106312394D01*
X141039941Y-106423953D01*
X141039929Y-106423962D01*
X140883326Y-106566724D01*
X140755611Y-106735846D01*
X140661151Y-106925545D01*
X140603154Y-107129381D01*
X140598112Y-107183796D01*
X140571839Y-107263934D01*
X140542952Y-107293987D01*
X140577597Y-107346772D01*
X140588698Y-107395405D01*
X140603155Y-107551418D01*
X140603155Y-107551421D01*
X140603156Y-107551422D01*
X140661151Y-107755254D01*
X140714949Y-107863293D01*
X140734799Y-107945259D01*
X140717120Y-108027720D01*
X140665413Y-108094345D01*
X140589919Y-108131937D01*
X140576509Y-108134676D01*
X140469369Y-108152555D01*
X140469355Y-108152559D01*
X140256425Y-108225657D01*
X140157090Y-108279415D01*
X140075847Y-108302043D01*
X139992832Y-108287180D01*
X139924486Y-108237769D01*
X139884347Y-108163598D01*
X139880365Y-108079357D01*
X139913328Y-108001730D01*
X139939236Y-107972709D01*
X139942749Y-107969508D01*
X140063368Y-107809783D01*
X140152585Y-107630612D01*
X140207359Y-107438100D01*
X140211315Y-107395403D01*
X140237586Y-107315269D01*
X140266473Y-107285213D01*
X140231829Y-107232424D01*
X140220730Y-107183800D01*
X140207359Y-107039500D01*
X140152585Y-106846988D01*
X140063368Y-106667817D01*
X139942749Y-106508092D01*
X139942748Y-106508091D01*
X139942745Y-106508087D01*
X139794839Y-106373253D01*
X139794823Y-106373241D01*
X139624661Y-106267882D01*
X139438014Y-106195575D01*
X139241279Y-106158800D01*
X139241277Y-106158800D01*
X139041123Y-106158800D01*
X139041121Y-106158800D01*
X138844385Y-106195575D01*
X138657738Y-106267882D01*
X138487576Y-106373241D01*
X138487560Y-106373253D01*
X138339654Y-106508087D01*
X138219032Y-106667817D01*
X138129816Y-106846983D01*
X138104858Y-106934705D01*
X138075041Y-107039500D01*
X138056573Y-107238800D01*
X138075041Y-107438100D01*
X138075041Y-107438103D01*
X138075042Y-107438104D01*
X138129816Y-107630616D01*
X138219032Y-107809783D01*
X138220932Y-107812299D01*
X138221839Y-107814318D01*
X138223646Y-107817236D01*
X138223258Y-107817475D01*
X138255506Y-107889222D01*
X138253281Y-107973528D01*
X138214697Y-108048520D01*
X138147396Y-108099344D01*
X138069709Y-108116000D01*
X137365400Y-108116000D01*
X137304905Y-108122504D01*
X137168039Y-108173553D01*
X137051098Y-108261094D01*
X137051094Y-108261098D01*
X136963553Y-108378039D01*
X136912504Y-108514905D01*
X136906000Y-108575400D01*
X132652081Y-108575400D01*
X132775786Y-108451695D01*
X132775786Y-108451694D01*
X132888832Y-108282509D01*
X132888837Y-108282499D01*
X132966702Y-108094515D01*
X132996005Y-107947200D01*
X132259765Y-107947200D01*
X132276251Y-107918645D01*
X132298400Y-107835987D01*
X132298400Y-107550413D01*
X132276251Y-107467755D01*
X132259765Y-107439200D01*
X132996004Y-107439200D01*
X132966702Y-107291884D01*
X132888837Y-107103900D01*
X132888832Y-107103890D01*
X132775786Y-106934705D01*
X132631894Y-106790813D01*
X132462709Y-106677767D01*
X132462699Y-106677762D01*
X132274719Y-106599899D01*
X132274717Y-106599898D01*
X132227400Y-106590485D01*
X132227400Y-107387582D01*
X132172954Y-107333136D01*
X132098845Y-107290349D01*
X132016187Y-107268200D01*
X131930613Y-107268200D01*
X131847955Y-107290349D01*
X131773846Y-107333136D01*
X131719400Y-107387582D01*
X131719400Y-106590486D01*
X131719399Y-106590485D01*
X131672082Y-106599898D01*
X131672080Y-106599899D01*
X131484100Y-106677762D01*
X131484090Y-106677767D01*
X131314905Y-106790813D01*
X131314905Y-106790814D01*
X131171014Y-106934705D01*
X131171013Y-106934705D01*
X131057967Y-107103890D01*
X131057962Y-107103900D01*
X130980097Y-107291884D01*
X130950795Y-107439200D01*
X128546004Y-107439200D01*
X128516702Y-107291884D01*
X128438837Y-107103900D01*
X128438832Y-107103890D01*
X128325786Y-106934705D01*
X128181894Y-106790813D01*
X128012709Y-106677767D01*
X128012699Y-106677762D01*
X127824719Y-106599899D01*
X127824717Y-106599898D01*
X127777400Y-106590485D01*
X127777400Y-107387582D01*
X127722954Y-107333136D01*
X127648845Y-107290349D01*
X127566187Y-107268200D01*
X127480613Y-107268200D01*
X127397955Y-107290349D01*
X127323846Y-107333136D01*
X127269400Y-107387582D01*
X127269400Y-106590486D01*
X127269399Y-106590485D01*
X127222082Y-106599898D01*
X127222080Y-106599899D01*
X127034100Y-106677762D01*
X127034090Y-106677767D01*
X126864905Y-106790813D01*
X126864905Y-106790814D01*
X126721014Y-106934705D01*
X126721013Y-106934705D01*
X126607967Y-107103890D01*
X126607962Y-107103900D01*
X126530097Y-107291884D01*
X126500795Y-107439200D01*
X123952500Y-107439200D01*
X123952500Y-103088950D01*
X124727100Y-103088950D01*
X124727100Y-104886249D01*
X124733610Y-104946799D01*
X124733612Y-104946807D01*
X124784710Y-105083803D01*
X124818386Y-105128788D01*
X124872339Y-105200861D01*
X124919202Y-105235942D01*
X124989396Y-105288489D01*
X125126392Y-105339587D01*
X125126396Y-105339588D01*
X125126399Y-105339589D01*
X125142772Y-105341349D01*
X125186950Y-105346099D01*
X125186955Y-105346099D01*
X125186962Y-105346100D01*
X125186967Y-105346100D01*
X126984233Y-105346100D01*
X126984238Y-105346100D01*
X126984244Y-105346099D01*
X126984249Y-105346099D01*
X127012054Y-105343109D01*
X127044801Y-105339589D01*
X127044805Y-105339587D01*
X127044807Y-105339587D01*
X127098159Y-105319687D01*
X127181804Y-105288489D01*
X127298861Y-105200861D01*
X127386489Y-105083804D01*
X127394620Y-105062003D01*
X127440934Y-104991527D01*
X127513243Y-104948123D01*
X127597223Y-104940391D01*
X127676241Y-104969863D01*
X127700521Y-104988813D01*
X127702359Y-104990505D01*
X127702360Y-104990506D01*
X127880024Y-105128789D01*
X128078026Y-105235942D01*
X128290965Y-105309044D01*
X128328205Y-105315258D01*
X128513026Y-105346100D01*
X128513031Y-105346100D01*
X128738174Y-105346100D01*
X128896618Y-105319659D01*
X128960235Y-105309044D01*
X129173174Y-105235942D01*
X129371176Y-105128789D01*
X129548840Y-104990506D01*
X129701322Y-104824868D01*
X129824460Y-104636391D01*
X129914896Y-104430216D01*
X129970164Y-104211968D01*
X129988756Y-103987600D01*
X129970164Y-103763232D01*
X129914896Y-103544984D01*
X129824460Y-103338809D01*
X129701322Y-103150332D01*
X129678880Y-103125954D01*
X129548840Y-102984693D01*
X129371176Y-102846411D01*
X129371172Y-102846409D01*
X129173177Y-102739259D01*
X129173174Y-102739258D01*
X128960244Y-102666159D01*
X128960242Y-102666158D01*
X128960235Y-102666156D01*
X128960232Y-102666155D01*
X128960227Y-102666154D01*
X128738174Y-102629100D01*
X128738169Y-102629100D01*
X128513031Y-102629100D01*
X128513026Y-102629100D01*
X128290972Y-102666154D01*
X128290955Y-102666159D01*
X128078025Y-102739258D01*
X128078022Y-102739259D01*
X127880027Y-102846409D01*
X127880023Y-102846411D01*
X127702353Y-102984699D01*
X127700511Y-102986395D01*
X127699241Y-102987121D01*
X127696175Y-102989508D01*
X127695834Y-102989070D01*
X127627307Y-103028272D01*
X127543183Y-103034241D01*
X127464801Y-103003118D01*
X127407684Y-102941068D01*
X127394619Y-102913194D01*
X127386489Y-102891396D01*
X127298861Y-102774339D01*
X127181804Y-102686711D01*
X127181803Y-102686710D01*
X127044807Y-102635612D01*
X127044799Y-102635610D01*
X126984249Y-102629100D01*
X126984238Y-102629100D01*
X125186962Y-102629100D01*
X125186950Y-102629100D01*
X125126400Y-102635610D01*
X125126392Y-102635612D01*
X124989396Y-102686710D01*
X124872341Y-102774337D01*
X124872337Y-102774341D01*
X124784710Y-102891396D01*
X124733612Y-103028392D01*
X124733610Y-103028400D01*
X124727100Y-103088950D01*
X123952500Y-103088950D01*
X123952500Y-99771200D01*
X135516573Y-99771200D01*
X135535041Y-99970500D01*
X135535041Y-99970503D01*
X135535042Y-99970504D01*
X135589816Y-100163016D01*
X135649211Y-100282295D01*
X135679032Y-100342183D01*
X135796440Y-100497657D01*
X135799654Y-100501912D01*
X135947560Y-100636746D01*
X135947562Y-100636748D01*
X135947566Y-100636751D01*
X135947569Y-100636753D01*
X135947576Y-100636758D01*
X136117738Y-100742117D01*
X136117740Y-100742118D01*
X136304378Y-100814422D01*
X136304381Y-100814422D01*
X136304385Y-100814424D01*
X136501121Y-100851200D01*
X136501123Y-100851200D01*
X136701279Y-100851200D01*
X136898014Y-100814424D01*
X136898016Y-100814423D01*
X136898022Y-100814422D01*
X137084660Y-100742118D01*
X137254834Y-100636751D01*
X137402749Y-100501908D01*
X137523368Y-100342183D01*
X137612585Y-100163012D01*
X137667359Y-99970500D01*
X137685827Y-99771200D01*
X137667359Y-99571900D01*
X137612585Y-99379388D01*
X137523368Y-99200217D01*
X137402749Y-99040492D01*
X137402748Y-99040491D01*
X137402745Y-99040487D01*
X137254839Y-98905653D01*
X137254823Y-98905641D01*
X137084661Y-98800282D01*
X136898014Y-98727975D01*
X136701279Y-98691200D01*
X136701277Y-98691200D01*
X136501123Y-98691200D01*
X136501121Y-98691200D01*
X136304385Y-98727975D01*
X136117738Y-98800282D01*
X135947576Y-98905641D01*
X135947560Y-98905653D01*
X135799654Y-99040487D01*
X135679032Y-99200217D01*
X135589816Y-99379383D01*
X135578298Y-99419867D01*
X135535041Y-99571900D01*
X135516573Y-99771200D01*
X123952500Y-99771200D01*
X123952500Y-98247200D01*
X127528000Y-98247200D01*
X127547544Y-98433154D01*
X127605325Y-98610986D01*
X127698815Y-98772915D01*
X127823925Y-98911865D01*
X127823928Y-98911867D01*
X127823930Y-98911869D01*
X127975200Y-99021773D01*
X128146015Y-99097825D01*
X128237462Y-99117262D01*
X128328909Y-99136700D01*
X128328910Y-99136700D01*
X128515891Y-99136700D01*
X128599229Y-99118986D01*
X128698785Y-99097825D01*
X128869600Y-99021773D01*
X129020870Y-98911869D01*
X129145985Y-98772915D01*
X129156213Y-98755200D01*
X129966400Y-98755200D01*
X129985944Y-98941154D01*
X130043725Y-99118986D01*
X130137215Y-99280915D01*
X130262325Y-99419865D01*
X130262328Y-99419867D01*
X130262330Y-99419869D01*
X130413600Y-99529773D01*
X130584415Y-99605825D01*
X130675862Y-99625262D01*
X130767309Y-99644700D01*
X130767310Y-99644700D01*
X130954291Y-99644700D01*
X131015255Y-99631741D01*
X131137185Y-99605825D01*
X131308000Y-99529773D01*
X131459270Y-99419869D01*
X131476246Y-99401016D01*
X131495724Y-99379383D01*
X131584385Y-99280915D01*
X131677875Y-99118985D01*
X131735655Y-98941156D01*
X131755200Y-98755200D01*
X131735655Y-98569244D01*
X131677875Y-98391415D01*
X131663334Y-98366230D01*
X131599338Y-98255385D01*
X131584385Y-98229485D01*
X131565565Y-98208583D01*
X131459274Y-98090534D01*
X131459271Y-98090532D01*
X131441411Y-98077556D01*
X131308000Y-97980627D01*
X131137185Y-97904575D01*
X131137183Y-97904574D01*
X131076144Y-97891600D01*
X132811200Y-97891600D01*
X132830744Y-98077554D01*
X132888525Y-98255386D01*
X132982015Y-98417315D01*
X133107125Y-98556265D01*
X133107128Y-98556267D01*
X133107130Y-98556269D01*
X133258400Y-98666173D01*
X133429215Y-98742225D01*
X133520662Y-98761662D01*
X133612109Y-98781100D01*
X133612110Y-98781100D01*
X133799091Y-98781100D01*
X133860055Y-98768141D01*
X133981985Y-98742225D01*
X134152800Y-98666173D01*
X134304070Y-98556269D01*
X134429185Y-98417315D01*
X134522675Y-98255385D01*
X134580455Y-98077556D01*
X134600000Y-97891600D01*
X134580455Y-97705644D01*
X134522675Y-97527815D01*
X134429185Y-97365885D01*
X134412526Y-97347383D01*
X134304074Y-97226934D01*
X134304071Y-97226932D01*
X134260097Y-97194983D01*
X134152800Y-97117027D01*
X133981985Y-97040975D01*
X133981983Y-97040974D01*
X133799091Y-97002100D01*
X133799090Y-97002100D01*
X133612110Y-97002100D01*
X133612109Y-97002100D01*
X133429216Y-97040974D01*
X133371622Y-97066617D01*
X133258400Y-97117027D01*
X133258397Y-97117028D01*
X133258397Y-97117029D01*
X133107128Y-97226932D01*
X133107125Y-97226934D01*
X132982015Y-97365884D01*
X132888525Y-97527813D01*
X132830744Y-97705645D01*
X132811200Y-97891600D01*
X131076144Y-97891600D01*
X130954291Y-97865700D01*
X130954290Y-97865700D01*
X130767310Y-97865700D01*
X130767309Y-97865700D01*
X130584416Y-97904574D01*
X130508218Y-97938500D01*
X130413600Y-97980627D01*
X130413597Y-97980628D01*
X130413597Y-97980629D01*
X130262328Y-98090532D01*
X130262325Y-98090534D01*
X130137215Y-98229484D01*
X130043725Y-98391413D01*
X129985944Y-98569245D01*
X129966400Y-98755200D01*
X129156213Y-98755200D01*
X129239475Y-98610985D01*
X129297255Y-98433156D01*
X129316800Y-98247200D01*
X129297255Y-98061244D01*
X129239475Y-97883415D01*
X129145985Y-97721485D01*
X129131722Y-97705644D01*
X129020874Y-97582534D01*
X129020871Y-97582532D01*
X128962193Y-97539900D01*
X128869600Y-97472627D01*
X128698785Y-97396575D01*
X128698783Y-97396574D01*
X128515891Y-97357700D01*
X128515890Y-97357700D01*
X128328910Y-97357700D01*
X128328909Y-97357700D01*
X128146016Y-97396574D01*
X128068280Y-97431184D01*
X127975200Y-97472627D01*
X127975197Y-97472628D01*
X127975197Y-97472629D01*
X127823928Y-97582532D01*
X127823925Y-97582534D01*
X127698815Y-97721484D01*
X127605325Y-97883413D01*
X127547544Y-98061245D01*
X127528000Y-98247200D01*
X123952500Y-98247200D01*
X123952500Y-95453200D01*
X125902400Y-95453200D01*
X125921944Y-95639154D01*
X125979725Y-95816986D01*
X126073215Y-95978915D01*
X126198325Y-96117865D01*
X126198328Y-96117867D01*
X126198330Y-96117869D01*
X126349600Y-96227773D01*
X126520415Y-96303825D01*
X126611862Y-96323262D01*
X126703309Y-96342700D01*
X126703310Y-96342700D01*
X126890291Y-96342700D01*
X126951255Y-96329741D01*
X127073185Y-96303825D01*
X127244000Y-96227773D01*
X127395270Y-96117869D01*
X127520385Y-95978915D01*
X127613875Y-95816985D01*
X127671655Y-95639156D01*
X127691200Y-95453200D01*
X127671655Y-95267244D01*
X127613875Y-95089415D01*
X127520385Y-94927485D01*
X127458985Y-94859293D01*
X127395274Y-94788534D01*
X127395271Y-94788532D01*
X127395270Y-94788531D01*
X127244000Y-94678627D01*
X127073185Y-94602575D01*
X127073183Y-94602574D01*
X126890291Y-94563700D01*
X126890290Y-94563700D01*
X126703310Y-94563700D01*
X126703309Y-94563700D01*
X126520416Y-94602574D01*
X126442680Y-94637184D01*
X126349600Y-94678627D01*
X126349597Y-94678628D01*
X126349597Y-94678629D01*
X126198328Y-94788532D01*
X126198325Y-94788534D01*
X126073215Y-94927484D01*
X125979725Y-95089413D01*
X125921944Y-95267245D01*
X125902400Y-95453200D01*
X123952500Y-95453200D01*
X123952500Y-92811600D01*
X134995600Y-92811600D01*
X135015144Y-92997554D01*
X135072925Y-93175386D01*
X135166415Y-93337315D01*
X135291525Y-93476265D01*
X135291528Y-93476267D01*
X135291530Y-93476269D01*
X135442800Y-93586173D01*
X135613615Y-93662225D01*
X135705062Y-93681662D01*
X135796509Y-93701100D01*
X135796510Y-93701100D01*
X135983491Y-93701100D01*
X136069186Y-93682885D01*
X136166385Y-93662225D01*
X136202549Y-93646123D01*
X136285287Y-93629825D01*
X136366910Y-93651040D01*
X136431245Y-93705569D01*
X136465550Y-93782613D01*
X136463029Y-93866911D01*
X136459849Y-93877796D01*
X136437544Y-93946444D01*
X136418000Y-94132400D01*
X136437544Y-94318354D01*
X136495325Y-94496186D01*
X136588815Y-94658115D01*
X136713925Y-94797065D01*
X136713928Y-94797067D01*
X136713930Y-94797069D01*
X136865200Y-94906973D01*
X137036015Y-94983025D01*
X137127462Y-95002462D01*
X137218909Y-95021900D01*
X137218910Y-95021900D01*
X137405891Y-95021900D01*
X137466855Y-95008941D01*
X137588785Y-94983025D01*
X137759600Y-94906973D01*
X137910870Y-94797069D01*
X138035985Y-94658115D01*
X138129475Y-94496185D01*
X138173575Y-94360459D01*
X138216830Y-94288061D01*
X138287214Y-94241601D01*
X138370786Y-94230280D01*
X138450994Y-94256341D01*
X138511951Y-94314622D01*
X138534025Y-94360459D01*
X138578124Y-94496185D01*
X138671615Y-94658115D01*
X138796725Y-94797065D01*
X138796728Y-94797067D01*
X138796730Y-94797069D01*
X138948000Y-94906973D01*
X139118815Y-94983025D01*
X139210262Y-95002462D01*
X139301709Y-95021900D01*
X139301710Y-95021900D01*
X139488691Y-95021900D01*
X139549655Y-95008941D01*
X139671585Y-94983025D01*
X139805995Y-94923181D01*
X139888737Y-94906884D01*
X139970360Y-94928101D01*
X139994445Y-94942985D01*
X140014800Y-94957773D01*
X140185615Y-95033825D01*
X140277062Y-95053262D01*
X140368509Y-95072700D01*
X140368510Y-95072700D01*
X140555491Y-95072700D01*
X140618886Y-95059225D01*
X140738385Y-95033825D01*
X140909200Y-94957773D01*
X140930033Y-94942636D01*
X141007578Y-94909490D01*
X141091828Y-94913272D01*
X141152804Y-94942635D01*
X141208600Y-94983173D01*
X141379415Y-95059225D01*
X141442811Y-95072700D01*
X141562309Y-95098100D01*
X141562310Y-95098100D01*
X141749291Y-95098100D01*
X141810255Y-95085141D01*
X141932185Y-95059225D01*
X142103000Y-94983173D01*
X142254270Y-94873269D01*
X142379385Y-94734315D01*
X142472875Y-94572385D01*
X142530655Y-94394556D01*
X142550200Y-94208600D01*
X142530655Y-94022644D01*
X142472875Y-93844815D01*
X142379385Y-93682885D01*
X142346286Y-93646125D01*
X142254274Y-93543934D01*
X142254271Y-93543932D01*
X142254270Y-93543931D01*
X142103000Y-93434027D01*
X141932185Y-93357975D01*
X141932183Y-93357974D01*
X141749291Y-93319100D01*
X141749290Y-93319100D01*
X141562310Y-93319100D01*
X141562309Y-93319100D01*
X141379414Y-93357975D01*
X141208602Y-93434025D01*
X141208596Y-93434028D01*
X141187761Y-93449166D01*
X141110211Y-93482310D01*
X141025961Y-93478525D01*
X140964993Y-93449163D01*
X140909203Y-93408629D01*
X140909202Y-93408628D01*
X140909200Y-93408627D01*
X140738385Y-93332575D01*
X140738383Y-93332574D01*
X140555491Y-93293700D01*
X140555490Y-93293700D01*
X140368510Y-93293700D01*
X140368509Y-93293700D01*
X140185614Y-93332575D01*
X140051207Y-93392417D01*
X139968462Y-93408715D01*
X139886839Y-93387497D01*
X139862746Y-93372609D01*
X139842403Y-93357829D01*
X139842404Y-93357829D01*
X139671583Y-93281774D01*
X139488691Y-93242900D01*
X139488690Y-93242900D01*
X139301710Y-93242900D01*
X139301709Y-93242900D01*
X139118816Y-93281774D01*
X139046046Y-93314174D01*
X138948000Y-93357827D01*
X138947997Y-93357828D01*
X138947997Y-93357829D01*
X138796728Y-93467732D01*
X138796725Y-93467734D01*
X138671615Y-93606684D01*
X138578125Y-93768613D01*
X138534025Y-93904341D01*
X138490770Y-93976738D01*
X138420385Y-94023199D01*
X138336813Y-94034519D01*
X138256606Y-94008458D01*
X138195648Y-93950177D01*
X138173575Y-93904341D01*
X138129474Y-93768613D01*
X138104424Y-93725225D01*
X138035985Y-93606685D01*
X137956611Y-93518531D01*
X137910874Y-93467734D01*
X137910871Y-93467732D01*
X137885313Y-93449163D01*
X137759600Y-93357827D01*
X137588785Y-93281775D01*
X137588783Y-93281774D01*
X137405891Y-93242900D01*
X137405890Y-93242900D01*
X137218910Y-93242900D01*
X137218909Y-93242900D01*
X137036016Y-93281774D01*
X137018410Y-93289612D01*
X136999850Y-93297876D01*
X136917107Y-93314174D01*
X136835485Y-93292957D01*
X136771151Y-93238425D01*
X136736848Y-93161381D01*
X136739371Y-93077084D01*
X136742551Y-93066200D01*
X136764855Y-92997556D01*
X136784400Y-92811600D01*
X136764855Y-92625644D01*
X136707075Y-92447815D01*
X136613585Y-92285885D01*
X136604673Y-92275987D01*
X136488474Y-92146934D01*
X136488471Y-92146932D01*
X136488470Y-92146931D01*
X136337200Y-92037027D01*
X136166385Y-91960975D01*
X136166383Y-91960974D01*
X135983491Y-91922100D01*
X135983490Y-91922100D01*
X135796510Y-91922100D01*
X135796509Y-91922100D01*
X135613616Y-91960974D01*
X135535880Y-91995584D01*
X135442800Y-92037027D01*
X135442797Y-92037028D01*
X135442797Y-92037029D01*
X135291528Y-92146932D01*
X135291525Y-92146934D01*
X135166415Y-92285884D01*
X135072925Y-92447813D01*
X135015144Y-92625645D01*
X134995600Y-92811600D01*
X123952500Y-92811600D01*
X123952500Y-91236800D01*
X137484800Y-91236800D01*
X137504344Y-91422754D01*
X137562125Y-91600586D01*
X137655615Y-91762515D01*
X137780725Y-91901465D01*
X137780728Y-91901467D01*
X137780730Y-91901469D01*
X137932000Y-92011373D01*
X138102815Y-92087425D01*
X138194262Y-92106862D01*
X138285709Y-92126300D01*
X138285710Y-92126300D01*
X138472691Y-92126300D01*
X138533655Y-92113341D01*
X138655585Y-92087425D01*
X138826400Y-92011373D01*
X138977670Y-91901469D01*
X139102785Y-91762515D01*
X139196275Y-91600585D01*
X139254055Y-91422756D01*
X139273600Y-91236800D01*
X139254055Y-91050844D01*
X139196275Y-90873015D01*
X139102785Y-90711085D01*
X139093873Y-90701187D01*
X138977674Y-90572134D01*
X138977671Y-90572132D01*
X138977670Y-90572131D01*
X138826400Y-90462227D01*
X138655585Y-90386175D01*
X138655583Y-90386174D01*
X138472691Y-90347300D01*
X138472690Y-90347300D01*
X138285710Y-90347300D01*
X138285709Y-90347300D01*
X138102816Y-90386174D01*
X138025080Y-90420784D01*
X137932000Y-90462227D01*
X137931997Y-90462228D01*
X137931997Y-90462229D01*
X137780728Y-90572132D01*
X137780725Y-90572134D01*
X137655615Y-90711084D01*
X137562125Y-90873013D01*
X137504344Y-91050845D01*
X137484800Y-91236800D01*
X123952500Y-91236800D01*
X123952500Y-89662000D01*
X128188400Y-89662000D01*
X128207944Y-89847954D01*
X128265725Y-90025786D01*
X128359215Y-90187715D01*
X128484325Y-90326665D01*
X128484328Y-90326667D01*
X128484330Y-90326669D01*
X128635600Y-90436573D01*
X128806415Y-90512625D01*
X128869811Y-90526100D01*
X128989309Y-90551500D01*
X128989310Y-90551500D01*
X129176291Y-90551500D01*
X129237255Y-90538541D01*
X129359185Y-90512625D01*
X129530000Y-90436573D01*
X129681270Y-90326669D01*
X129708515Y-90296411D01*
X129757582Y-90241916D01*
X129806385Y-90187715D01*
X129899875Y-90025785D01*
X129957655Y-89847956D01*
X129965779Y-89770659D01*
X129993037Y-89690851D01*
X130052223Y-89630772D01*
X130131615Y-89602323D01*
X130215489Y-89611138D01*
X130287231Y-89655471D01*
X130329314Y-89717943D01*
X130331682Y-89723659D01*
X130331683Y-89723662D01*
X130420176Y-89889220D01*
X130497608Y-89983571D01*
X130539264Y-90034330D01*
X130539267Y-90034333D01*
X130684380Y-90153424D01*
X130849938Y-90241917D01*
X130849942Y-90241918D01*
X130849944Y-90241919D01*
X131029574Y-90296410D01*
X131029576Y-90296410D01*
X131029579Y-90296411D01*
X131216400Y-90314811D01*
X131403221Y-90296411D01*
X131403223Y-90296410D01*
X131403225Y-90296410D01*
X131582855Y-90241919D01*
X131582854Y-90241919D01*
X131582862Y-90241917D01*
X131748420Y-90153424D01*
X131893533Y-90034333D01*
X132012624Y-89889220D01*
X132101117Y-89723662D01*
X132127527Y-89636600D01*
X132836600Y-89636600D01*
X132856144Y-89822554D01*
X132913925Y-90000386D01*
X133007415Y-90162315D01*
X133132525Y-90301265D01*
X133132528Y-90301267D01*
X133132530Y-90301269D01*
X133283800Y-90411173D01*
X133454615Y-90487225D01*
X133546062Y-90506662D01*
X133637509Y-90526100D01*
X133637510Y-90526100D01*
X133824491Y-90526100D01*
X133887886Y-90512625D01*
X134007385Y-90487225D01*
X134178200Y-90411173D01*
X134329470Y-90301269D01*
X134333845Y-90296411D01*
X134382912Y-90241916D01*
X134454585Y-90162315D01*
X134548075Y-90000385D01*
X134605855Y-89822556D01*
X134625400Y-89636600D01*
X134605855Y-89450644D01*
X134548075Y-89272815D01*
X134454585Y-89110885D01*
X134445673Y-89100987D01*
X134329474Y-88971934D01*
X134329471Y-88971932D01*
X134329470Y-88971931D01*
X134178200Y-88862027D01*
X134007385Y-88785975D01*
X134007383Y-88785974D01*
X133824491Y-88747100D01*
X133824490Y-88747100D01*
X133637510Y-88747100D01*
X133637509Y-88747100D01*
X133454616Y-88785974D01*
X133397568Y-88811374D01*
X133283800Y-88862027D01*
X133283797Y-88862028D01*
X133283797Y-88862029D01*
X133132528Y-88971932D01*
X133132525Y-88971934D01*
X133007415Y-89110884D01*
X132913925Y-89272813D01*
X132856144Y-89450645D01*
X132836600Y-89636600D01*
X132127527Y-89636600D01*
X132142786Y-89586300D01*
X132155610Y-89544025D01*
X132155610Y-89544023D01*
X132155611Y-89544021D01*
X132174011Y-89357200D01*
X132155611Y-89170379D01*
X132155610Y-89170376D01*
X132155610Y-89170374D01*
X132101119Y-88990744D01*
X132101118Y-88990742D01*
X132101117Y-88990738D01*
X132012624Y-88825180D01*
X131921305Y-88713907D01*
X131907266Y-88696800D01*
X140177200Y-88696800D01*
X140196744Y-88882754D01*
X140254525Y-89060586D01*
X140348015Y-89222515D01*
X140473125Y-89361465D01*
X140473128Y-89361467D01*
X140473130Y-89361469D01*
X140624400Y-89471373D01*
X140795215Y-89547425D01*
X140886662Y-89566862D01*
X140978109Y-89586300D01*
X140978110Y-89586300D01*
X141165091Y-89586300D01*
X141226055Y-89573341D01*
X141347985Y-89547425D01*
X141518800Y-89471373D01*
X141670070Y-89361469D01*
X141795185Y-89222515D01*
X141888675Y-89060585D01*
X141946455Y-88882756D01*
X141966000Y-88696800D01*
X141946455Y-88510844D01*
X141888675Y-88333015D01*
X141795185Y-88171085D01*
X141786273Y-88161187D01*
X141670074Y-88032134D01*
X141670071Y-88032132D01*
X141670070Y-88032131D01*
X141518800Y-87922227D01*
X141347985Y-87846175D01*
X141347983Y-87846174D01*
X141165091Y-87807300D01*
X141165090Y-87807300D01*
X140978110Y-87807300D01*
X140978109Y-87807300D01*
X140795216Y-87846174D01*
X140717480Y-87880784D01*
X140624400Y-87922227D01*
X140624397Y-87922228D01*
X140624397Y-87922229D01*
X140473128Y-88032132D01*
X140473125Y-88032134D01*
X140348015Y-88171084D01*
X140254525Y-88333013D01*
X140196744Y-88510845D01*
X140177200Y-88696800D01*
X131907266Y-88696800D01*
X131893535Y-88680069D01*
X131893530Y-88680064D01*
X131842771Y-88638408D01*
X131748420Y-88560976D01*
X131582862Y-88472483D01*
X131582855Y-88472480D01*
X131403225Y-88417989D01*
X131216400Y-88399589D01*
X131029574Y-88417989D01*
X130849944Y-88472480D01*
X130849937Y-88472483D01*
X130684380Y-88560976D01*
X130684379Y-88560977D01*
X130539269Y-88680064D01*
X130539264Y-88680069D01*
X130420177Y-88825179D01*
X130420176Y-88825180D01*
X130331683Y-88990737D01*
X130331680Y-88990744D01*
X130277189Y-89170376D01*
X130277188Y-89170382D01*
X130268571Y-89257873D01*
X130241836Y-89337859D01*
X130183044Y-89398324D01*
X130103840Y-89427291D01*
X130019911Y-89419025D01*
X129947880Y-89375162D01*
X129902013Y-89304389D01*
X129899906Y-89298285D01*
X129899876Y-89298216D01*
X129806384Y-89136284D01*
X129681274Y-88997334D01*
X129681271Y-88997332D01*
X129681270Y-88997331D01*
X129530000Y-88887427D01*
X129359185Y-88811375D01*
X129359183Y-88811374D01*
X129176291Y-88772500D01*
X129176290Y-88772500D01*
X128989310Y-88772500D01*
X128989309Y-88772500D01*
X128806416Y-88811374D01*
X128728680Y-88845984D01*
X128635600Y-88887427D01*
X128635597Y-88887428D01*
X128635597Y-88887429D01*
X128484328Y-88997332D01*
X128484325Y-88997334D01*
X128359215Y-89136284D01*
X128265725Y-89298213D01*
X128207944Y-89476045D01*
X128188400Y-89662000D01*
X123952500Y-89662000D01*
X123952500Y-82931000D01*
X124620844Y-82931000D01*
X124639436Y-83155368D01*
X124639437Y-83155374D01*
X124694705Y-83373619D01*
X124785138Y-83579787D01*
X124785140Y-83579791D01*
X124908278Y-83768268D01*
X125060760Y-83933906D01*
X125212198Y-84051776D01*
X125265554Y-84117086D01*
X125285290Y-84199080D01*
X125267495Y-84281516D01*
X125215695Y-84348069D01*
X125212197Y-84350859D01*
X125061103Y-84468460D01*
X124908675Y-84634041D01*
X124908671Y-84634046D01*
X124785586Y-84822440D01*
X124695178Y-85028548D01*
X124695176Y-85028552D01*
X124647455Y-85217000D01*
X125553297Y-85217000D01*
X125518075Y-85278007D01*
X125484000Y-85405174D01*
X125484000Y-85536826D01*
X125518075Y-85663993D01*
X125553297Y-85725000D01*
X124647456Y-85725000D01*
X124695176Y-85913447D01*
X124695178Y-85913451D01*
X124785586Y-86119559D01*
X124908671Y-86307953D01*
X124908675Y-86307958D01*
X125061106Y-86473542D01*
X125238700Y-86611768D01*
X125436624Y-86718880D01*
X125436623Y-86718880D01*
X125649482Y-86791954D01*
X125649495Y-86791958D01*
X125730000Y-86805392D01*
X125730000Y-85901702D01*
X125791007Y-85936925D01*
X125918174Y-85971000D01*
X126049826Y-85971000D01*
X126176993Y-85936925D01*
X126238000Y-85901702D01*
X126238000Y-86805391D01*
X126318504Y-86791958D01*
X126318517Y-86791954D01*
X126531376Y-86718880D01*
X126729299Y-86611768D01*
X126906893Y-86473542D01*
X127059324Y-86307958D01*
X127059327Y-86307954D01*
X127095056Y-86253267D01*
X127155737Y-86194698D01*
X127235820Y-86168257D01*
X127319445Y-86179182D01*
X127390048Y-86225309D01*
X127412341Y-86253263D01*
X127448075Y-86307958D01*
X127448279Y-86308269D01*
X127600759Y-86473906D01*
X127739042Y-86581536D01*
X127778424Y-86612189D01*
X127976426Y-86719342D01*
X128189365Y-86792444D01*
X128226605Y-86798658D01*
X128411426Y-86829500D01*
X128411431Y-86829500D01*
X128636574Y-86829500D01*
X128795018Y-86803059D01*
X128858635Y-86792444D01*
X129071574Y-86719342D01*
X129269576Y-86612189D01*
X129447240Y-86473906D01*
X129599722Y-86308268D01*
X129635359Y-86253720D01*
X129696037Y-86195156D01*
X129776121Y-86168715D01*
X129859746Y-86179641D01*
X129930349Y-86225767D01*
X129952636Y-86253714D01*
X129988278Y-86308268D01*
X129988281Y-86308271D01*
X130140759Y-86473906D01*
X130279042Y-86581536D01*
X130318424Y-86612189D01*
X130516426Y-86719342D01*
X130729365Y-86792444D01*
X130766605Y-86798658D01*
X130951426Y-86829500D01*
X130951431Y-86829500D01*
X131176574Y-86829500D01*
X131335018Y-86803059D01*
X131398635Y-86792444D01*
X131611574Y-86719342D01*
X131809576Y-86612189D01*
X131987240Y-86473906D01*
X132139722Y-86308268D01*
X132175359Y-86253720D01*
X132236037Y-86195156D01*
X132316121Y-86168715D01*
X132399746Y-86179641D01*
X132470349Y-86225767D01*
X132492636Y-86253714D01*
X132528278Y-86308268D01*
X132528281Y-86308271D01*
X132680759Y-86473906D01*
X132819042Y-86581536D01*
X132858424Y-86612189D01*
X133056426Y-86719342D01*
X133269365Y-86792444D01*
X133306605Y-86798658D01*
X133491426Y-86829500D01*
X133491431Y-86829500D01*
X133716574Y-86829500D01*
X133875018Y-86803059D01*
X133938635Y-86792444D01*
X134151574Y-86719342D01*
X134349576Y-86612189D01*
X134527240Y-86473906D01*
X134679722Y-86308268D01*
X134715359Y-86253720D01*
X134776037Y-86195156D01*
X134856121Y-86168715D01*
X134939746Y-86179641D01*
X135010349Y-86225767D01*
X135032636Y-86253714D01*
X135068278Y-86308268D01*
X135068281Y-86308271D01*
X135220759Y-86473906D01*
X135359042Y-86581536D01*
X135398424Y-86612189D01*
X135596426Y-86719342D01*
X135809365Y-86792444D01*
X135846605Y-86798658D01*
X136031426Y-86829500D01*
X136031431Y-86829500D01*
X136256574Y-86829500D01*
X136415018Y-86803059D01*
X136478635Y-86792444D01*
X136691574Y-86719342D01*
X136889576Y-86612189D01*
X137067240Y-86473906D01*
X137219722Y-86308268D01*
X137255657Y-86253264D01*
X137316336Y-86194698D01*
X137396419Y-86168257D01*
X137480044Y-86179182D01*
X137550647Y-86225309D01*
X137572942Y-86253265D01*
X137608673Y-86307956D01*
X137608675Y-86307958D01*
X137761106Y-86473542D01*
X137938700Y-86611768D01*
X138136624Y-86718880D01*
X138136623Y-86718880D01*
X138349482Y-86791954D01*
X138349495Y-86791958D01*
X138430000Y-86805392D01*
X138430000Y-85901702D01*
X138491007Y-85936925D01*
X138618174Y-85971000D01*
X138749826Y-85971000D01*
X138876993Y-85936925D01*
X138938000Y-85901702D01*
X138938000Y-86805391D01*
X139018504Y-86791958D01*
X139018517Y-86791954D01*
X139231376Y-86718880D01*
X139429299Y-86611768D01*
X139606893Y-86473542D01*
X139759324Y-86307958D01*
X139759328Y-86307953D01*
X139882413Y-86119559D01*
X139972821Y-85913451D01*
X139972823Y-85913447D01*
X140020544Y-85725000D01*
X139114703Y-85725000D01*
X139149925Y-85663993D01*
X139184000Y-85536826D01*
X139184000Y-85405174D01*
X139149925Y-85278007D01*
X139114703Y-85217000D01*
X140020544Y-85217000D01*
X139972823Y-85028552D01*
X139972821Y-85028548D01*
X139882413Y-84822440D01*
X139759328Y-84634046D01*
X139759324Y-84634041D01*
X139679991Y-84547862D01*
X139638111Y-84474660D01*
X139632140Y-84390536D01*
X139663260Y-84312152D01*
X139725308Y-84255033D01*
X139753189Y-84241965D01*
X139780204Y-84231889D01*
X139897261Y-84144261D01*
X139984889Y-84027204D01*
X140026566Y-83915466D01*
X140035987Y-83890207D01*
X140035989Y-83890199D01*
X140036618Y-83884354D01*
X140042500Y-83829638D01*
X140042500Y-82032362D01*
X140035989Y-81971799D01*
X140035988Y-81971796D01*
X140035987Y-81971792D01*
X139984889Y-81834796D01*
X139897261Y-81717739D01*
X139780204Y-81630111D01*
X139780203Y-81630110D01*
X139643207Y-81579012D01*
X139643199Y-81579010D01*
X139582649Y-81572500D01*
X139582638Y-81572500D01*
X137785362Y-81572500D01*
X137785350Y-81572500D01*
X137724800Y-81579010D01*
X137724792Y-81579012D01*
X137587796Y-81630110D01*
X137470741Y-81717737D01*
X137470737Y-81717741D01*
X137383110Y-81834796D01*
X137383110Y-81834797D01*
X137374978Y-81856599D01*
X137328660Y-81927076D01*
X137256350Y-81970478D01*
X137172370Y-81978207D01*
X137093352Y-81948733D01*
X137069079Y-81929787D01*
X137067239Y-81928093D01*
X136889576Y-81789811D01*
X136889572Y-81789809D01*
X136691577Y-81682659D01*
X136691574Y-81682658D01*
X136478644Y-81609559D01*
X136478642Y-81609558D01*
X136478635Y-81609556D01*
X136478632Y-81609555D01*
X136478627Y-81609554D01*
X136256574Y-81572500D01*
X136256569Y-81572500D01*
X136031431Y-81572500D01*
X136031426Y-81572500D01*
X135809372Y-81609554D01*
X135809355Y-81609559D01*
X135596425Y-81682658D01*
X135596422Y-81682659D01*
X135398427Y-81789809D01*
X135398423Y-81789811D01*
X135220759Y-81928093D01*
X135068279Y-82093730D01*
X135032643Y-82148276D01*
X134971962Y-82206844D01*
X134891878Y-82233284D01*
X134808253Y-82222358D01*
X134737650Y-82176231D01*
X134715357Y-82148276D01*
X134679722Y-82093732D01*
X134623230Y-82032366D01*
X134527240Y-81928093D01*
X134349576Y-81789811D01*
X134349572Y-81789809D01*
X134151577Y-81682659D01*
X134151574Y-81682658D01*
X133938644Y-81609559D01*
X133938642Y-81609558D01*
X133938635Y-81609556D01*
X133938632Y-81609555D01*
X133938627Y-81609554D01*
X133716574Y-81572500D01*
X133716569Y-81572500D01*
X133491431Y-81572500D01*
X133491426Y-81572500D01*
X133269372Y-81609554D01*
X133269355Y-81609559D01*
X133056425Y-81682658D01*
X133056422Y-81682659D01*
X132858427Y-81789809D01*
X132858423Y-81789811D01*
X132680759Y-81928093D01*
X132528279Y-82093730D01*
X132492643Y-82148276D01*
X132431962Y-82206844D01*
X132351878Y-82233284D01*
X132268253Y-82222358D01*
X132197650Y-82176231D01*
X132175357Y-82148276D01*
X132139722Y-82093732D01*
X132083230Y-82032366D01*
X131987240Y-81928093D01*
X131809576Y-81789811D01*
X131809572Y-81789809D01*
X131611577Y-81682659D01*
X131611574Y-81682658D01*
X131398644Y-81609559D01*
X131398642Y-81609558D01*
X131398635Y-81609556D01*
X131398632Y-81609555D01*
X131398627Y-81609554D01*
X131176574Y-81572500D01*
X131176569Y-81572500D01*
X130951431Y-81572500D01*
X130951426Y-81572500D01*
X130729372Y-81609554D01*
X130729355Y-81609559D01*
X130516425Y-81682658D01*
X130516422Y-81682659D01*
X130318427Y-81789809D01*
X130318423Y-81789811D01*
X130140759Y-81928093D01*
X129988279Y-82093730D01*
X129952643Y-82148276D01*
X129891962Y-82206844D01*
X129811878Y-82233284D01*
X129728253Y-82222358D01*
X129657650Y-82176231D01*
X129635357Y-82148276D01*
X129599722Y-82093732D01*
X129543230Y-82032366D01*
X129447240Y-81928093D01*
X129269576Y-81789811D01*
X129269572Y-81789809D01*
X129071577Y-81682659D01*
X129071574Y-81682658D01*
X128858644Y-81609559D01*
X128858642Y-81609558D01*
X128858635Y-81609556D01*
X128858632Y-81609555D01*
X128858627Y-81609554D01*
X128636574Y-81572500D01*
X128636569Y-81572500D01*
X128411431Y-81572500D01*
X128411426Y-81572500D01*
X128189372Y-81609554D01*
X128189355Y-81609559D01*
X127976425Y-81682658D01*
X127976422Y-81682659D01*
X127778427Y-81789809D01*
X127778423Y-81789811D01*
X127600759Y-81928093D01*
X127448279Y-82093730D01*
X127412643Y-82148276D01*
X127351962Y-82206844D01*
X127271878Y-82233284D01*
X127188253Y-82222358D01*
X127117650Y-82176231D01*
X127095357Y-82148276D01*
X127059722Y-82093732D01*
X127003230Y-82032366D01*
X126907240Y-81928093D01*
X126729576Y-81789811D01*
X126729572Y-81789809D01*
X126531577Y-81682659D01*
X126531574Y-81682658D01*
X126318644Y-81609559D01*
X126318642Y-81609558D01*
X126318635Y-81609556D01*
X126318632Y-81609555D01*
X126318627Y-81609554D01*
X126096574Y-81572500D01*
X126096569Y-81572500D01*
X125871431Y-81572500D01*
X125871426Y-81572500D01*
X125649372Y-81609554D01*
X125649355Y-81609559D01*
X125436425Y-81682658D01*
X125436422Y-81682659D01*
X125238427Y-81789809D01*
X125238423Y-81789811D01*
X125060759Y-81928093D01*
X124908279Y-82093730D01*
X124785138Y-82282212D01*
X124694705Y-82488380D01*
X124639437Y-82706625D01*
X124639436Y-82706631D01*
X124620844Y-82931000D01*
X123952500Y-82931000D01*
X123952500Y-74737550D01*
X124625500Y-74737550D01*
X124625500Y-76534849D01*
X124632010Y-76595399D01*
X124632012Y-76595407D01*
X124683110Y-76732403D01*
X124683111Y-76732404D01*
X124770739Y-76849461D01*
X124822230Y-76888007D01*
X124887794Y-76937088D01*
X124887795Y-76937088D01*
X124887796Y-76937089D01*
X124914813Y-76947166D01*
X124985290Y-76993482D01*
X125028693Y-77065791D01*
X125036424Y-77149771D01*
X125006952Y-77228789D01*
X124988009Y-77253061D01*
X124908675Y-77339241D01*
X124908671Y-77339246D01*
X124785586Y-77527640D01*
X124695178Y-77733748D01*
X124695176Y-77733752D01*
X124647455Y-77922200D01*
X125553297Y-77922200D01*
X125518075Y-77983207D01*
X125484000Y-78110374D01*
X125484000Y-78242026D01*
X125518075Y-78369193D01*
X125553297Y-78430200D01*
X124647456Y-78430200D01*
X124695176Y-78618647D01*
X124695178Y-78618651D01*
X124785586Y-78824759D01*
X124908671Y-79013153D01*
X124908675Y-79013158D01*
X125061106Y-79178742D01*
X125238700Y-79316968D01*
X125436624Y-79424080D01*
X125436623Y-79424080D01*
X125649482Y-79497154D01*
X125649495Y-79497158D01*
X125730000Y-79510592D01*
X125730000Y-78606902D01*
X125791007Y-78642125D01*
X125918174Y-78676200D01*
X126049826Y-78676200D01*
X126176993Y-78642125D01*
X126238000Y-78606902D01*
X126238000Y-79510591D01*
X126318504Y-79497158D01*
X126318517Y-79497154D01*
X126531376Y-79424080D01*
X126729299Y-79316968D01*
X126906893Y-79178742D01*
X127059324Y-79013158D01*
X127059328Y-79013153D01*
X127182413Y-78824759D01*
X127272821Y-78618651D01*
X127272823Y-78618647D01*
X127320544Y-78430200D01*
X126414703Y-78430200D01*
X126449925Y-78369193D01*
X126484000Y-78242026D01*
X126484000Y-78176200D01*
X128430844Y-78176200D01*
X128449436Y-78400568D01*
X128449437Y-78400574D01*
X128504705Y-78618819D01*
X128595038Y-78824759D01*
X128595140Y-78824991D01*
X128718278Y-79013468D01*
X128718279Y-79013469D01*
X128870759Y-79179106D01*
X129009042Y-79286736D01*
X129048424Y-79317389D01*
X129246426Y-79424542D01*
X129459365Y-79497644D01*
X129496605Y-79503858D01*
X129681426Y-79534700D01*
X129681431Y-79534700D01*
X129906574Y-79534700D01*
X130065018Y-79508259D01*
X130128635Y-79497644D01*
X130341574Y-79424542D01*
X130539576Y-79317389D01*
X130717240Y-79179106D01*
X130869722Y-79013468D01*
X130992860Y-78824991D01*
X131083296Y-78618816D01*
X131138564Y-78400568D01*
X131157156Y-78176200D01*
X131138564Y-77951832D01*
X131083296Y-77733584D01*
X130992860Y-77527409D01*
X130869722Y-77338932D01*
X130790498Y-77252873D01*
X130748619Y-77179672D01*
X130742647Y-77095548D01*
X130773767Y-77017164D01*
X130835814Y-76960045D01*
X130863690Y-76946978D01*
X130890204Y-76937089D01*
X131007261Y-76849461D01*
X131094889Y-76732404D01*
X131145989Y-76595401D01*
X131152500Y-76534838D01*
X131152500Y-74737562D01*
X131152499Y-74737550D01*
X132245500Y-74737550D01*
X132245500Y-76534849D01*
X132252010Y-76595399D01*
X132252012Y-76595407D01*
X132303110Y-76732403D01*
X132303111Y-76732404D01*
X132390739Y-76849461D01*
X132442230Y-76888007D01*
X132507794Y-76937088D01*
X132507795Y-76937088D01*
X132507796Y-76937089D01*
X132534813Y-76947166D01*
X132605290Y-76993482D01*
X132648693Y-77065791D01*
X132656424Y-77149771D01*
X132626952Y-77228789D01*
X132608009Y-77253061D01*
X132528675Y-77339241D01*
X132528671Y-77339246D01*
X132405586Y-77527640D01*
X132315178Y-77733748D01*
X132315176Y-77733752D01*
X132267455Y-77922200D01*
X133173297Y-77922200D01*
X133138075Y-77983207D01*
X133104000Y-78110374D01*
X133104000Y-78242026D01*
X133138075Y-78369193D01*
X133173297Y-78430200D01*
X132267456Y-78430200D01*
X132315176Y-78618647D01*
X132315178Y-78618651D01*
X132405586Y-78824759D01*
X132528671Y-79013153D01*
X132528675Y-79013158D01*
X132681106Y-79178742D01*
X132858700Y-79316968D01*
X133056624Y-79424080D01*
X133056623Y-79424080D01*
X133269482Y-79497154D01*
X133269495Y-79497158D01*
X133350000Y-79510592D01*
X133350000Y-78606902D01*
X133411007Y-78642125D01*
X133538174Y-78676200D01*
X133669826Y-78676200D01*
X133796993Y-78642125D01*
X133858000Y-78606902D01*
X133858000Y-79510591D01*
X133938504Y-79497158D01*
X133938517Y-79497154D01*
X134151376Y-79424080D01*
X134349299Y-79316968D01*
X134526893Y-79178742D01*
X134679324Y-79013158D01*
X134679328Y-79013153D01*
X134802413Y-78824759D01*
X134892821Y-78618651D01*
X134892823Y-78618647D01*
X134940544Y-78430200D01*
X134034703Y-78430200D01*
X134069925Y-78369193D01*
X134104000Y-78242026D01*
X134104000Y-78110374D01*
X134069925Y-77983207D01*
X134034703Y-77922200D01*
X134940544Y-77922200D01*
X134892823Y-77733752D01*
X134892821Y-77733748D01*
X134802413Y-77527640D01*
X134679328Y-77339246D01*
X134679324Y-77339241D01*
X134599991Y-77253062D01*
X134558111Y-77179860D01*
X134552140Y-77095736D01*
X134583260Y-77017352D01*
X134645308Y-76960233D01*
X134673189Y-76947165D01*
X134673696Y-76946976D01*
X134700204Y-76937089D01*
X134817261Y-76849461D01*
X134904889Y-76732404D01*
X134955989Y-76595401D01*
X134962500Y-76534838D01*
X134962500Y-74737562D01*
X134962499Y-74737550D01*
X136055500Y-74737550D01*
X136055500Y-76534849D01*
X136062010Y-76595399D01*
X136062012Y-76595407D01*
X136113110Y-76732403D01*
X136113111Y-76732404D01*
X136200739Y-76849461D01*
X136252230Y-76888007D01*
X136317794Y-76937088D01*
X136317795Y-76937088D01*
X136317796Y-76937089D01*
X136344813Y-76947166D01*
X136415290Y-76993482D01*
X136458693Y-77065791D01*
X136466424Y-77149771D01*
X136436952Y-77228789D01*
X136418009Y-77253061D01*
X136338675Y-77339241D01*
X136338671Y-77339246D01*
X136215586Y-77527640D01*
X136125178Y-77733748D01*
X136125176Y-77733752D01*
X136077455Y-77922200D01*
X136983297Y-77922200D01*
X136948075Y-77983207D01*
X136914000Y-78110374D01*
X136914000Y-78242026D01*
X136948075Y-78369193D01*
X136983297Y-78430200D01*
X136077456Y-78430200D01*
X136125176Y-78618647D01*
X136125178Y-78618651D01*
X136215586Y-78824759D01*
X136338671Y-79013153D01*
X136338675Y-79013158D01*
X136491106Y-79178742D01*
X136668700Y-79316968D01*
X136866624Y-79424080D01*
X136866623Y-79424080D01*
X137079482Y-79497154D01*
X137079495Y-79497158D01*
X137160000Y-79510592D01*
X137160000Y-78606902D01*
X137221007Y-78642125D01*
X137348174Y-78676200D01*
X137479826Y-78676200D01*
X137606993Y-78642125D01*
X137668000Y-78606902D01*
X137668000Y-79510591D01*
X137748504Y-79497158D01*
X137748517Y-79497154D01*
X137961376Y-79424080D01*
X138159299Y-79316968D01*
X138336893Y-79178742D01*
X138390048Y-79121000D01*
X140114844Y-79121000D01*
X140133436Y-79345368D01*
X140133437Y-79345374D01*
X140171223Y-79494587D01*
X140188704Y-79563616D01*
X140279140Y-79769791D01*
X140402278Y-79958268D01*
X140402279Y-79958269D01*
X140554759Y-80123906D01*
X140693042Y-80231536D01*
X140732424Y-80262189D01*
X140930426Y-80369342D01*
X141143365Y-80442444D01*
X141180605Y-80448658D01*
X141365426Y-80479500D01*
X141365431Y-80479500D01*
X141590574Y-80479500D01*
X141749018Y-80453059D01*
X141812635Y-80442444D01*
X142025574Y-80369342D01*
X142223576Y-80262189D01*
X142401240Y-80123906D01*
X142553722Y-79958268D01*
X142676860Y-79769791D01*
X142767296Y-79563616D01*
X142822564Y-79345368D01*
X142841156Y-79121000D01*
X142822564Y-78896632D01*
X142767296Y-78678384D01*
X142676860Y-78472209D01*
X142553722Y-78283732D01*
X142401240Y-78118094D01*
X142249801Y-78000223D01*
X142196445Y-77934913D01*
X142176709Y-77852919D01*
X142194504Y-77770482D01*
X142246304Y-77703930D01*
X142249803Y-77701139D01*
X142400897Y-77583538D01*
X142553324Y-77417958D01*
X142553328Y-77417953D01*
X142676413Y-77229559D01*
X142766821Y-77023451D01*
X142766823Y-77023447D01*
X142814544Y-76835000D01*
X141908703Y-76835000D01*
X141943925Y-76773993D01*
X141978000Y-76646826D01*
X141978000Y-76515174D01*
X141943925Y-76388007D01*
X141908703Y-76327000D01*
X142814544Y-76327000D01*
X142766823Y-76138552D01*
X142766821Y-76138548D01*
X142676413Y-75932440D01*
X142553328Y-75744046D01*
X142553324Y-75744041D01*
X142473991Y-75657862D01*
X142432111Y-75584660D01*
X142426140Y-75500536D01*
X142457260Y-75422152D01*
X142519308Y-75365033D01*
X142547189Y-75351965D01*
X142574204Y-75341889D01*
X142691261Y-75254261D01*
X142778889Y-75137204D01*
X142829989Y-75000201D01*
X142836500Y-74939638D01*
X142836500Y-73142362D01*
X142829989Y-73081799D01*
X142829988Y-73081796D01*
X142829987Y-73081792D01*
X142778889Y-72944796D01*
X142730949Y-72880756D01*
X142691261Y-72827739D01*
X142592472Y-72753786D01*
X142574203Y-72740110D01*
X142437207Y-72689012D01*
X142437199Y-72689010D01*
X142376649Y-72682500D01*
X142376638Y-72682500D01*
X140579362Y-72682500D01*
X140579350Y-72682500D01*
X140518800Y-72689010D01*
X140518792Y-72689012D01*
X140381796Y-72740110D01*
X140264741Y-72827737D01*
X140264737Y-72827741D01*
X140177110Y-72944796D01*
X140126012Y-73081792D01*
X140126010Y-73081800D01*
X140119500Y-73142350D01*
X140119500Y-74939649D01*
X140126010Y-75000199D01*
X140126012Y-75000207D01*
X140177110Y-75137203D01*
X140177111Y-75137204D01*
X140264739Y-75254261D01*
X140323267Y-75298075D01*
X140381794Y-75341888D01*
X140381795Y-75341888D01*
X140381796Y-75341889D01*
X140408813Y-75351966D01*
X140479290Y-75398282D01*
X140522693Y-75470591D01*
X140530424Y-75554571D01*
X140500952Y-75633589D01*
X140482009Y-75657861D01*
X140402675Y-75744041D01*
X140402671Y-75744046D01*
X140279586Y-75932440D01*
X140189178Y-76138548D01*
X140189176Y-76138552D01*
X140141455Y-76327000D01*
X141047297Y-76327000D01*
X141012075Y-76388007D01*
X140978000Y-76515174D01*
X140978000Y-76646826D01*
X141012075Y-76773993D01*
X141047297Y-76835000D01*
X140141456Y-76835000D01*
X140189176Y-77023447D01*
X140189178Y-77023451D01*
X140279586Y-77229559D01*
X140402671Y-77417953D01*
X140402675Y-77417958D01*
X140555106Y-77583542D01*
X140706196Y-77701140D01*
X140759553Y-77766450D01*
X140779290Y-77848444D01*
X140761496Y-77930880D01*
X140709696Y-77997433D01*
X140706197Y-78000223D01*
X140554763Y-78118090D01*
X140402279Y-78283730D01*
X140279138Y-78472212D01*
X140188705Y-78678380D01*
X140133437Y-78896625D01*
X140133436Y-78896631D01*
X140114844Y-79121000D01*
X138390048Y-79121000D01*
X138489324Y-79013158D01*
X138489328Y-79013153D01*
X138612413Y-78824759D01*
X138702821Y-78618651D01*
X138702823Y-78618647D01*
X138750544Y-78430200D01*
X137844703Y-78430200D01*
X137879925Y-78369193D01*
X137914000Y-78242026D01*
X137914000Y-78110374D01*
X137879925Y-77983207D01*
X137844703Y-77922200D01*
X138750544Y-77922200D01*
X138702823Y-77733752D01*
X138702821Y-77733748D01*
X138612413Y-77527640D01*
X138489328Y-77339246D01*
X138489324Y-77339241D01*
X138409991Y-77253062D01*
X138368111Y-77179860D01*
X138362140Y-77095736D01*
X138393260Y-77017352D01*
X138455308Y-76960233D01*
X138483189Y-76947165D01*
X138483696Y-76946976D01*
X138510204Y-76937089D01*
X138627261Y-76849461D01*
X138714889Y-76732404D01*
X138765989Y-76595401D01*
X138772500Y-76534838D01*
X138772500Y-74737562D01*
X138765989Y-74676999D01*
X138765988Y-74676996D01*
X138765987Y-74676992D01*
X138714889Y-74539996D01*
X138627262Y-74422941D01*
X138627261Y-74422939D01*
X138510204Y-74335311D01*
X138510203Y-74335310D01*
X138373207Y-74284212D01*
X138373199Y-74284210D01*
X138312649Y-74277700D01*
X138312638Y-74277700D01*
X136515362Y-74277700D01*
X136515350Y-74277700D01*
X136454800Y-74284210D01*
X136454792Y-74284212D01*
X136317796Y-74335310D01*
X136200741Y-74422937D01*
X136200737Y-74422941D01*
X136113110Y-74539996D01*
X136062012Y-74676992D01*
X136062010Y-74677000D01*
X136055500Y-74737550D01*
X134962499Y-74737550D01*
X134955989Y-74676999D01*
X134955988Y-74676996D01*
X134955987Y-74676992D01*
X134904889Y-74539996D01*
X134817262Y-74422941D01*
X134817261Y-74422939D01*
X134700204Y-74335311D01*
X134700203Y-74335310D01*
X134679451Y-74327570D01*
X134608972Y-74281253D01*
X134565570Y-74208943D01*
X134557214Y-74130210D01*
X134574600Y-73964800D01*
X134555055Y-73778844D01*
X134497275Y-73601015D01*
X134403785Y-73439085D01*
X134394873Y-73429187D01*
X134278674Y-73300134D01*
X134278671Y-73300132D01*
X134278670Y-73300131D01*
X134127400Y-73190227D01*
X133956585Y-73114175D01*
X133956583Y-73114174D01*
X133773691Y-73075300D01*
X133773690Y-73075300D01*
X133586710Y-73075300D01*
X133586709Y-73075300D01*
X133403816Y-73114174D01*
X133340533Y-73142350D01*
X133233000Y-73190227D01*
X133232997Y-73190228D01*
X133232997Y-73190229D01*
X133081728Y-73300132D01*
X133081725Y-73300134D01*
X132956615Y-73439084D01*
X132863125Y-73601013D01*
X132805344Y-73778845D01*
X132785800Y-73964800D01*
X132797706Y-74078086D01*
X132787636Y-74161818D01*
X132742234Y-74232889D01*
X132670491Y-74277222D01*
X132652827Y-74282313D01*
X132644798Y-74284210D01*
X132507796Y-74335310D01*
X132390741Y-74422937D01*
X132390737Y-74422941D01*
X132303110Y-74539996D01*
X132252012Y-74676992D01*
X132252010Y-74677000D01*
X132245500Y-74737550D01*
X131152499Y-74737550D01*
X131145989Y-74676999D01*
X131145988Y-74676996D01*
X131145987Y-74676992D01*
X131094889Y-74539996D01*
X131007262Y-74422941D01*
X131007261Y-74422939D01*
X130890204Y-74335311D01*
X130890203Y-74335310D01*
X130753207Y-74284212D01*
X130753199Y-74284210D01*
X130692649Y-74277700D01*
X130692638Y-74277700D01*
X128895362Y-74277700D01*
X128895350Y-74277700D01*
X128834800Y-74284210D01*
X128834792Y-74284212D01*
X128697796Y-74335310D01*
X128580741Y-74422937D01*
X128580737Y-74422941D01*
X128493110Y-74539996D01*
X128442012Y-74676992D01*
X128442010Y-74677000D01*
X128435500Y-74737550D01*
X128435500Y-76534849D01*
X128442010Y-76595399D01*
X128442012Y-76595407D01*
X128493110Y-76732403D01*
X128493111Y-76732404D01*
X128580739Y-76849461D01*
X128632230Y-76888007D01*
X128697794Y-76937088D01*
X128697795Y-76937088D01*
X128697796Y-76937089D01*
X128724306Y-76946977D01*
X128794784Y-76993293D01*
X128838187Y-77065602D01*
X128845917Y-77149583D01*
X128816445Y-77228601D01*
X128797501Y-77252873D01*
X128718279Y-77338930D01*
X128595138Y-77527412D01*
X128504705Y-77733580D01*
X128449437Y-77951825D01*
X128449436Y-77951831D01*
X128430844Y-78176200D01*
X126484000Y-78176200D01*
X126484000Y-78110374D01*
X126449925Y-77983207D01*
X126414703Y-77922200D01*
X127320544Y-77922200D01*
X127272823Y-77733752D01*
X127272821Y-77733748D01*
X127182413Y-77527640D01*
X127059328Y-77339246D01*
X127059324Y-77339241D01*
X126979991Y-77253062D01*
X126938111Y-77179860D01*
X126932140Y-77095736D01*
X126963260Y-77017352D01*
X127025308Y-76960233D01*
X127053189Y-76947165D01*
X127053696Y-76946976D01*
X127080204Y-76937089D01*
X127197261Y-76849461D01*
X127284889Y-76732404D01*
X127335989Y-76595401D01*
X127342500Y-76534838D01*
X127342500Y-74737562D01*
X127335989Y-74676999D01*
X127335988Y-74676996D01*
X127335987Y-74676992D01*
X127284889Y-74539996D01*
X127197262Y-74422941D01*
X127197261Y-74422939D01*
X127080204Y-74335311D01*
X127080203Y-74335310D01*
X126943207Y-74284212D01*
X126943199Y-74284210D01*
X126882649Y-74277700D01*
X126882638Y-74277700D01*
X125085362Y-74277700D01*
X125085350Y-74277700D01*
X125024800Y-74284210D01*
X125024792Y-74284212D01*
X124887796Y-74335310D01*
X124770741Y-74422937D01*
X124770737Y-74422941D01*
X124683110Y-74539996D01*
X124632012Y-74676992D01*
X124632010Y-74677000D01*
X124625500Y-74737550D01*
X123952500Y-74737550D01*
X123952500Y-72390000D01*
X127832800Y-72390000D01*
X127852344Y-72575954D01*
X127910125Y-72753786D01*
X128003615Y-72915715D01*
X128128725Y-73054665D01*
X128128728Y-73054667D01*
X128128730Y-73054669D01*
X128280000Y-73164573D01*
X128450815Y-73240625D01*
X128542262Y-73260062D01*
X128633709Y-73279500D01*
X128633710Y-73279500D01*
X128820691Y-73279500D01*
X128881655Y-73266541D01*
X129003585Y-73240625D01*
X129174400Y-73164573D01*
X129325670Y-73054669D01*
X129450785Y-72915715D01*
X129544275Y-72753785D01*
X129563440Y-72694800D01*
X130322000Y-72694800D01*
X130341544Y-72880754D01*
X130399325Y-73058586D01*
X130492815Y-73220515D01*
X130617925Y-73359465D01*
X130617928Y-73359467D01*
X130617930Y-73359469D01*
X130769200Y-73469373D01*
X130940015Y-73545425D01*
X131031462Y-73564862D01*
X131122909Y-73584300D01*
X131122910Y-73584300D01*
X131309891Y-73584300D01*
X131370855Y-73571341D01*
X131492785Y-73545425D01*
X131663600Y-73469373D01*
X131814870Y-73359469D01*
X131939985Y-73220515D01*
X132033475Y-73058585D01*
X132091255Y-72880756D01*
X132110800Y-72694800D01*
X132091255Y-72508844D01*
X132033475Y-72331015D01*
X131939985Y-72169085D01*
X131931073Y-72159187D01*
X131814874Y-72030134D01*
X131814871Y-72030132D01*
X131809477Y-72026213D01*
X131663600Y-71920227D01*
X131492785Y-71844175D01*
X131492783Y-71844174D01*
X131309891Y-71805300D01*
X131309890Y-71805300D01*
X131122910Y-71805300D01*
X131122909Y-71805300D01*
X130940016Y-71844174D01*
X130894847Y-71864285D01*
X130769200Y-71920227D01*
X130769197Y-71920228D01*
X130769197Y-71920229D01*
X130617928Y-72030132D01*
X130617925Y-72030134D01*
X130492815Y-72169084D01*
X130399325Y-72331013D01*
X130341544Y-72508845D01*
X130322000Y-72694800D01*
X129563440Y-72694800D01*
X129602055Y-72575956D01*
X129621600Y-72390000D01*
X129602055Y-72204044D01*
X129544275Y-72026215D01*
X129450785Y-71864285D01*
X129397675Y-71805300D01*
X129325674Y-71725334D01*
X129325671Y-71725332D01*
X129325670Y-71725331D01*
X129174400Y-71615427D01*
X129003585Y-71539375D01*
X129003583Y-71539374D01*
X128820691Y-71500500D01*
X128820690Y-71500500D01*
X128633710Y-71500500D01*
X128633709Y-71500500D01*
X128450816Y-71539374D01*
X128373080Y-71573984D01*
X128280000Y-71615427D01*
X128279997Y-71615428D01*
X128279997Y-71615429D01*
X128128728Y-71725332D01*
X128128725Y-71725334D01*
X128003615Y-71864284D01*
X127910125Y-72026213D01*
X127852344Y-72204045D01*
X127832800Y-72390000D01*
X123952500Y-72390000D01*
X123952500Y-70053200D01*
X136214800Y-70053200D01*
X136234344Y-70239154D01*
X136292125Y-70416986D01*
X136385615Y-70578915D01*
X136510725Y-70717865D01*
X136510728Y-70717867D01*
X136510730Y-70717869D01*
X136662000Y-70827773D01*
X136832815Y-70903825D01*
X136924262Y-70923262D01*
X137015709Y-70942700D01*
X137015710Y-70942700D01*
X137202691Y-70942700D01*
X137263655Y-70929741D01*
X137385585Y-70903825D01*
X137556400Y-70827773D01*
X137707670Y-70717869D01*
X137832785Y-70578915D01*
X137926275Y-70416985D01*
X137984055Y-70239156D01*
X138003600Y-70053200D01*
X137984055Y-69867244D01*
X137926275Y-69689415D01*
X137832785Y-69527485D01*
X137813964Y-69506582D01*
X137707674Y-69388534D01*
X137707671Y-69388532D01*
X137623552Y-69327416D01*
X137556400Y-69278627D01*
X137385585Y-69202575D01*
X137385583Y-69202574D01*
X137202691Y-69163700D01*
X137202690Y-69163700D01*
X137015710Y-69163700D01*
X137015709Y-69163700D01*
X136832816Y-69202574D01*
X136755080Y-69237184D01*
X136662000Y-69278627D01*
X136661997Y-69278628D01*
X136661997Y-69278629D01*
X136510728Y-69388532D01*
X136510725Y-69388534D01*
X136385615Y-69527484D01*
X136292125Y-69689413D01*
X136234344Y-69867245D01*
X136214800Y-70053200D01*
X123952500Y-70053200D01*
X123952500Y-66900000D01*
X126617200Y-66900000D01*
X126636744Y-67085954D01*
X126694525Y-67263786D01*
X126788015Y-67425715D01*
X126913125Y-67564665D01*
X126913128Y-67564667D01*
X126913130Y-67564669D01*
X127064400Y-67674573D01*
X127104768Y-67692546D01*
X127172247Y-67743131D01*
X127211096Y-67817986D01*
X127213619Y-67902284D01*
X127179317Y-67979328D01*
X127127451Y-68026778D01*
X127057568Y-68070048D01*
X127057560Y-68070053D01*
X126909654Y-68204887D01*
X126789032Y-68364617D01*
X126699816Y-68543783D01*
X126699815Y-68543788D01*
X126645041Y-68736300D01*
X126626573Y-68935600D01*
X126645041Y-69134900D01*
X126645041Y-69134903D01*
X126645042Y-69134904D01*
X126699816Y-69327416D01*
X126730249Y-69388532D01*
X126789032Y-69506583D01*
X126869935Y-69613715D01*
X126909654Y-69666312D01*
X127057560Y-69801146D01*
X127057562Y-69801148D01*
X127057566Y-69801151D01*
X127057569Y-69801153D01*
X127057576Y-69801158D01*
X127227738Y-69906517D01*
X127227740Y-69906518D01*
X127414378Y-69978822D01*
X127414381Y-69978822D01*
X127414385Y-69978824D01*
X127611121Y-70015600D01*
X127611123Y-70015600D01*
X127811279Y-70015600D01*
X128008014Y-69978824D01*
X128008016Y-69978823D01*
X128008022Y-69978822D01*
X128194660Y-69906518D01*
X128364834Y-69801151D01*
X128512749Y-69666308D01*
X128633368Y-69506583D01*
X128722585Y-69327412D01*
X128777359Y-69134900D01*
X128781705Y-69088000D01*
X131287200Y-69088000D01*
X131306744Y-69273954D01*
X131364525Y-69451786D01*
X131458015Y-69613715D01*
X131583125Y-69752665D01*
X131583128Y-69752667D01*
X131583130Y-69752669D01*
X131734400Y-69862573D01*
X131905215Y-69938625D01*
X131996662Y-69958062D01*
X132088109Y-69977500D01*
X132088110Y-69977500D01*
X132275091Y-69977500D01*
X132336055Y-69964541D01*
X132457985Y-69938625D01*
X132628800Y-69862573D01*
X132780070Y-69752669D01*
X132905185Y-69613715D01*
X132998675Y-69451785D01*
X133056455Y-69273956D01*
X133076000Y-69088000D01*
X133056455Y-68902044D01*
X132998675Y-68724215D01*
X132905185Y-68562285D01*
X132888526Y-68543783D01*
X132780074Y-68423334D01*
X132780071Y-68423332D01*
X132780070Y-68423331D01*
X132628800Y-68313427D01*
X132457985Y-68237375D01*
X132457983Y-68237374D01*
X132275091Y-68198500D01*
X132275090Y-68198500D01*
X132088110Y-68198500D01*
X132088109Y-68198500D01*
X131905216Y-68237374D01*
X131827480Y-68271984D01*
X131734400Y-68313427D01*
X131734397Y-68313428D01*
X131734397Y-68313429D01*
X131583128Y-68423332D01*
X131583125Y-68423334D01*
X131458015Y-68562284D01*
X131364525Y-68724213D01*
X131306744Y-68902045D01*
X131287200Y-69088000D01*
X128781705Y-69088000D01*
X128795827Y-68935600D01*
X128777359Y-68736300D01*
X128722585Y-68543788D01*
X128633368Y-68364617D01*
X128512749Y-68204892D01*
X128512748Y-68204891D01*
X128512745Y-68204887D01*
X128364839Y-68070053D01*
X128364823Y-68070041D01*
X128194661Y-67964682D01*
X128194652Y-67964678D01*
X128104648Y-67929810D01*
X128034758Y-67882610D01*
X127992269Y-67809759D01*
X127985597Y-67725688D01*
X128016063Y-67647048D01*
X128061719Y-67599798D01*
X128110070Y-67564669D01*
X128235185Y-67425715D01*
X128328675Y-67263785D01*
X128386455Y-67085956D01*
X128406000Y-66900000D01*
X128386455Y-66714044D01*
X128332504Y-66548000D01*
X132150800Y-66548000D01*
X132170344Y-66733954D01*
X132228125Y-66911786D01*
X132321615Y-67073715D01*
X132446725Y-67212665D01*
X132446728Y-67212667D01*
X132446730Y-67212669D01*
X132598000Y-67322573D01*
X132768815Y-67398625D01*
X132860262Y-67418062D01*
X132951709Y-67437500D01*
X132951710Y-67437500D01*
X133138691Y-67437500D01*
X133199655Y-67424541D01*
X133321585Y-67398625D01*
X133492400Y-67322573D01*
X133509705Y-67310000D01*
X138094400Y-67310000D01*
X138113944Y-67495954D01*
X138171725Y-67673786D01*
X138265215Y-67835715D01*
X138390325Y-67974665D01*
X138390328Y-67974667D01*
X138390330Y-67974669D01*
X138541600Y-68084573D01*
X138712415Y-68160625D01*
X138803862Y-68180062D01*
X138895309Y-68199500D01*
X138895310Y-68199500D01*
X139082291Y-68199500D01*
X139143255Y-68186541D01*
X139265185Y-68160625D01*
X139436000Y-68084573D01*
X139587270Y-67974669D01*
X139596263Y-67964682D01*
X139694480Y-67855600D01*
X139712385Y-67835715D01*
X139805875Y-67673785D01*
X139863655Y-67495956D01*
X139883200Y-67310000D01*
X139863655Y-67124044D01*
X139805875Y-66946215D01*
X139785997Y-66911786D01*
X139712384Y-66784284D01*
X139587274Y-66645334D01*
X139587271Y-66645332D01*
X139453305Y-66548000D01*
X139436000Y-66535427D01*
X139265185Y-66459375D01*
X139265183Y-66459374D01*
X139082291Y-66420500D01*
X139082290Y-66420500D01*
X138895310Y-66420500D01*
X138895309Y-66420500D01*
X138712416Y-66459374D01*
X138634680Y-66493984D01*
X138541600Y-66535427D01*
X138541597Y-66535428D01*
X138541597Y-66535429D01*
X138390328Y-66645332D01*
X138390325Y-66645334D01*
X138265215Y-66784284D01*
X138171725Y-66946213D01*
X138113944Y-67124045D01*
X138094400Y-67310000D01*
X133509705Y-67310000D01*
X133643670Y-67212669D01*
X133768785Y-67073715D01*
X133862275Y-66911785D01*
X133920055Y-66733956D01*
X133939600Y-66548000D01*
X133920055Y-66362044D01*
X133862275Y-66184215D01*
X133768785Y-66022285D01*
X133754946Y-66006915D01*
X133643674Y-65883334D01*
X133643671Y-65883332D01*
X133643670Y-65883331D01*
X133492400Y-65773427D01*
X133321585Y-65697375D01*
X133321583Y-65697374D01*
X133138691Y-65658500D01*
X133138690Y-65658500D01*
X132951710Y-65658500D01*
X132951709Y-65658500D01*
X132768816Y-65697374D01*
X132691080Y-65731984D01*
X132598000Y-65773427D01*
X132597997Y-65773428D01*
X132597997Y-65773429D01*
X132446728Y-65883332D01*
X132446725Y-65883334D01*
X132321615Y-66022284D01*
X132228125Y-66184213D01*
X132170344Y-66362045D01*
X132150800Y-66548000D01*
X128332504Y-66548000D01*
X128328675Y-66536215D01*
X128235185Y-66374285D01*
X128196954Y-66331825D01*
X128110074Y-66235334D01*
X128110069Y-66235330D01*
X127958582Y-66125268D01*
X127903095Y-66061758D01*
X127880659Y-65980462D01*
X127895718Y-65897481D01*
X127945289Y-65829253D01*
X127992884Y-65798847D01*
X128107600Y-65747773D01*
X128258870Y-65637869D01*
X128383985Y-65498915D01*
X128477475Y-65336985D01*
X128535255Y-65159156D01*
X128544121Y-65074800D01*
X130372800Y-65074800D01*
X130392344Y-65260754D01*
X130450125Y-65438586D01*
X130543615Y-65600515D01*
X130668725Y-65739465D01*
X130668728Y-65739467D01*
X130668730Y-65739469D01*
X130820000Y-65849373D01*
X130990815Y-65925425D01*
X131082262Y-65944862D01*
X131173709Y-65964300D01*
X131173710Y-65964300D01*
X131360691Y-65964300D01*
X131421655Y-65951341D01*
X131543585Y-65925425D01*
X131714400Y-65849373D01*
X131865670Y-65739469D01*
X131990785Y-65600515D01*
X132059671Y-65481200D01*
X134386000Y-65481200D01*
X134405544Y-65667154D01*
X134463325Y-65844986D01*
X134556815Y-66006915D01*
X134681925Y-66145865D01*
X134681928Y-66145867D01*
X134681930Y-66145869D01*
X134833200Y-66255773D01*
X135004015Y-66331825D01*
X135095462Y-66351262D01*
X135186909Y-66370700D01*
X135186910Y-66370700D01*
X135373891Y-66370700D01*
X135434855Y-66357741D01*
X135556785Y-66331825D01*
X135727600Y-66255773D01*
X135878870Y-66145869D01*
X136003985Y-66006915D01*
X136097475Y-65844985D01*
X136155255Y-65667156D01*
X136174800Y-65481200D01*
X136155255Y-65295244D01*
X136097475Y-65117415D01*
X136003985Y-64955485D01*
X135995955Y-64946567D01*
X135916390Y-64858200D01*
X135875319Y-64784540D01*
X135870276Y-64700356D01*
X135902259Y-64622320D01*
X135964932Y-64565889D01*
X136045884Y-64542239D01*
X136057216Y-64541900D01*
X136237491Y-64541900D01*
X136298455Y-64528941D01*
X136420385Y-64503025D01*
X136424730Y-64501090D01*
X136428820Y-64500284D01*
X136429835Y-64499955D01*
X136429874Y-64500076D01*
X136507472Y-64484791D01*
X136589096Y-64506006D01*
X136613194Y-64520897D01*
X136642569Y-64542239D01*
X136763600Y-64630173D01*
X136934415Y-64706225D01*
X137025862Y-64725662D01*
X137117309Y-64745100D01*
X137117310Y-64745100D01*
X137304291Y-64745100D01*
X137365255Y-64732141D01*
X137487185Y-64706225D01*
X137658000Y-64630173D01*
X137809270Y-64520269D01*
X137822113Y-64506006D01*
X137875282Y-64446955D01*
X137934385Y-64381315D01*
X138027875Y-64219385D01*
X138085655Y-64041556D01*
X138105200Y-63855600D01*
X138085655Y-63669644D01*
X138027875Y-63491815D01*
X137934385Y-63329885D01*
X137925473Y-63319987D01*
X137809274Y-63190934D01*
X137809271Y-63190932D01*
X137809270Y-63190931D01*
X137658000Y-63081027D01*
X137487185Y-63004975D01*
X137487183Y-63004974D01*
X137304291Y-62966100D01*
X137304290Y-62966100D01*
X137117310Y-62966100D01*
X137117309Y-62966100D01*
X136934413Y-63004975D01*
X136930057Y-63006915D01*
X136925964Y-63007720D01*
X136924973Y-63008043D01*
X136924934Y-63007923D01*
X136847311Y-63023209D01*
X136765689Y-63001987D01*
X136741614Y-62987109D01*
X136591200Y-62877827D01*
X136420385Y-62801775D01*
X136420383Y-62801774D01*
X136237491Y-62762900D01*
X136237490Y-62762900D01*
X136050510Y-62762900D01*
X136050509Y-62762900D01*
X135867616Y-62801774D01*
X135789880Y-62836384D01*
X135696800Y-62877827D01*
X135696797Y-62877828D01*
X135696797Y-62877829D01*
X135545528Y-62987732D01*
X135545525Y-62987734D01*
X135420415Y-63126684D01*
X135326925Y-63288613D01*
X135269144Y-63466445D01*
X135249600Y-63652400D01*
X135269144Y-63838354D01*
X135326925Y-64016186D01*
X135420415Y-64178115D01*
X135508010Y-64275400D01*
X135549081Y-64349060D01*
X135554124Y-64433244D01*
X135522141Y-64511280D01*
X135459468Y-64567711D01*
X135378516Y-64591361D01*
X135367184Y-64591700D01*
X135186909Y-64591700D01*
X135004016Y-64630574D01*
X134926280Y-64665184D01*
X134833200Y-64706627D01*
X134833197Y-64706628D01*
X134833197Y-64706629D01*
X134681928Y-64816532D01*
X134681925Y-64816534D01*
X134556815Y-64955484D01*
X134463325Y-65117413D01*
X134405544Y-65295245D01*
X134386000Y-65481200D01*
X132059671Y-65481200D01*
X132084275Y-65438585D01*
X132142055Y-65260756D01*
X132161600Y-65074800D01*
X132142055Y-64888844D01*
X132084275Y-64711015D01*
X131990785Y-64549085D01*
X131981873Y-64539187D01*
X131865674Y-64410134D01*
X131865671Y-64410132D01*
X131826008Y-64381315D01*
X131714400Y-64300227D01*
X131543585Y-64224175D01*
X131543583Y-64224174D01*
X131360691Y-64185300D01*
X131360690Y-64185300D01*
X131173710Y-64185300D01*
X131173709Y-64185300D01*
X130990816Y-64224174D01*
X130913080Y-64258784D01*
X130820000Y-64300227D01*
X130819997Y-64300228D01*
X130819997Y-64300229D01*
X130668728Y-64410132D01*
X130668725Y-64410134D01*
X130543615Y-64549084D01*
X130450125Y-64711013D01*
X130392344Y-64888845D01*
X130372800Y-65074800D01*
X128544121Y-65074800D01*
X128554800Y-64973200D01*
X128535255Y-64787244D01*
X128477475Y-64609415D01*
X128383985Y-64447485D01*
X128350352Y-64410132D01*
X128258874Y-64308534D01*
X128258871Y-64308532D01*
X128247443Y-64300229D01*
X128107600Y-64198627D01*
X127936785Y-64122575D01*
X127936783Y-64122574D01*
X127753891Y-64083700D01*
X127753890Y-64083700D01*
X127566910Y-64083700D01*
X127566909Y-64083700D01*
X127384016Y-64122574D01*
X127306280Y-64157184D01*
X127213200Y-64198627D01*
X127213197Y-64198628D01*
X127213197Y-64198629D01*
X127061928Y-64308532D01*
X127061925Y-64308534D01*
X126936815Y-64447484D01*
X126843325Y-64609413D01*
X126785544Y-64787245D01*
X126766000Y-64973200D01*
X126785544Y-65159154D01*
X126843325Y-65336986D01*
X126936815Y-65498915D01*
X127061925Y-65637865D01*
X127061928Y-65637867D01*
X127061930Y-65637869D01*
X127143832Y-65697374D01*
X127213416Y-65747930D01*
X127268904Y-65811441D01*
X127291340Y-65892737D01*
X127276281Y-65975717D01*
X127226710Y-66043946D01*
X127179110Y-66074354D01*
X127064400Y-66125427D01*
X127064397Y-66125428D01*
X127064397Y-66125429D01*
X126913128Y-66235332D01*
X126913125Y-66235334D01*
X126788015Y-66374284D01*
X126694525Y-66536213D01*
X126636744Y-66714045D01*
X126617200Y-66900000D01*
X123952500Y-66900000D01*
X123952500Y-61264800D01*
X135249600Y-61264800D01*
X135269144Y-61450754D01*
X135326925Y-61628586D01*
X135420415Y-61790515D01*
X135545525Y-61929465D01*
X135545528Y-61929467D01*
X135545530Y-61929469D01*
X135696800Y-62039373D01*
X135867615Y-62115425D01*
X135959062Y-62134862D01*
X136050509Y-62154300D01*
X136050510Y-62154300D01*
X136237491Y-62154300D01*
X136298455Y-62141341D01*
X136420385Y-62115425D01*
X136591200Y-62039373D01*
X136742470Y-61929469D01*
X136780325Y-61887427D01*
X136849288Y-61838881D01*
X136932484Y-61825065D01*
X137013435Y-61848715D01*
X137032536Y-61860916D01*
X137068400Y-61886973D01*
X137239215Y-61963025D01*
X137330662Y-61982462D01*
X137422109Y-62001900D01*
X137422110Y-62001900D01*
X137609091Y-62001900D01*
X137670055Y-61988941D01*
X137791985Y-61963025D01*
X137962800Y-61886973D01*
X138114070Y-61777069D01*
X138239185Y-61638115D01*
X138332675Y-61476185D01*
X138390455Y-61298356D01*
X138410000Y-61112400D01*
X138390455Y-60926444D01*
X138332675Y-60748615D01*
X138239185Y-60586685D01*
X138175794Y-60516282D01*
X138114074Y-60447734D01*
X138114071Y-60447732D01*
X138067884Y-60414175D01*
X137962800Y-60337827D01*
X137791985Y-60261775D01*
X137791983Y-60261774D01*
X137609091Y-60222900D01*
X137609090Y-60222900D01*
X137422110Y-60222900D01*
X137422109Y-60222900D01*
X137239216Y-60261774D01*
X137161480Y-60296384D01*
X137068400Y-60337827D01*
X137068397Y-60337828D01*
X137068397Y-60337829D01*
X136917128Y-60447732D01*
X136917123Y-60447736D01*
X136879271Y-60489775D01*
X136810308Y-60538319D01*
X136727111Y-60552134D01*
X136646160Y-60528482D01*
X136627062Y-60516282D01*
X136591203Y-60490229D01*
X136591202Y-60490228D01*
X136591200Y-60490227D01*
X136420385Y-60414175D01*
X136420383Y-60414174D01*
X136237491Y-60375300D01*
X136237490Y-60375300D01*
X136050510Y-60375300D01*
X136050509Y-60375300D01*
X135867616Y-60414174D01*
X135792236Y-60447736D01*
X135696800Y-60490227D01*
X135696797Y-60490228D01*
X135696797Y-60490229D01*
X135545528Y-60600132D01*
X135545525Y-60600134D01*
X135420415Y-60739084D01*
X135326925Y-60901013D01*
X135269144Y-61078845D01*
X135249600Y-61264800D01*
X123952500Y-61264800D01*
X123952500Y-57708800D01*
X137484800Y-57708800D01*
X137504344Y-57894754D01*
X137562125Y-58072586D01*
X137655615Y-58234515D01*
X137780725Y-58373465D01*
X137780728Y-58373467D01*
X137780730Y-58373469D01*
X137932000Y-58483373D01*
X138102815Y-58559425D01*
X138194262Y-58578862D01*
X138285709Y-58598300D01*
X138285710Y-58598300D01*
X138472692Y-58598300D01*
X138482569Y-58597262D01*
X138482702Y-58598530D01*
X138556656Y-58599629D01*
X138632088Y-58637347D01*
X138683684Y-58704057D01*
X138701226Y-58786548D01*
X138698774Y-58808324D01*
X138699183Y-58808367D01*
X138678600Y-59004200D01*
X138698144Y-59190154D01*
X138755925Y-59367986D01*
X138849415Y-59529915D01*
X138974525Y-59668865D01*
X138974528Y-59668867D01*
X138974530Y-59668869D01*
X139125800Y-59778773D01*
X139296615Y-59854825D01*
X139388062Y-59874262D01*
X139479509Y-59893700D01*
X139479510Y-59893700D01*
X139666491Y-59893700D01*
X139727455Y-59880741D01*
X139849385Y-59854825D01*
X140020200Y-59778773D01*
X140171470Y-59668869D01*
X140296585Y-59529915D01*
X140390075Y-59367985D01*
X140447855Y-59190156D01*
X140467400Y-59004200D01*
X140447855Y-58818244D01*
X140390075Y-58640415D01*
X140296585Y-58478485D01*
X140265774Y-58444266D01*
X140171474Y-58339534D01*
X140171471Y-58339532D01*
X140171470Y-58339531D01*
X140020200Y-58229627D01*
X139849385Y-58153575D01*
X139849383Y-58153574D01*
X139666491Y-58114700D01*
X139666490Y-58114700D01*
X139479510Y-58114700D01*
X139479508Y-58114700D01*
X139469631Y-58115738D01*
X139469498Y-58114472D01*
X139395520Y-58113364D01*
X139320093Y-58075637D01*
X139268505Y-58008921D01*
X139250973Y-57926428D01*
X139253426Y-57904676D01*
X139253017Y-57904633D01*
X139255338Y-57882547D01*
X139273600Y-57708800D01*
X139254055Y-57522844D01*
X139196275Y-57345015D01*
X139102785Y-57183085D01*
X139093873Y-57173187D01*
X138977674Y-57044134D01*
X138977671Y-57044132D01*
X138826400Y-56934227D01*
X138751219Y-56900754D01*
X138683740Y-56850168D01*
X138644892Y-56775313D01*
X138642370Y-56691015D01*
X138676672Y-56613971D01*
X138741006Y-56559440D01*
X138788895Y-56542280D01*
X138858785Y-56527425D01*
X139029600Y-56451373D01*
X139180870Y-56341469D01*
X139305985Y-56202515D01*
X139399475Y-56040585D01*
X139457255Y-55862756D01*
X139476800Y-55676800D01*
X139457255Y-55490844D01*
X139399475Y-55313015D01*
X139305985Y-55151085D01*
X139297073Y-55141187D01*
X139180874Y-55012134D01*
X139180871Y-55012132D01*
X139162363Y-54998685D01*
X139029600Y-54902227D01*
X138858785Y-54826175D01*
X138858783Y-54826174D01*
X138675891Y-54787300D01*
X138675890Y-54787300D01*
X138488910Y-54787300D01*
X138488909Y-54787300D01*
X138306016Y-54826174D01*
X138228280Y-54860784D01*
X138135200Y-54902227D01*
X138135197Y-54902228D01*
X138135197Y-54902229D01*
X137983928Y-55012132D01*
X137983925Y-55012134D01*
X137858815Y-55151084D01*
X137765325Y-55313013D01*
X137707544Y-55490845D01*
X137688000Y-55676800D01*
X137707544Y-55862754D01*
X137765325Y-56040586D01*
X137858815Y-56202515D01*
X137983925Y-56341465D01*
X137983928Y-56341467D01*
X137983930Y-56341469D01*
X138135200Y-56451373D01*
X138210382Y-56484846D01*
X138277858Y-56535430D01*
X138316707Y-56610285D01*
X138319230Y-56694583D01*
X138284927Y-56771627D01*
X138220594Y-56826159D01*
X138172702Y-56843320D01*
X138140485Y-56850168D01*
X138102815Y-56858175D01*
X137932000Y-56934227D01*
X137931997Y-56934228D01*
X137931997Y-56934229D01*
X137780728Y-57044132D01*
X137780725Y-57044134D01*
X137655615Y-57183084D01*
X137562125Y-57345013D01*
X137504344Y-57522845D01*
X137484800Y-57708800D01*
X123952500Y-57708800D01*
X123952500Y-54596300D01*
X123971266Y-54514079D01*
X124023849Y-54448143D01*
X124099832Y-54411551D01*
X124142000Y-54406800D01*
X127508515Y-54406800D01*
X127590736Y-54425566D01*
G37*
G04 #@! TD.AperFunction*
M02*
