G04 #@! TF.GenerationSoftware,KiCad,Pcbnew,8.0.5*
G04 #@! TF.CreationDate,2024-10-24T23:20:29+02:00*
G04 #@! TF.ProjectId,iot-opentherm,696f742d-6f70-4656-9e74-6865726d2e6b,rev?*
G04 #@! TF.SameCoordinates,Original*
G04 #@! TF.FileFunction,Legend,Top*
G04 #@! TF.FilePolarity,Positive*
%FSLAX46Y46*%
G04 Gerber Fmt 4.6, Leading zero omitted, Abs format (unit mm)*
G04 Created by KiCad (PCBNEW 8.0.5) date 2024-10-24 23:20:29*
%MOMM*%
%LPD*%
G01*
G04 APERTURE LIST*
G04 Aperture macros list*
%AMRoundRect*
0 Rectangle with rounded corners*
0 $1 Rounding radius*
0 $2 $3 $4 $5 $6 $7 $8 $9 X,Y pos of 4 corners*
0 Add a 4 corners polygon primitive as box body*
4,1,4,$2,$3,$4,$5,$6,$7,$8,$9,$2,$3,0*
0 Add four circle primitives for the rounded corners*
1,1,$1+$1,$2,$3*
1,1,$1+$1,$4,$5*
1,1,$1+$1,$6,$7*
1,1,$1+$1,$8,$9*
0 Add four rect primitives between the rounded corners*
20,1,$1+$1,$2,$3,$4,$5,0*
20,1,$1+$1,$4,$5,$6,$7,0*
20,1,$1+$1,$6,$7,$8,$9,0*
20,1,$1+$1,$8,$9,$2,$3,0*%
G04 Aperture macros list end*
%ADD10C,0.150000*%
%ADD11C,0.120000*%
%ADD12RoundRect,0.375000X0.375000X-0.625000X0.375000X0.625000X-0.375000X0.625000X-0.375000X-0.625000X0*%
%ADD13RoundRect,0.500000X1.400000X-0.500000X1.400000X0.500000X-1.400000X0.500000X-1.400000X-0.500000X0*%
%ADD14R,1.700000X1.700000*%
%ADD15O,1.700000X1.700000*%
%ADD16RoundRect,0.112500X0.187500X0.112500X-0.187500X0.112500X-0.187500X-0.112500X0.187500X-0.112500X0*%
%ADD17RoundRect,0.250000X0.250000X-0.250000X0.250000X0.250000X-0.250000X0.250000X-0.250000X-0.250000X0*%
%ADD18R,0.400000X1.350000*%
%ADD19O,1.000000X1.900000*%
%ADD20R,0.875000X1.900000*%
%ADD21O,1.050000X1.250000*%
%ADD22R,2.900000X1.900000*%
%ADD23R,1.500000X1.600000*%
%ADD24R,2.600000X1.100000*%
G04 APERTURE END LIST*
D10*
X133937828Y-102503515D02*
X133937828Y-103120372D01*
X133937828Y-103120372D02*
X133974114Y-103192944D01*
X133974114Y-103192944D02*
X134010400Y-103229230D01*
X134010400Y-103229230D02*
X134082971Y-103265515D01*
X134082971Y-103265515D02*
X134228114Y-103265515D01*
X134228114Y-103265515D02*
X134300685Y-103229230D01*
X134300685Y-103229230D02*
X134336971Y-103192944D01*
X134336971Y-103192944D02*
X134373257Y-103120372D01*
X134373257Y-103120372D02*
X134373257Y-102503515D01*
X135135257Y-103265515D02*
X134699828Y-103265515D01*
X134917543Y-103265515D02*
X134917543Y-102503515D01*
X134917543Y-102503515D02*
X134844971Y-102612372D01*
X134844971Y-102612372D02*
X134772400Y-102684944D01*
X134772400Y-102684944D02*
X134699828Y-102721230D01*
X141122400Y-81650115D02*
X141122400Y-82194401D01*
X141122400Y-82194401D02*
X141086115Y-82303258D01*
X141086115Y-82303258D02*
X141013543Y-82375830D01*
X141013543Y-82375830D02*
X140904686Y-82412115D01*
X140904686Y-82412115D02*
X140832115Y-82412115D01*
X141811829Y-81904115D02*
X141811829Y-82412115D01*
X141630400Y-81613830D02*
X141448971Y-82158115D01*
X141448971Y-82158115D02*
X141920686Y-82158115D01*
X142185571Y-87187315D02*
X142185571Y-86425315D01*
X142185571Y-86425315D02*
X142367000Y-86425315D01*
X142367000Y-86425315D02*
X142475857Y-86461601D01*
X142475857Y-86461601D02*
X142548428Y-86534172D01*
X142548428Y-86534172D02*
X142584714Y-86606744D01*
X142584714Y-86606744D02*
X142621000Y-86751887D01*
X142621000Y-86751887D02*
X142621000Y-86860744D01*
X142621000Y-86860744D02*
X142584714Y-87005887D01*
X142584714Y-87005887D02*
X142548428Y-87078458D01*
X142548428Y-87078458D02*
X142475857Y-87151030D01*
X142475857Y-87151030D02*
X142367000Y-87187315D01*
X142367000Y-87187315D02*
X142185571Y-87187315D01*
X143346714Y-87187315D02*
X142911285Y-87187315D01*
X143129000Y-87187315D02*
X143129000Y-86425315D01*
X143129000Y-86425315D02*
X143056428Y-86534172D01*
X143056428Y-86534172D02*
X142983857Y-86606744D01*
X142983857Y-86606744D02*
X142911285Y-86643030D01*
X136699171Y-96915515D02*
X136699171Y-96153515D01*
X136699171Y-96153515D02*
X136880600Y-96153515D01*
X136880600Y-96153515D02*
X136989457Y-96189801D01*
X136989457Y-96189801D02*
X137062028Y-96262372D01*
X137062028Y-96262372D02*
X137098314Y-96334944D01*
X137098314Y-96334944D02*
X137134600Y-96480087D01*
X137134600Y-96480087D02*
X137134600Y-96588944D01*
X137134600Y-96588944D02*
X137098314Y-96734087D01*
X137098314Y-96734087D02*
X137062028Y-96806658D01*
X137062028Y-96806658D02*
X136989457Y-96879230D01*
X136989457Y-96879230D02*
X136880600Y-96915515D01*
X136880600Y-96915515D02*
X136699171Y-96915515D01*
X137388600Y-96153515D02*
X137896600Y-96153515D01*
X137896600Y-96153515D02*
X137570028Y-96915515D01*
X132892800Y-105373715D02*
X132892800Y-105918001D01*
X132892800Y-105918001D02*
X132856515Y-106026858D01*
X132856515Y-106026858D02*
X132783943Y-106099430D01*
X132783943Y-106099430D02*
X132675086Y-106135715D01*
X132675086Y-106135715D02*
X132602515Y-106135715D01*
X133654800Y-106135715D02*
X133219371Y-106135715D01*
X133437086Y-106135715D02*
X133437086Y-105373715D01*
X133437086Y-105373715D02*
X133364514Y-105482572D01*
X133364514Y-105482572D02*
X133291943Y-105555144D01*
X133291943Y-105555144D02*
X133219371Y-105591430D01*
X142312571Y-92165715D02*
X142312571Y-91403715D01*
X142312571Y-91403715D02*
X142494000Y-91403715D01*
X142494000Y-91403715D02*
X142602857Y-91440001D01*
X142602857Y-91440001D02*
X142675428Y-91512572D01*
X142675428Y-91512572D02*
X142711714Y-91585144D01*
X142711714Y-91585144D02*
X142748000Y-91730287D01*
X142748000Y-91730287D02*
X142748000Y-91839144D01*
X142748000Y-91839144D02*
X142711714Y-91984287D01*
X142711714Y-91984287D02*
X142675428Y-92056858D01*
X142675428Y-92056858D02*
X142602857Y-92129430D01*
X142602857Y-92129430D02*
X142494000Y-92165715D01*
X142494000Y-92165715D02*
X142312571Y-92165715D01*
X143038285Y-91476287D02*
X143074571Y-91440001D01*
X143074571Y-91440001D02*
X143147143Y-91403715D01*
X143147143Y-91403715D02*
X143328571Y-91403715D01*
X143328571Y-91403715D02*
X143401143Y-91440001D01*
X143401143Y-91440001D02*
X143437428Y-91476287D01*
X143437428Y-91476287D02*
X143473714Y-91548858D01*
X143473714Y-91548858D02*
X143473714Y-91621430D01*
X143473714Y-91621430D02*
X143437428Y-91730287D01*
X143437428Y-91730287D02*
X143002000Y-92165715D01*
X143002000Y-92165715D02*
X143473714Y-92165715D01*
X125124028Y-87974715D02*
X125124028Y-88591572D01*
X125124028Y-88591572D02*
X125160314Y-88664144D01*
X125160314Y-88664144D02*
X125196600Y-88700430D01*
X125196600Y-88700430D02*
X125269171Y-88736715D01*
X125269171Y-88736715D02*
X125414314Y-88736715D01*
X125414314Y-88736715D02*
X125486885Y-88700430D01*
X125486885Y-88700430D02*
X125523171Y-88664144D01*
X125523171Y-88664144D02*
X125559457Y-88591572D01*
X125559457Y-88591572D02*
X125559457Y-87974715D01*
X125849743Y-87974715D02*
X126321457Y-87974715D01*
X126321457Y-87974715D02*
X126067457Y-88265001D01*
X126067457Y-88265001D02*
X126176314Y-88265001D01*
X126176314Y-88265001D02*
X126248886Y-88301287D01*
X126248886Y-88301287D02*
X126285171Y-88337572D01*
X126285171Y-88337572D02*
X126321457Y-88410144D01*
X126321457Y-88410144D02*
X126321457Y-88591572D01*
X126321457Y-88591572D02*
X126285171Y-88664144D01*
X126285171Y-88664144D02*
X126248886Y-88700430D01*
X126248886Y-88700430D02*
X126176314Y-88736715D01*
X126176314Y-88736715D02*
X125958600Y-88736715D01*
X125958600Y-88736715D02*
X125886028Y-88700430D01*
X125886028Y-88700430D02*
X125849743Y-88664144D01*
X136906000Y-72633115D02*
X136906000Y-73177401D01*
X136906000Y-73177401D02*
X136869715Y-73286258D01*
X136869715Y-73286258D02*
X136797143Y-73358830D01*
X136797143Y-73358830D02*
X136688286Y-73395115D01*
X136688286Y-73395115D02*
X136615715Y-73395115D01*
X137268857Y-73395115D02*
X137268857Y-72633115D01*
X137268857Y-72633115D02*
X137559143Y-72633115D01*
X137559143Y-72633115D02*
X137631714Y-72669401D01*
X137631714Y-72669401D02*
X137668000Y-72705687D01*
X137668000Y-72705687D02*
X137704286Y-72778258D01*
X137704286Y-72778258D02*
X137704286Y-72887115D01*
X137704286Y-72887115D02*
X137668000Y-72959687D01*
X137668000Y-72959687D02*
X137631714Y-72995972D01*
X137631714Y-72995972D02*
X137559143Y-73032258D01*
X137559143Y-73032258D02*
X137268857Y-73032258D01*
X138357429Y-72887115D02*
X138357429Y-73395115D01*
X138176000Y-72596830D02*
X137994571Y-73141115D01*
X137994571Y-73141115D02*
X138466286Y-73141115D01*
X138781971Y-96813915D02*
X138781971Y-96051915D01*
X138781971Y-96051915D02*
X138963400Y-96051915D01*
X138963400Y-96051915D02*
X139072257Y-96088201D01*
X139072257Y-96088201D02*
X139144828Y-96160772D01*
X139144828Y-96160772D02*
X139181114Y-96233344D01*
X139181114Y-96233344D02*
X139217400Y-96378487D01*
X139217400Y-96378487D02*
X139217400Y-96487344D01*
X139217400Y-96487344D02*
X139181114Y-96632487D01*
X139181114Y-96632487D02*
X139144828Y-96705058D01*
X139144828Y-96705058D02*
X139072257Y-96777630D01*
X139072257Y-96777630D02*
X138963400Y-96813915D01*
X138963400Y-96813915D02*
X138781971Y-96813915D01*
X139870543Y-96051915D02*
X139725400Y-96051915D01*
X139725400Y-96051915D02*
X139652828Y-96088201D01*
X139652828Y-96088201D02*
X139616543Y-96124487D01*
X139616543Y-96124487D02*
X139543971Y-96233344D01*
X139543971Y-96233344D02*
X139507685Y-96378487D01*
X139507685Y-96378487D02*
X139507685Y-96668772D01*
X139507685Y-96668772D02*
X139543971Y-96741344D01*
X139543971Y-96741344D02*
X139580257Y-96777630D01*
X139580257Y-96777630D02*
X139652828Y-96813915D01*
X139652828Y-96813915D02*
X139797971Y-96813915D01*
X139797971Y-96813915D02*
X139870543Y-96777630D01*
X139870543Y-96777630D02*
X139906828Y-96741344D01*
X139906828Y-96741344D02*
X139943114Y-96668772D01*
X139943114Y-96668772D02*
X139943114Y-96487344D01*
X139943114Y-96487344D02*
X139906828Y-96414772D01*
X139906828Y-96414772D02*
X139870543Y-96378487D01*
X139870543Y-96378487D02*
X139797971Y-96342201D01*
X139797971Y-96342201D02*
X139652828Y-96342201D01*
X139652828Y-96342201D02*
X139580257Y-96378487D01*
X139580257Y-96378487D02*
X139543971Y-96414772D01*
X139543971Y-96414772D02*
X139507685Y-96487344D01*
X129260600Y-72633115D02*
X129260600Y-73177401D01*
X129260600Y-73177401D02*
X129224315Y-73286258D01*
X129224315Y-73286258D02*
X129151743Y-73358830D01*
X129151743Y-73358830D02*
X129042886Y-73395115D01*
X129042886Y-73395115D02*
X128970315Y-73395115D01*
X129623457Y-73395115D02*
X129623457Y-72633115D01*
X129623457Y-72633115D02*
X129913743Y-72633115D01*
X129913743Y-72633115D02*
X129986314Y-72669401D01*
X129986314Y-72669401D02*
X130022600Y-72705687D01*
X130022600Y-72705687D02*
X130058886Y-72778258D01*
X130058886Y-72778258D02*
X130058886Y-72887115D01*
X130058886Y-72887115D02*
X130022600Y-72959687D01*
X130022600Y-72959687D02*
X129986314Y-72995972D01*
X129986314Y-72995972D02*
X129913743Y-73032258D01*
X129913743Y-73032258D02*
X129623457Y-73032258D01*
X130349171Y-72705687D02*
X130385457Y-72669401D01*
X130385457Y-72669401D02*
X130458029Y-72633115D01*
X130458029Y-72633115D02*
X130639457Y-72633115D01*
X130639457Y-72633115D02*
X130712029Y-72669401D01*
X130712029Y-72669401D02*
X130748314Y-72705687D01*
X130748314Y-72705687D02*
X130784600Y-72778258D01*
X130784600Y-72778258D02*
X130784600Y-72850830D01*
X130784600Y-72850830D02*
X130748314Y-72959687D01*
X130748314Y-72959687D02*
X130312886Y-73395115D01*
X130312886Y-73395115D02*
X130784600Y-73395115D01*
X124409200Y-107583515D02*
X124409200Y-108127801D01*
X124409200Y-108127801D02*
X124372915Y-108236658D01*
X124372915Y-108236658D02*
X124300343Y-108309230D01*
X124300343Y-108309230D02*
X124191486Y-108345515D01*
X124191486Y-108345515D02*
X124118915Y-108345515D01*
X124735771Y-107656087D02*
X124772057Y-107619801D01*
X124772057Y-107619801D02*
X124844629Y-107583515D01*
X124844629Y-107583515D02*
X125026057Y-107583515D01*
X125026057Y-107583515D02*
X125098629Y-107619801D01*
X125098629Y-107619801D02*
X125134914Y-107656087D01*
X125134914Y-107656087D02*
X125171200Y-107728658D01*
X125171200Y-107728658D02*
X125171200Y-107801230D01*
X125171200Y-107801230D02*
X125134914Y-107910087D01*
X125134914Y-107910087D02*
X124699486Y-108345515D01*
X124699486Y-108345515D02*
X125171200Y-108345515D01*
X131601028Y-88152515D02*
X131601028Y-88769372D01*
X131601028Y-88769372D02*
X131637314Y-88841944D01*
X131637314Y-88841944D02*
X131673600Y-88878230D01*
X131673600Y-88878230D02*
X131746171Y-88914515D01*
X131746171Y-88914515D02*
X131891314Y-88914515D01*
X131891314Y-88914515D02*
X131963885Y-88878230D01*
X131963885Y-88878230D02*
X132000171Y-88841944D01*
X132000171Y-88841944D02*
X132036457Y-88769372D01*
X132036457Y-88769372D02*
X132036457Y-88152515D01*
X132725886Y-88406515D02*
X132725886Y-88914515D01*
X132544457Y-88116230D02*
X132363028Y-88660515D01*
X132363028Y-88660515D02*
X132834743Y-88660515D01*
X132943600Y-72506115D02*
X132943600Y-73050401D01*
X132943600Y-73050401D02*
X132907315Y-73159258D01*
X132907315Y-73159258D02*
X132834743Y-73231830D01*
X132834743Y-73231830D02*
X132725886Y-73268115D01*
X132725886Y-73268115D02*
X132653315Y-73268115D01*
X133306457Y-73268115D02*
X133306457Y-72506115D01*
X133306457Y-72506115D02*
X133596743Y-72506115D01*
X133596743Y-72506115D02*
X133669314Y-72542401D01*
X133669314Y-72542401D02*
X133705600Y-72578687D01*
X133705600Y-72578687D02*
X133741886Y-72651258D01*
X133741886Y-72651258D02*
X133741886Y-72760115D01*
X133741886Y-72760115D02*
X133705600Y-72832687D01*
X133705600Y-72832687D02*
X133669314Y-72868972D01*
X133669314Y-72868972D02*
X133596743Y-72905258D01*
X133596743Y-72905258D02*
X133306457Y-72905258D01*
X133995886Y-72506115D02*
X134467600Y-72506115D01*
X134467600Y-72506115D02*
X134213600Y-72796401D01*
X134213600Y-72796401D02*
X134322457Y-72796401D01*
X134322457Y-72796401D02*
X134395029Y-72832687D01*
X134395029Y-72832687D02*
X134431314Y-72868972D01*
X134431314Y-72868972D02*
X134467600Y-72941544D01*
X134467600Y-72941544D02*
X134467600Y-73122972D01*
X134467600Y-73122972D02*
X134431314Y-73195544D01*
X134431314Y-73195544D02*
X134395029Y-73231830D01*
X134395029Y-73231830D02*
X134322457Y-73268115D01*
X134322457Y-73268115D02*
X134104743Y-73268115D01*
X134104743Y-73268115D02*
X134032171Y-73231830D01*
X134032171Y-73231830D02*
X133995886Y-73195544D01*
X131140200Y-103570315D02*
X131140200Y-104114601D01*
X131140200Y-104114601D02*
X131103915Y-104223458D01*
X131103915Y-104223458D02*
X131031343Y-104296030D01*
X131031343Y-104296030D02*
X130922486Y-104332315D01*
X130922486Y-104332315D02*
X130849915Y-104332315D01*
X131865914Y-103570315D02*
X131503057Y-103570315D01*
X131503057Y-103570315D02*
X131466771Y-103933172D01*
X131466771Y-103933172D02*
X131503057Y-103896887D01*
X131503057Y-103896887D02*
X131575629Y-103860601D01*
X131575629Y-103860601D02*
X131757057Y-103860601D01*
X131757057Y-103860601D02*
X131829629Y-103896887D01*
X131829629Y-103896887D02*
X131865914Y-103933172D01*
X131865914Y-103933172D02*
X131902200Y-104005744D01*
X131902200Y-104005744D02*
X131902200Y-104187172D01*
X131902200Y-104187172D02*
X131865914Y-104259744D01*
X131865914Y-104259744D02*
X131829629Y-104296030D01*
X131829629Y-104296030D02*
X131757057Y-104332315D01*
X131757057Y-104332315D02*
X131575629Y-104332315D01*
X131575629Y-104332315D02*
X131503057Y-104296030D01*
X131503057Y-104296030D02*
X131466771Y-104259744D01*
X134997371Y-91860915D02*
X134997371Y-91098915D01*
X134997371Y-91098915D02*
X135178800Y-91098915D01*
X135178800Y-91098915D02*
X135287657Y-91135201D01*
X135287657Y-91135201D02*
X135360228Y-91207772D01*
X135360228Y-91207772D02*
X135396514Y-91280344D01*
X135396514Y-91280344D02*
X135432800Y-91425487D01*
X135432800Y-91425487D02*
X135432800Y-91534344D01*
X135432800Y-91534344D02*
X135396514Y-91679487D01*
X135396514Y-91679487D02*
X135360228Y-91752058D01*
X135360228Y-91752058D02*
X135287657Y-91824630D01*
X135287657Y-91824630D02*
X135178800Y-91860915D01*
X135178800Y-91860915D02*
X134997371Y-91860915D01*
X136085943Y-91352915D02*
X136085943Y-91860915D01*
X135904514Y-91062630D02*
X135723085Y-91606915D01*
X135723085Y-91606915D02*
X136194800Y-91606915D01*
X124412828Y-71058315D02*
X124412828Y-71675172D01*
X124412828Y-71675172D02*
X124449114Y-71747744D01*
X124449114Y-71747744D02*
X124485400Y-71784030D01*
X124485400Y-71784030D02*
X124557971Y-71820315D01*
X124557971Y-71820315D02*
X124703114Y-71820315D01*
X124703114Y-71820315D02*
X124775685Y-71784030D01*
X124775685Y-71784030D02*
X124811971Y-71747744D01*
X124811971Y-71747744D02*
X124848257Y-71675172D01*
X124848257Y-71675172D02*
X124848257Y-71058315D01*
X125174828Y-71130887D02*
X125211114Y-71094601D01*
X125211114Y-71094601D02*
X125283686Y-71058315D01*
X125283686Y-71058315D02*
X125465114Y-71058315D01*
X125465114Y-71058315D02*
X125537686Y-71094601D01*
X125537686Y-71094601D02*
X125573971Y-71130887D01*
X125573971Y-71130887D02*
X125610257Y-71203458D01*
X125610257Y-71203458D02*
X125610257Y-71276030D01*
X125610257Y-71276030D02*
X125573971Y-71384887D01*
X125573971Y-71384887D02*
X125138543Y-71820315D01*
X125138543Y-71820315D02*
X125610257Y-71820315D01*
X140813971Y-96966315D02*
X140813971Y-96204315D01*
X140813971Y-96204315D02*
X140995400Y-96204315D01*
X140995400Y-96204315D02*
X141104257Y-96240601D01*
X141104257Y-96240601D02*
X141176828Y-96313172D01*
X141176828Y-96313172D02*
X141213114Y-96385744D01*
X141213114Y-96385744D02*
X141249400Y-96530887D01*
X141249400Y-96530887D02*
X141249400Y-96639744D01*
X141249400Y-96639744D02*
X141213114Y-96784887D01*
X141213114Y-96784887D02*
X141176828Y-96857458D01*
X141176828Y-96857458D02*
X141104257Y-96930030D01*
X141104257Y-96930030D02*
X140995400Y-96966315D01*
X140995400Y-96966315D02*
X140813971Y-96966315D01*
X141938828Y-96204315D02*
X141575971Y-96204315D01*
X141575971Y-96204315D02*
X141539685Y-96567172D01*
X141539685Y-96567172D02*
X141575971Y-96530887D01*
X141575971Y-96530887D02*
X141648543Y-96494601D01*
X141648543Y-96494601D02*
X141829971Y-96494601D01*
X141829971Y-96494601D02*
X141902543Y-96530887D01*
X141902543Y-96530887D02*
X141938828Y-96567172D01*
X141938828Y-96567172D02*
X141975114Y-96639744D01*
X141975114Y-96639744D02*
X141975114Y-96821172D01*
X141975114Y-96821172D02*
X141938828Y-96893744D01*
X141938828Y-96893744D02*
X141902543Y-96930030D01*
X141902543Y-96930030D02*
X141829971Y-96966315D01*
X141829971Y-96966315D02*
X141648543Y-96966315D01*
X141648543Y-96966315D02*
X141575971Y-96930030D01*
X141575971Y-96930030D02*
X141539685Y-96893744D01*
X134616371Y-87771515D02*
X134616371Y-87009515D01*
X134616371Y-87009515D02*
X134797800Y-87009515D01*
X134797800Y-87009515D02*
X134906657Y-87045801D01*
X134906657Y-87045801D02*
X134979228Y-87118372D01*
X134979228Y-87118372D02*
X135015514Y-87190944D01*
X135015514Y-87190944D02*
X135051800Y-87336087D01*
X135051800Y-87336087D02*
X135051800Y-87444944D01*
X135051800Y-87444944D02*
X135015514Y-87590087D01*
X135015514Y-87590087D02*
X134979228Y-87662658D01*
X134979228Y-87662658D02*
X134906657Y-87735230D01*
X134906657Y-87735230D02*
X134797800Y-87771515D01*
X134797800Y-87771515D02*
X134616371Y-87771515D01*
X135305800Y-87009515D02*
X135777514Y-87009515D01*
X135777514Y-87009515D02*
X135523514Y-87299801D01*
X135523514Y-87299801D02*
X135632371Y-87299801D01*
X135632371Y-87299801D02*
X135704943Y-87336087D01*
X135704943Y-87336087D02*
X135741228Y-87372372D01*
X135741228Y-87372372D02*
X135777514Y-87444944D01*
X135777514Y-87444944D02*
X135777514Y-87626372D01*
X135777514Y-87626372D02*
X135741228Y-87698944D01*
X135741228Y-87698944D02*
X135704943Y-87735230D01*
X135704943Y-87735230D02*
X135632371Y-87771515D01*
X135632371Y-87771515D02*
X135414657Y-87771515D01*
X135414657Y-87771515D02*
X135342085Y-87735230D01*
X135342085Y-87735230D02*
X135305800Y-87698944D01*
X141020800Y-71540915D02*
X141020800Y-72085201D01*
X141020800Y-72085201D02*
X140984515Y-72194058D01*
X140984515Y-72194058D02*
X140911943Y-72266630D01*
X140911943Y-72266630D02*
X140803086Y-72302915D01*
X140803086Y-72302915D02*
X140730515Y-72302915D01*
X141311086Y-71540915D02*
X141782800Y-71540915D01*
X141782800Y-71540915D02*
X141528800Y-71831201D01*
X141528800Y-71831201D02*
X141637657Y-71831201D01*
X141637657Y-71831201D02*
X141710229Y-71867487D01*
X141710229Y-71867487D02*
X141746514Y-71903772D01*
X141746514Y-71903772D02*
X141782800Y-71976344D01*
X141782800Y-71976344D02*
X141782800Y-72157772D01*
X141782800Y-72157772D02*
X141746514Y-72230344D01*
X141746514Y-72230344D02*
X141710229Y-72266630D01*
X141710229Y-72266630D02*
X141637657Y-72302915D01*
X141637657Y-72302915D02*
X141419943Y-72302915D01*
X141419943Y-72302915D02*
X141347371Y-72266630D01*
X141347371Y-72266630D02*
X141311086Y-72230344D01*
X126111000Y-72633115D02*
X126111000Y-73177401D01*
X126111000Y-73177401D02*
X126074715Y-73286258D01*
X126074715Y-73286258D02*
X126002143Y-73358830D01*
X126002143Y-73358830D02*
X125893286Y-73395115D01*
X125893286Y-73395115D02*
X125820715Y-73395115D01*
X126473857Y-73395115D02*
X126473857Y-72633115D01*
X126473857Y-72633115D02*
X126764143Y-72633115D01*
X126764143Y-72633115D02*
X126836714Y-72669401D01*
X126836714Y-72669401D02*
X126873000Y-72705687D01*
X126873000Y-72705687D02*
X126909286Y-72778258D01*
X126909286Y-72778258D02*
X126909286Y-72887115D01*
X126909286Y-72887115D02*
X126873000Y-72959687D01*
X126873000Y-72959687D02*
X126836714Y-72995972D01*
X126836714Y-72995972D02*
X126764143Y-73032258D01*
X126764143Y-73032258D02*
X126473857Y-73032258D01*
X127635000Y-73395115D02*
X127199571Y-73395115D01*
X127417286Y-73395115D02*
X127417286Y-72633115D01*
X127417286Y-72633115D02*
X127344714Y-72741972D01*
X127344714Y-72741972D02*
X127272143Y-72814544D01*
X127272143Y-72814544D02*
X127199571Y-72850830D01*
D11*
X136002000Y-100350000D02*
X137262000Y-100350000D01*
X136002000Y-104110000D02*
X136002000Y-100350000D01*
X142822000Y-100350000D02*
X141562000Y-100350000D01*
X142822000Y-104110000D02*
X142822000Y-100350000D01*
X136102000Y-105390000D02*
X135772000Y-105630000D01*
X135772000Y-105150000D01*
X136102000Y-105390000D01*
G36*
X136102000Y-105390000D02*
G01*
X135772000Y-105630000D01*
X135772000Y-105150000D01*
X136102000Y-105390000D01*
G37*
X124654000Y-81601000D02*
X124654000Y-86801000D01*
X137414000Y-81601000D02*
X124654000Y-81601000D01*
X137414000Y-81601000D02*
X137414000Y-84201000D01*
X137414000Y-84201000D02*
X140014000Y-84201000D01*
X138684000Y-81601000D02*
X140014000Y-81601000D01*
X140014000Y-81601000D02*
X140014000Y-82931000D01*
X140014000Y-84201000D02*
X140014000Y-86801000D01*
X140014000Y-86801000D02*
X124654000Y-86801000D01*
X142546000Y-87415000D02*
X139886000Y-87415000D01*
X142546000Y-89115000D02*
X139886000Y-89115000D01*
X142546000Y-89115000D02*
X142546000Y-87415000D01*
X136480000Y-95863000D02*
X136480000Y-92603000D01*
X136480000Y-95863000D02*
X138180000Y-95863000D01*
X138180000Y-95863000D02*
X138180000Y-92603000D01*
X125878400Y-107423200D02*
X125878400Y-109493200D01*
X125878400Y-107423200D02*
X126748400Y-107423200D01*
X125878400Y-111893200D02*
X125878400Y-112143200D01*
X130748400Y-106893200D02*
X131348400Y-106893200D01*
X131048400Y-107193200D02*
X130748400Y-106893200D01*
X131048400Y-107193200D02*
X131348400Y-106893200D01*
X132748400Y-107423200D02*
X133618400Y-107423200D01*
X133618400Y-107423200D02*
X133618400Y-109493200D01*
X133618400Y-111893200D02*
X133618400Y-112143200D01*
X142546000Y-89447000D02*
X139886000Y-89447000D01*
X142546000Y-91147000D02*
X139886000Y-91147000D01*
X142546000Y-91147000D02*
X142546000Y-89447000D01*
X124195200Y-98915200D02*
X124195200Y-91815200D01*
X124220200Y-91815200D02*
X124370200Y-91815200D01*
X124370200Y-98915200D02*
X124220200Y-98915200D01*
X128995200Y-91915200D02*
X129195200Y-91915200D01*
X129195200Y-91915200D02*
X129195200Y-98915200D01*
X129195200Y-98915200D02*
X128920200Y-98915200D01*
X129225200Y-91495200D02*
X128895200Y-91255200D01*
X129225200Y-91015200D01*
X129225200Y-91495200D01*
G36*
X129225200Y-91495200D02*
G01*
X128895200Y-91255200D01*
X129225200Y-91015200D01*
X129225200Y-91495200D01*
G37*
X136084000Y-74306200D02*
X137414000Y-74306200D01*
X136084000Y-75636200D02*
X136084000Y-74306200D01*
X136084000Y-76906200D02*
X136084000Y-79506200D01*
X136084000Y-76906200D02*
X138744000Y-76906200D01*
X136084000Y-79506200D02*
X138744000Y-79506200D01*
X138744000Y-76906200D02*
X138744000Y-79506200D01*
X138512000Y-95863000D02*
X138512000Y-92603000D01*
X138512000Y-95863000D02*
X140212000Y-95863000D01*
X140212000Y-95863000D02*
X140212000Y-92603000D01*
X128464000Y-74306200D02*
X129794000Y-74306200D01*
X128464000Y-75636200D02*
X128464000Y-74306200D01*
X128464000Y-76906200D02*
X128464000Y-79506200D01*
X128464000Y-76906200D02*
X131124000Y-76906200D01*
X128464000Y-79506200D02*
X131124000Y-79506200D01*
X131124000Y-76906200D02*
X131124000Y-79506200D01*
X136934000Y-110804000D02*
X136934000Y-109474000D01*
X138264000Y-110804000D02*
X136934000Y-110804000D01*
X139534000Y-108144000D02*
X142134000Y-108144000D01*
X139534000Y-110804000D02*
X139534000Y-108144000D01*
X139534000Y-110804000D02*
X142134000Y-110804000D01*
X142134000Y-110804000D02*
X142134000Y-108144000D01*
X129783200Y-91915200D02*
X130058200Y-91915200D01*
X129783200Y-98915200D02*
X129783200Y-91915200D01*
X129983200Y-98915200D02*
X129783200Y-98915200D01*
X134608200Y-91915200D02*
X134758200Y-91915200D01*
X134758200Y-99015200D02*
X134608200Y-99015200D01*
X134783200Y-91915200D02*
X134783200Y-99015200D01*
X130083200Y-99575200D02*
X129753200Y-99815200D01*
X129753200Y-99335200D01*
X130083200Y-99575200D01*
G36*
X130083200Y-99575200D02*
G01*
X129753200Y-99815200D01*
X129753200Y-99335200D01*
X130083200Y-99575200D01*
G37*
X132274000Y-74306200D02*
X133604000Y-74306200D01*
X132274000Y-75636200D02*
X132274000Y-74306200D01*
X132274000Y-76906200D02*
X132274000Y-79506200D01*
X132274000Y-76906200D02*
X134934000Y-76906200D01*
X132274000Y-79506200D02*
X134934000Y-79506200D01*
X134934000Y-76906200D02*
X134934000Y-79506200D01*
X124755600Y-105317600D02*
X124755600Y-103987600D01*
X126085600Y-105317600D02*
X124755600Y-105317600D01*
X127355600Y-102657600D02*
X129955600Y-102657600D01*
X127355600Y-105317600D02*
X127355600Y-102657600D01*
X127355600Y-105317600D02*
X129955600Y-105317600D01*
X129955600Y-105317600D02*
X129955600Y-102657600D01*
X139210000Y-89447000D02*
X136550000Y-89447000D01*
X139210000Y-91147000D02*
X136550000Y-91147000D01*
X139210000Y-91147000D02*
X139210000Y-89447000D01*
X125500000Y-46280000D02*
X141740000Y-46280000D01*
X125500000Y-53900000D02*
X125500000Y-46280000D01*
X125500000Y-70520000D02*
X125500000Y-69900000D01*
X127620000Y-70520000D02*
X125500000Y-70520000D01*
X141740000Y-46280000D02*
X141740000Y-53900000D01*
X141740000Y-69900000D02*
X141740000Y-70520000D01*
X141740000Y-70520000D02*
X139620000Y-70520000D01*
X125070000Y-53900000D02*
X124830000Y-53564000D01*
X125310000Y-53564000D01*
X125070000Y-53900000D01*
G36*
X125070000Y-53900000D02*
G01*
X124830000Y-53564000D01*
X125310000Y-53564000D01*
X125070000Y-53900000D01*
G37*
X140544000Y-95863000D02*
X140544000Y-92603000D01*
X140544000Y-95863000D02*
X142244000Y-95863000D01*
X142244000Y-95863000D02*
X142244000Y-92603000D01*
X139210000Y-87415000D02*
X136550000Y-87415000D01*
X139210000Y-89115000D02*
X136550000Y-89115000D01*
X139210000Y-89115000D02*
X139210000Y-87415000D01*
X140148000Y-72711000D02*
X141478000Y-72711000D01*
X140148000Y-74041000D02*
X140148000Y-72711000D01*
X140148000Y-75311000D02*
X140148000Y-80451000D01*
X140148000Y-75311000D02*
X142808000Y-75311000D01*
X140148000Y-80451000D02*
X142808000Y-80451000D01*
X142808000Y-75311000D02*
X142808000Y-80451000D01*
X124654000Y-74306200D02*
X125984000Y-74306200D01*
X124654000Y-75636200D02*
X124654000Y-74306200D01*
X124654000Y-76906200D02*
X124654000Y-79506200D01*
X124654000Y-76906200D02*
X127314000Y-76906200D01*
X124654000Y-79506200D02*
X127314000Y-79506200D01*
X127314000Y-76906200D02*
X127314000Y-79506200D01*
%LPC*%
D12*
X137112000Y-105410000D03*
X139412000Y-105410000D03*
D13*
X139412000Y-99110000D03*
D12*
X141712000Y-105410000D03*
D14*
X138684000Y-82931000D03*
D15*
X138684000Y-85471000D03*
X136144000Y-82931000D03*
X136144000Y-85471000D03*
X133604000Y-82931000D03*
X133604000Y-85471000D03*
X131064000Y-82931000D03*
X131064000Y-85471000D03*
X128524000Y-82931000D03*
X128524000Y-85471000D03*
X125984000Y-82931000D03*
X125984000Y-85471000D03*
D16*
X141986000Y-88265000D03*
X139886000Y-88265000D03*
D17*
X137330000Y-95103000D03*
X137330000Y-92603000D03*
D18*
X131048400Y-108018200D03*
X130398400Y-108018200D03*
X129748400Y-108018200D03*
X129098400Y-108018200D03*
X128448400Y-108018200D03*
D19*
X125573400Y-110693200D03*
D20*
X126010900Y-110693200D03*
D21*
X127523400Y-107693200D03*
D22*
X129748400Y-110693200D03*
D21*
X131973400Y-107693200D03*
D20*
X133485900Y-110693200D03*
D19*
X133923400Y-110693200D03*
D16*
X141986000Y-90297000D03*
X139886000Y-90297000D03*
D23*
X127965200Y-90805200D03*
X125425200Y-90805200D03*
X125425200Y-100025200D03*
X127965200Y-100025200D03*
D14*
X137414000Y-75636200D03*
D15*
X137414000Y-78176200D03*
D17*
X139362000Y-95103000D03*
X139362000Y-92603000D03*
D14*
X129794000Y-75636200D03*
D15*
X129794000Y-78176200D03*
D14*
X138264000Y-109474000D03*
D15*
X140804000Y-109474000D03*
D23*
X131013200Y-100025200D03*
X133553200Y-100025200D03*
X133553200Y-90805200D03*
X131013200Y-90805200D03*
D14*
X133604000Y-75636200D03*
D15*
X133604000Y-78176200D03*
D14*
X126085600Y-103987600D03*
D15*
X128625600Y-103987600D03*
D16*
X138650000Y-90297000D03*
X136550000Y-90297000D03*
D24*
X125620000Y-54900000D03*
X125620000Y-56900000D03*
X125620000Y-58900000D03*
X125620000Y-60900000D03*
X125620000Y-62900000D03*
X125620000Y-64900000D03*
X125620000Y-66900000D03*
X125620000Y-68900000D03*
X141620000Y-68900000D03*
X141620000Y-66900000D03*
X141620000Y-64900000D03*
X141620000Y-62900000D03*
X141620000Y-60900000D03*
X141620000Y-58900000D03*
X141620000Y-56900000D03*
X141620000Y-54900000D03*
D17*
X141394000Y-95103000D03*
X141394000Y-92603000D03*
D16*
X138650000Y-88265000D03*
X136550000Y-88265000D03*
D14*
X141478000Y-74041000D03*
D15*
X141478000Y-76581000D03*
X141478000Y-79121000D03*
D14*
X125984000Y-75636200D03*
D15*
X125984000Y-78176200D03*
%LPD*%
M02*
